<svg width="16" height="16" viewBox="0 0 16 16" fill="none" xmlns="http://www.w3.org/2000/svg">
<path d="M6.66666 11.6665H9.33332" stroke="#18F271" stroke-width="1.2" stroke-linecap="round" stroke-linejoin="round"/>
<path d="M1.33334 11.6665V4.99984C1.33334 2.33317 2.00001 1.6665 4.66668 1.6665" stroke="#18F271" stroke-width="1.2" stroke-linecap="round" stroke-linejoin="round"/>
<path d="M14.6667 11.6665V4.99984C14.6667 2.33317 14 1.6665 11.3333 1.6665" stroke="#18F271" stroke-width="1.2" stroke-linecap="round" stroke-linejoin="round"/>
<path d="M6.66668 10.6069V12.8002C6.66668 14.1336 6.13334 14.6669 4.80001 14.6669H3.20001C1.86668 14.6669 1.33334 14.1336 1.33334 12.8002V10.6069C1.33334 9.27357 1.86668 8.74023 3.20001 8.74023H4.80001C6.13334 8.74023 6.66668 9.27357 6.66668 10.6069Z" stroke="#18F271" stroke-width="1.2" stroke-linecap="round" stroke-linejoin="round"/>
<path d="M14.6667 10.6069V12.8002C14.6667 14.1336 14.1333 14.6669 12.8 14.6669H11.2C9.86668 14.6669 9.33334 14.1336 9.33334 12.8002V10.6069C9.33334 9.27357 9.86668 8.74023 11.2 8.74023H12.8C14.1333 8.74023 14.6667 9.27357 14.6667 10.6069Z" stroke="#18F271" stroke-width="1.2" stroke-linecap="round" stroke-linejoin="round"/>
</svg>
