<svg width="33" height="32" viewBox="0 0 33 32" fill="none" xmlns="http://www.w3.org/2000/svg">
<path d="M16.5001 10.52L15.0734 13C14.7534 13.5467 15.0201 14 15.6467 14H17.3401C17.9801 14 18.2334 14.4533 17.9134 15L16.5001 17.48" stroke="#FA5A7D" stroke-width="2" stroke-linecap="round" stroke-linejoin="round"/>
<path d="M11.5666 24.0533V22.5067C8.49998 20.6533 5.97998 17.04 5.97998 13.2C5.97998 6.6 12.0466 1.42667 18.9 2.92C21.9133 3.58667 24.5533 5.58667 25.9266 8.34667C28.7133 13.9467 25.78 19.8933 21.4733 22.4933V24.04C21.4733 24.4267 21.62 25.32 20.1933 25.32H12.8466C11.38 25.3333 11.5666 24.76 11.5666 24.0533Z" stroke="#FA5A7D" stroke-width="2" stroke-linecap="round" stroke-linejoin="round"/>
<path d="M11.8335 29.3333C14.8868 28.4667 18.1135 28.4667 21.1668 29.3333" stroke="#FA5A7D" stroke-width="2" stroke-linecap="round" stroke-linejoin="round"/>
</svg>
