<svg width="33" height="32" viewBox="0 0 33 32" fill="none" xmlns="http://www.w3.org/2000/svg">
<path d="M13.8333 23.3335H19.1666" stroke="#599BFF" stroke-width="1.5" stroke-linecap="round" stroke-linejoin="round"/>
<path d="M3.16675 23.3335V10.0002C3.16675 4.66683 4.50008 3.3335 9.83341 3.3335" stroke="#599BFF" stroke-width="1.5" stroke-linecap="round" stroke-linejoin="round"/>
<path d="M29.8334 23.3335V10.0002C29.8334 4.66683 28.5001 3.3335 23.1667 3.3335" stroke="#599BFF" stroke-width="1.5" stroke-linecap="round" stroke-linejoin="round"/>
<path d="M13.8334 21.2133V25.6C13.8334 28.2666 12.7667 29.3333 10.1001 29.3333H6.90008C4.23341 29.3333 3.16675 28.2666 3.16675 25.6V21.2133C3.16675 18.5466 4.23341 17.48 6.90008 17.48H10.1001C12.7667 17.48 13.8334 18.5466 13.8334 21.2133Z" stroke="#599BFF" stroke-width="1.5" stroke-linecap="round" stroke-linejoin="round"/>
<path d="M29.8334 21.2133V25.6C29.8334 28.2666 28.7668 29.3333 26.1001 29.3333H22.9001C20.2334 29.3333 19.1667 28.2666 19.1667 25.6V21.2133C19.1667 18.5466 20.2334 17.48 22.9001 17.48H26.1001C28.7668 17.48 29.8334 18.5466 29.8334 21.2133Z" stroke="#599BFF" stroke-width="1.5" stroke-linecap="round" stroke-linejoin="round"/>
</svg>
