<svg width="33" height="32" viewBox="0 0 33 32" fill="none" xmlns="http://www.w3.org/2000/svg">
<path d="M13.3267 21.3333L15.3267 23.3333L19.66 19.3333" stroke="#817CFD" stroke-width="2" stroke-linecap="round" stroke-linejoin="round"/>
<path d="M12.2466 2.66666L7.41992 7.50666" stroke="#817CFD" stroke-width="2" stroke-miterlimit="10" stroke-linecap="round" stroke-linejoin="round"/>
<path d="M20.7534 2.66666L25.5801 7.50666" stroke="#817CFD" stroke-width="2" stroke-miterlimit="10" stroke-linecap="round" stroke-linejoin="round"/>
<path d="M3.1665 10.4667C3.1665 7.99999 4.4865 7.79999 6.1265 7.79999H26.8732C28.5132 7.79999 29.8332 7.99999 29.8332 10.4667C29.8332 13.3333 28.5132 13.1333 26.8732 13.1333H6.1265C4.4865 13.1333 3.1665 13.3333 3.1665 10.4667Z" stroke="#817CFD" stroke-width="2"/>
<path d="M5.1665 13.3333L7.0465 24.8533C7.47317 27.44 8.49984 29.3333 12.3132 29.3333H20.3532C24.4998 29.3333 25.1132 27.52 25.5932 25.0133L27.8332 13.3333" stroke="#817CFD" stroke-width="2" stroke-linecap="round"/>
</svg>
