<svg width="33" height="32" viewBox="0 0 33 32" fill="none" xmlns="http://www.w3.org/2000/svg">
<path d="M22.0336 17.1066L19.7269 17.88C19.0869 18.0933 18.5936 18.5867 18.3803 19.2267L17.6069 21.5333C16.9536 23.52 14.1536 23.48 13.5402 21.4933L10.9402 13.12C10.4336 11.4533 11.9669 9.92 13.6069 10.4267L21.9936 13.0266C23.9802 13.6533 24.0069 16.4533 22.0336 17.1066Z" stroke="#C47CFD" stroke-width="2" stroke-linecap="round" stroke-linejoin="round"/>
<path d="M16.4998 29.3333C23.8636 29.3333 29.8332 23.3638 29.8332 16C29.8332 8.63619 23.8636 2.66666 16.4998 2.66666C9.13604 2.66666 3.1665 8.63619 3.1665 16C3.1665 23.3638 9.13604 29.3333 16.4998 29.3333Z" stroke="#C47CFD" stroke-width="2" stroke-linecap="round" stroke-linejoin="round"/>
</svg>
