<svg width="33" height="32" viewBox="0 0 33 32" fill="none" xmlns="http://www.w3.org/2000/svg">
<path d="M24.5 25.1467H23.4867C22.42 25.1467 21.4067 25.56 20.66 26.3067L18.38 28.56C17.34 29.5867 15.6467 29.5867 14.6067 28.56L12.3267 26.3067C11.58 25.56 10.5533 25.1467 9.5 25.1467H8.5C6.28667 25.1467 4.5 23.3734 4.5 21.1867V6.63998C4.5 4.45332 6.28667 2.68002 8.5 2.68002H24.5C26.7133 2.68002 28.5 4.45332 28.5 6.63998V21.1867C28.5 23.36 26.7133 25.1467 24.5 25.1467Z" stroke="#FFA959" stroke-width="2" stroke-miterlimit="10" stroke-linecap="round" stroke-linejoin="round"/>
<path d="M16.4998 13.3333C18.2155 13.3333 19.6064 11.9424 19.6064 10.2266C19.6064 8.51087 18.2155 7.12003 16.4998 7.12003C14.784 7.12003 13.3931 8.51087 13.3931 10.2266C13.3931 11.9424 14.784 13.3333 16.4998 13.3333Z" stroke="#FFA959" stroke-width="2" stroke-linecap="round" stroke-linejoin="round"/>
<path d="M21.8332 20.88C21.8332 18.48 19.4465 16.5334 16.4998 16.5334C13.5532 16.5334 11.1665 18.48 11.1665 20.88" stroke="#FFA959" stroke-width="2" stroke-linecap="round" stroke-linejoin="round"/>
</svg>
