<svg width="16" height="16" viewBox="0 0 16 16" fill="none" xmlns="http://www.w3.org/2000/svg">
<path d="M12 12.5732H11.4933C10.96 12.5732 10.4533 12.7798 10.08 13.1532L8.93998 14.2798C8.41998 14.7932 7.57334 14.7932 7.05334 14.2798L5.91333 13.1532C5.54 12.7798 5.02667 12.5732 4.5 12.5732H4C2.89333 12.5732 2 11.6865 2 10.5932V3.31982C2 2.22649 2.89333 1.33984 4 1.33984H12C13.1067 1.33984 14 2.22649 14 3.31982V10.5932C14 11.6798 13.1067 12.5732 12 12.5732Z" stroke="#FFA959" stroke-width="1.2" stroke-miterlimit="10" stroke-linecap="round" stroke-linejoin="round"/>
<path d="M7.99963 6.66671C8.85752 6.66671 9.55298 5.97124 9.55298 5.11336C9.55298 4.25548 8.85752 3.56006 7.99963 3.56006C7.14175 3.56006 6.44629 4.25548 6.44629 5.11336C6.44629 5.97124 7.14175 6.66671 7.99963 6.66671Z" stroke="#FFA959" stroke-width="1.2" stroke-linecap="round" stroke-linejoin="round"/>
<path d="M10.6663 10.4399C10.6663 9.2399 9.47301 8.2666 7.99967 8.2666C6.52634 8.2666 5.33301 9.2399 5.33301 10.4399" stroke="#FFA959" stroke-width="1.2" stroke-linecap="round" stroke-linejoin="round"/>
</svg>
