<svg width="335" height="124" viewBox="0 0 335 124" fill="none" xmlns="http://www.w3.org/2000/svg">
<rect width="335" height="124" rx="16" fill="#0180F5"/>
<mask id="mask0_153_6671" style="mask-type:alpha" maskUnits="userSpaceOnUse" x="0" y="0" width="335" height="124">
<rect width="335" height="124" rx="16" fill="#0180F5"/>
</mask>
<g mask="url(#mask0_153_6671)">
<path fill-rule="evenodd" clip-rule="evenodd" d="M313.238 97.1483C301.536 101.29 292.345 109.737 280.181 112.211C263.299 115.645 243.474 124.601 229.799 114.121C216.262 103.746 221.471 82.2598 219.067 65.3753C216.864 49.9101 211.573 34.6084 216.358 19.7391C221.473 3.84272 230.179 -14.2644 246.204 -18.9568C262.233 -23.6502 276.066 -6.70022 292.226 -2.47571C304.811 0.814335 319.233 -4.50702 329.91 2.92536C341.117 10.7272 344.986 24.8126 349.789 37.5959C355.49 52.7684 368.795 70.0351 360.317 83.8473C351.573 98.0947 328.996 91.5707 313.238 97.1483Z" fill="#0F8BFD"/>
</g>
<circle cx="11" cy="9" r="3" fill="#1C92FF"/>
<circle cx="11" cy="21" r="3" fill="#1C92FF"/>
<circle cx="11" cy="33" r="3" fill="#1C92FF"/>
<circle cx="11" cy="45" r="3" fill="#1C92FF"/>
<circle cx="23" cy="9" r="3" fill="#1C92FF"/>
<circle cx="23" cy="21" r="3" fill="#1C92FF"/>
<circle cx="23" cy="33" r="3" fill="#1C92FF"/>
<circle cx="23" cy="45" r="3" fill="#1C92FF"/>
<circle cx="35" cy="9" r="3" fill="#1C92FF"/>
<circle cx="35" cy="21" r="3" fill="#1C92FF"/>
<circle cx="35" cy="33" r="3" fill="#1C92FF"/>
<circle cx="35" cy="45" r="3" fill="#1C92FF"/>
<circle cx="47" cy="9" r="3" fill="#1C92FF"/>
<circle cx="47" cy="21" r="3" fill="#1C92FF"/>
<circle cx="47" cy="33" r="3" fill="#1C92FF"/>
<circle cx="47" cy="45" r="3" fill="#1C92FF"/>
<path d="M25.05 79V68.2H26.8575V72.745H31.9725V68.2H33.7725V79H31.9725V74.44H26.8575V79H25.05ZM36.0252 69.67V68.0125H37.8327V69.67H36.0252ZM36.0252 79V70.9H37.8327V79H36.0252ZM40.8293 79V77.3425H42.6368V79H40.8293ZM40.8293 76.3V68.2H42.6368V76.3H40.8293ZM52.485 79.225C51.695 79.225 50.9825 79.0875 50.3475 78.8125C49.7175 78.5375 49.1975 78.145 48.7875 77.635C48.3825 77.12 48.125 76.51 48.015 75.805L49.89 75.52C50.05 76.16 50.3775 76.655 50.8725 77.005C51.3725 77.355 51.9475 77.53 52.5975 77.53C52.9825 77.53 53.345 77.47 53.685 77.35C54.025 77.23 54.3 77.055 54.51 76.825C54.725 76.595 54.8325 76.3125 54.8325 75.9775C54.8325 75.8275 54.8075 75.69 54.7575 75.565C54.7075 75.435 54.6325 75.32 54.5325 75.22C54.4375 75.12 54.3125 75.03 54.1575 74.95C54.0075 74.865 53.8325 74.7925 53.6325 74.7325L50.8425 73.9075C50.6025 73.8375 50.3425 73.745 50.0625 73.63C49.7875 73.51 49.525 73.3475 49.275 73.1425C49.03 72.9325 48.8275 72.6675 48.6675 72.3475C48.5125 72.0225 48.435 71.6225 48.435 71.1475C48.435 70.4525 48.61 69.87 48.96 69.4C49.315 68.925 49.79 68.57 50.385 68.335C50.985 68.1 51.65 67.985 52.38 67.99C53.12 67.995 53.78 68.1225 54.36 68.3725C54.94 68.6175 55.425 68.975 55.815 69.445C56.205 69.915 56.48 70.4825 56.64 71.1475L54.6975 71.485C54.6175 71.105 54.4625 70.7825 54.2325 70.5175C54.0075 70.2475 53.73 70.0425 53.4 69.9025C53.075 69.7625 52.7275 69.6875 52.3575 69.6775C51.9975 69.6725 51.6625 69.7275 51.3525 69.8425C51.0475 69.9525 50.8 70.1125 50.61 70.3225C50.425 70.5325 50.3325 70.7775 50.3325 71.0575C50.3325 71.3225 50.4125 71.54 50.5725 71.71C50.7325 71.875 50.93 72.0075 51.165 72.1075C51.405 72.2025 51.6475 72.2825 51.8925 72.3475L53.8275 72.8875C54.0925 72.9575 54.39 73.0525 54.72 73.1725C55.05 73.2925 55.3675 73.46 55.6725 73.675C55.9775 73.89 56.2275 74.1725 56.4225 74.5225C56.6225 74.8725 56.7225 75.3175 56.7225 75.8575C56.7225 76.4175 56.605 76.91 56.37 77.335C56.14 77.755 55.8275 78.105 55.4325 78.385C55.0375 78.665 54.585 78.875 54.075 79.015C53.57 79.155 53.04 79.225 52.485 79.225ZM63.0934 79C62.5584 79.1 62.0334 79.1425 61.5184 79.1275C61.0084 79.1175 60.5509 79.025 60.1459 78.85C59.7409 78.67 59.4334 78.3875 59.2234 78.0025C59.0384 77.6525 58.9409 77.295 58.9309 76.93C58.9209 76.565 58.9159 76.1525 58.9159 75.6925V68.65H60.7159V75.5875C60.7159 75.9125 60.7184 76.1975 60.7234 76.4425C60.7334 76.6875 60.7859 76.8875 60.8809 77.0425C61.0609 77.3425 61.3484 77.51 61.7434 77.545C62.1384 77.58 62.5884 77.56 63.0934 77.485V79ZM57.4459 72.3175V70.9H63.0934V72.3175H57.4459ZM67.1002 79.225C66.5152 79.225 66.0202 79.115 65.6152 78.895C65.2102 78.67 64.9027 78.3725 64.6927 78.0025C64.4877 77.6325 64.3852 77.225 64.3852 76.78C64.3852 76.39 64.4502 76.04 64.5802 75.73C64.7102 75.415 64.9102 75.145 65.1802 74.92C65.4502 74.69 65.8002 74.5025 66.2302 74.3575C66.5552 74.2525 66.9352 74.1575 67.3702 74.0725C67.8102 73.9875 68.2852 73.91 68.7952 73.84C69.3102 73.765 69.8477 73.685 70.4077 73.6L69.7627 73.9675C69.7677 73.4075 69.6427 72.995 69.3877 72.73C69.1327 72.465 68.7027 72.3325 68.0977 72.3325C67.7327 72.3325 67.3802 72.4175 67.0402 72.5875C66.7002 72.7575 66.4627 73.05 66.3277 73.465L64.6777 72.9475C64.8777 72.2625 65.2577 71.7125 65.8177 71.2975C66.3827 70.8825 67.1427 70.675 68.0977 70.675C68.8177 70.675 69.4502 70.7925 69.9952 71.0275C70.5452 71.2625 70.9527 71.6475 71.2177 72.1825C71.3627 72.4675 71.4502 72.76 71.4802 73.06C71.5102 73.355 71.5252 73.6775 71.5252 74.0275V79H69.9427V77.245L70.2052 77.53C69.8402 78.115 69.4127 78.545 68.9227 78.82C68.4377 79.09 67.8302 79.225 67.1002 79.225ZM67.4602 77.785C67.8702 77.785 68.2202 77.7125 68.5102 77.5675C68.8002 77.4225 69.0302 77.245 69.2002 77.035C69.3752 76.825 69.4927 76.6275 69.5527 76.4425C69.6477 76.2125 69.7002 75.95 69.7102 75.655C69.7252 75.355 69.7327 75.1125 69.7327 74.9275L70.2877 75.0925C69.7427 75.1775 69.2752 75.2525 68.8852 75.3175C68.4952 75.3825 68.1602 75.445 67.8802 75.505C67.6002 75.56 67.3527 75.6225 67.1377 75.6925C66.9277 75.7675 66.7502 75.855 66.6052 75.955C66.4602 76.055 66.3477 76.17 66.2677 76.3C66.1927 76.43 66.1552 76.5825 66.1552 76.7575C66.1552 76.9575 66.2052 77.135 66.3052 77.29C66.4052 77.44 66.5502 77.56 66.7402 77.65C66.9352 77.74 67.1752 77.785 67.4602 77.785ZM73.4777 79V70.9H75.0752V72.8725L74.8802 72.6175C74.9802 72.3475 75.1127 72.1025 75.2777 71.8825C75.4477 71.6575 75.6502 71.4725 75.8852 71.3275C76.0852 71.1925 76.3052 71.0875 76.5452 71.0125C76.7902 70.9325 77.0402 70.885 77.2952 70.87C77.5502 70.85 77.7977 70.86 78.0377 70.9V72.5875C77.7977 72.5175 77.5202 72.495 77.2052 72.52C76.8952 72.545 76.6152 72.6325 76.3652 72.7825C76.1152 72.9175 75.9102 73.09 75.7502 73.3C75.5952 73.51 75.4802 73.75 75.4052 74.02C75.3302 74.285 75.2927 74.5725 75.2927 74.8825V79H73.4777ZM84.2164 79C83.6814 79.1 83.1564 79.1425 82.6414 79.1275C82.1314 79.1175 81.6739 79.025 81.2689 78.85C80.8639 78.67 80.5564 78.3875 80.3464 78.0025C80.1614 77.6525 80.0639 77.295 80.0539 76.93C80.0439 76.565 80.0389 76.1525 80.0389 75.6925V68.65H81.8389V75.5875C81.8389 75.9125 81.8414 76.1975 81.8464 76.4425C81.8564 76.6875 81.9089 76.8875 82.0039 77.0425C82.1839 77.3425 82.4714 77.51 82.8664 77.545C83.2614 77.58 83.7114 77.56 84.2164 77.485V79ZM78.5689 72.3175V70.9H84.2164V72.3175H78.5689ZM90.0261 82.6L91.5861 78.3175L91.6161 79.5775L88.0836 70.9H89.9661L92.4711 77.32H91.9911L94.4286 70.9H96.2361L91.7211 82.6H90.0261ZM100.639 79.225C99.8292 79.225 99.1217 79.0425 98.5167 78.6775C97.9117 78.3125 97.4417 77.81 97.1067 77.17C96.7767 76.525 96.6117 75.785 96.6117 74.95C96.6117 74.1 96.7817 73.355 97.1217 72.715C97.4617 72.075 97.9342 71.575 98.5392 71.215C99.1442 70.855 99.8442 70.675 100.639 70.675C101.454 70.675 102.164 70.8575 102.769 71.2225C103.374 71.5875 103.844 72.0925 104.179 72.7375C104.514 73.3775 104.682 74.115 104.682 74.95C104.682 75.79 104.512 76.5325 104.172 77.1775C103.837 77.8175 103.367 78.32 102.762 78.685C102.157 79.045 101.449 79.225 100.639 79.225ZM100.639 77.53C101.359 77.53 101.894 77.29 102.244 76.81C102.594 76.33 102.769 75.71 102.769 74.95C102.769 74.165 102.592 73.54 102.237 73.075C101.882 72.605 101.349 72.37 100.639 72.37C100.154 72.37 99.7542 72.48 99.4392 72.7C99.1292 72.915 98.8992 73.2175 98.7492 73.6075C98.5992 73.9925 98.5242 74.44 98.5242 74.95C98.5242 75.735 98.7017 76.3625 99.0567 76.8325C99.4167 77.2975 99.9442 77.53 100.639 77.53ZM109.372 79.2325C108.772 79.2325 108.277 79.1325 107.887 78.9325C107.497 78.7325 107.187 78.4775 106.957 78.1675C106.727 77.8575 106.557 77.5275 106.447 77.1775C106.337 76.8275 106.264 76.4975 106.229 76.1875C106.199 75.8725 106.184 75.6175 106.184 75.4225V70.9H108.014V74.8C108.014 75.05 108.032 75.3325 108.067 75.6475C108.102 75.9575 108.182 76.2575 108.307 76.5475C108.437 76.8325 108.627 77.0675 108.877 77.2525C109.132 77.4375 109.474 77.53 109.904 77.53C110.134 77.53 110.362 77.4925 110.587 77.4175C110.812 77.3425 111.014 77.215 111.194 77.035C111.379 76.85 111.527 76.5975 111.637 76.2775C111.747 75.9575 111.802 75.5525 111.802 75.0625L112.874 75.52C112.874 76.21 112.739 76.835 112.469 77.395C112.204 77.955 111.812 78.4025 111.292 78.7375C110.772 79.0675 110.132 79.2325 109.372 79.2325ZM112.019 79V76.4875H111.802V70.9H113.617V79H112.019ZM115.724 79V70.9H117.321V72.8725L117.126 72.6175C117.226 72.3475 117.359 72.1025 117.524 71.8825C117.694 71.6575 117.896 71.4725 118.131 71.3275C118.331 71.1925 118.551 71.0875 118.791 71.0125C119.036 70.9325 119.286 70.885 119.541 70.87C119.796 70.85 120.044 70.86 120.284 70.9V72.5875C120.044 72.5175 119.766 72.495 119.451 72.52C119.141 72.545 118.861 72.6325 118.611 72.7825C118.361 72.9175 118.156 73.09 117.996 73.3C117.841 73.51 117.726 73.75 117.651 74.02C117.576 74.285 117.539 74.5725 117.539 74.8825V79H115.724ZM127.965 79.225C127.22 79.225 126.57 79.0375 126.015 78.6625C125.46 78.2875 125.03 77.7775 124.725 77.1325C124.42 76.4875 124.268 75.76 124.268 74.95C124.268 74.13 124.42 73.4 124.725 72.76C125.035 72.115 125.473 71.6075 126.038 71.2375C126.603 70.8625 127.268 70.675 128.033 70.675C128.803 70.675 129.448 70.8625 129.968 71.2375C130.493 71.6075 130.89 72.115 131.16 72.76C131.43 73.405 131.565 74.135 131.565 74.95C131.565 75.755 131.43 76.4825 131.16 77.1325C130.89 77.7775 130.488 78.2875 129.953 78.6625C129.418 79.0375 128.755 79.225 127.965 79.225ZM128.243 77.605C128.728 77.605 129.118 77.495 129.413 77.275C129.713 77.05 129.93 76.7375 130.065 76.3375C130.205 75.9375 130.275 75.475 130.275 74.95C130.275 74.42 130.205 73.9575 130.065 73.5625C129.93 73.1625 129.718 72.8525 129.428 72.6325C129.138 72.4075 128.763 72.295 128.303 72.295C127.818 72.295 127.418 72.415 127.103 72.655C126.788 72.89 126.555 73.21 126.405 73.615C126.255 74.015 126.18 74.46 126.18 74.95C126.18 75.445 126.253 75.895 126.398 76.3C126.548 76.7 126.775 77.0175 127.08 77.2525C127.385 77.4875 127.773 77.605 128.243 77.605ZM130.275 79V73.315H130.05V68.2H131.873V79H130.275ZM136.241 79.225C135.656 79.225 135.161 79.115 134.756 78.895C134.351 78.67 134.043 78.3725 133.833 78.0025C133.628 77.6325 133.526 77.225 133.526 76.78C133.526 76.39 133.591 76.04 133.721 75.73C133.851 75.415 134.051 75.145 134.321 74.92C134.591 74.69 134.941 74.5025 135.371 74.3575C135.696 74.2525 136.076 74.1575 136.511 74.0725C136.951 73.9875 137.426 73.91 137.936 73.84C138.451 73.765 138.988 73.685 139.548 73.6L138.903 73.9675C138.908 73.4075 138.783 72.995 138.528 72.73C138.273 72.465 137.843 72.3325 137.238 72.3325C136.873 72.3325 136.521 72.4175 136.181 72.5875C135.841 72.7575 135.603 73.05 135.468 73.465L133.818 72.9475C134.018 72.2625 134.398 71.7125 134.958 71.2975C135.523 70.8825 136.283 70.675 137.238 70.675C137.958 70.675 138.591 70.7925 139.136 71.0275C139.686 71.2625 140.093 71.6475 140.358 72.1825C140.503 72.4675 140.591 72.76 140.621 73.06C140.651 73.355 140.666 73.6775 140.666 74.0275V79H139.083V77.245L139.346 77.53C138.981 78.115 138.553 78.545 138.063 78.82C137.578 79.09 136.971 79.225 136.241 79.225ZM136.601 77.785C137.011 77.785 137.361 77.7125 137.651 77.5675C137.941 77.4225 138.171 77.245 138.341 77.035C138.516 76.825 138.633 76.6275 138.693 76.4425C138.788 76.2125 138.841 75.95 138.851 75.655C138.866 75.355 138.873 75.1125 138.873 74.9275L139.428 75.0925C138.883 75.1775 138.416 75.2525 138.026 75.3175C137.636 75.3825 137.301 75.445 137.021 75.505C136.741 75.56 136.493 75.6225 136.278 75.6925C136.068 75.7675 135.891 75.855 135.746 75.955C135.601 76.055 135.488 76.17 135.408 76.3C135.333 76.43 135.296 76.5825 135.296 76.7575C135.296 76.9575 135.346 77.135 135.446 77.29C135.546 77.44 135.691 77.56 135.881 77.65C136.076 77.74 136.316 77.785 136.601 77.785ZM143.229 82.6L144.789 78.3175L144.819 79.5775L141.287 70.9H143.169L145.674 77.32H145.194L147.632 70.9H149.439L144.924 82.6H143.229ZM27.33 101L24.1725 90.2H26.07L28.2225 98L30.3675 90.215L32.265 90.2L34.4175 98L36.5625 90.2H38.46L35.31 101H33.525L31.3125 93.32L29.115 101H27.33ZM39.5408 91.67V90.0125H41.3483V91.67H39.5408ZM39.5408 101V92.9H41.3483V101H39.5408ZM48.3424 101C47.8074 101.1 47.2824 101.143 46.7674 101.128C46.2574 101.118 45.7999 101.025 45.3949 100.85C44.9899 100.67 44.6824 100.387 44.4724 100.002C44.2874 99.6525 44.1899 99.295 44.1799 98.93C44.1699 98.565 44.1649 98.1525 44.1649 97.6925V90.65H45.9649V97.5875C45.9649 97.9125 45.9674 98.1975 45.9724 98.4425C45.9824 98.6875 46.0349 98.8875 46.1299 99.0425C46.3099 99.3425 46.5974 99.51 46.9924 99.545C47.3874 99.58 47.8374 99.56 48.3424 99.485V101ZM42.6949 94.3175V92.9H48.3424V94.3175H42.6949ZM55.6867 101V97.1C55.6867 96.845 55.6692 96.5625 55.6342 96.2525C55.5992 95.9425 55.5167 95.645 55.3867 95.36C55.2617 95.07 55.0717 94.8325 54.8167 94.6475C54.5667 94.4625 54.2267 94.37 53.7967 94.37C53.5667 94.37 53.3392 94.4075 53.1142 94.4825C52.8892 94.5575 52.6842 94.6875 52.4992 94.8725C52.3192 95.0525 52.1742 95.3025 52.0642 95.6225C51.9542 95.9375 51.8992 96.3425 51.8992 96.8375L50.8267 96.38C50.8267 95.69 50.9592 95.065 51.2242 94.505C51.4942 93.945 51.8892 93.5 52.4092 93.17C52.9292 92.835 53.5692 92.6675 54.3292 92.6675C54.9292 92.6675 55.4242 92.7675 55.8142 92.9675C56.2042 93.1675 56.5142 93.4225 56.7442 93.7325C56.9742 94.0425 57.1442 94.3725 57.2542 94.7225C57.3642 95.0725 57.4342 95.405 57.4642 95.72C57.4992 96.03 57.5167 96.2825 57.5167 96.4775V101H55.6867ZM50.0692 101V90.2H51.6817V95.885H51.8992V101H50.0692ZM66.4743 101.225C65.6843 101.225 64.9718 101.088 64.3368 100.812C63.7068 100.537 63.1868 100.145 62.7768 99.635C62.3718 99.12 62.1143 98.51 62.0043 97.805L63.8793 97.52C64.0393 98.16 64.3668 98.655 64.8618 99.005C65.3618 99.355 65.9368 99.53 66.5868 99.53C66.9718 99.53 67.3343 99.47 67.6743 99.35C68.0143 99.23 68.2893 99.055 68.4993 98.825C68.7143 98.595 68.8218 98.3125 68.8218 97.9775C68.8218 97.8275 68.7968 97.69 68.7468 97.565C68.6968 97.435 68.6218 97.32 68.5218 97.22C68.4268 97.12 68.3018 97.03 68.1468 96.95C67.9968 96.865 67.8218 96.7925 67.6218 96.7325L64.8318 95.9075C64.5918 95.8375 64.3318 95.745 64.0518 95.63C63.7768 95.51 63.5143 95.3475 63.2643 95.1425C63.0193 94.9325 62.8168 94.6675 62.6568 94.3475C62.5018 94.0225 62.4243 93.6225 62.4243 93.1475C62.4243 92.4525 62.5993 91.87 62.9493 91.4C63.3043 90.925 63.7793 90.57 64.3743 90.335C64.9743 90.1 65.6393 89.985 66.3693 89.99C67.1093 89.995 67.7693 90.1225 68.3493 90.3725C68.9293 90.6175 69.4143 90.975 69.8043 91.445C70.1943 91.915 70.4693 92.4825 70.6293 93.1475L68.6868 93.485C68.6068 93.105 68.4518 92.7825 68.2218 92.5175C67.9968 92.2475 67.7193 92.0425 67.3893 91.9025C67.0643 91.7625 66.7168 91.6875 66.3468 91.6775C65.9868 91.6725 65.6518 91.7275 65.3418 91.8425C65.0368 91.9525 64.7893 92.1125 64.5993 92.3225C64.4143 92.5325 64.3218 92.7775 64.3218 93.0575C64.3218 93.3225 64.4018 93.54 64.5618 93.71C64.7218 93.875 64.9193 94.0075 65.1543 94.1075C65.3943 94.2025 65.6368 94.2825 65.8818 94.3475L67.8168 94.8875C68.0818 94.9575 68.3793 95.0525 68.7093 95.1725C69.0393 95.2925 69.3568 95.46 69.6618 95.675C69.9668 95.89 70.2168 96.1725 70.4118 96.5225C70.6118 96.8725 70.7118 97.3175 70.7118 97.8575C70.7118 98.4175 70.5943 98.91 70.3593 99.335C70.1293 99.755 69.8168 100.105 69.4218 100.385C69.0268 100.665 68.5743 100.875 68.0643 101.015C67.5593 101.155 67.0293 101.225 66.4743 101.225ZM74.6002 101.225C74.0152 101.225 73.5202 101.115 73.1152 100.895C72.7102 100.67 72.4027 100.372 72.1927 100.002C71.9877 99.6325 71.8852 99.225 71.8852 98.78C71.8852 98.39 71.9502 98.04 72.0802 97.73C72.2102 97.415 72.4102 97.145 72.6802 96.92C72.9502 96.69 73.3002 96.5025 73.7302 96.3575C74.0552 96.2525 74.4352 96.1575 74.8702 96.0725C75.3102 95.9875 75.7852 95.91 76.2952 95.84C76.8102 95.765 77.3477 95.685 77.9077 95.6L77.2627 95.9675C77.2677 95.4075 77.1427 94.995 76.8877 94.73C76.6327 94.465 76.2027 94.3325 75.5977 94.3325C75.2327 94.3325 74.8802 94.4175 74.5402 94.5875C74.2002 94.7575 73.9627 95.05 73.8277 95.465L72.1777 94.9475C72.3777 94.2625 72.7577 93.7125 73.3177 93.2975C73.8827 92.8825 74.6427 92.675 75.5977 92.675C76.3177 92.675 76.9502 92.7925 77.4952 93.0275C78.0452 93.2625 78.4527 93.6475 78.7177 94.1825C78.8627 94.4675 78.9502 94.76 78.9802 95.06C79.0102 95.355 79.0252 95.6775 79.0252 96.0275V101H77.4427V99.245L77.7052 99.53C77.3402 100.115 76.9127 100.545 76.4227 100.82C75.9377 101.09 75.3302 101.225 74.6002 101.225ZM74.9602 99.785C75.3702 99.785 75.7202 99.7125 76.0102 99.5675C76.3002 99.4225 76.5302 99.245 76.7002 99.035C76.8752 98.825 76.9927 98.6275 77.0527 98.4425C77.1477 98.2125 77.2002 97.95 77.2102 97.655C77.2252 97.355 77.2327 97.1125 77.2327 96.9275L77.7877 97.0925C77.2427 97.1775 76.7752 97.2525 76.3852 97.3175C75.9952 97.3825 75.6602 97.445 75.3802 97.505C75.1002 97.56 74.8527 97.6225 74.6377 97.6925C74.4277 97.7675 74.2502 97.855 74.1052 97.955C73.9602 98.055 73.8477 98.17 73.7677 98.3C73.6927 98.43 73.6552 98.5825 73.6552 98.7575C73.6552 98.9575 73.7052 99.135 73.8052 99.29C73.9052 99.44 74.0502 99.56 74.2402 99.65C74.4352 99.74 74.6752 99.785 74.9602 99.785ZM81.1277 101V89.975H82.9352V101H81.1277ZM88.8643 101.225C88.0443 101.225 87.3243 101.048 86.7043 100.692C86.0843 100.337 85.5993 99.845 85.2493 99.215C84.9043 98.585 84.7318 97.86 84.7318 97.04C84.7318 96.155 84.9018 95.3875 85.2418 94.7375C85.5818 94.0825 86.0543 93.575 86.6593 93.215C87.2643 92.855 87.9643 92.675 88.7593 92.675C89.5993 92.675 90.3118 92.8725 90.8968 93.2675C91.4868 93.6575 91.9243 94.21 92.2093 94.925C92.4943 95.64 92.6018 96.4825 92.5318 97.4525H90.7393V96.7925C90.7343 95.9125 90.5793 95.27 90.2743 94.865C89.9693 94.46 89.4893 94.2575 88.8343 94.2575C88.0943 94.2575 87.5443 94.4875 87.1843 94.9475C86.8243 95.4025 86.6443 96.07 86.6443 96.95C86.6443 97.77 86.8243 98.405 87.1843 98.855C87.5443 99.305 88.0693 99.53 88.7593 99.53C89.2043 99.53 89.5868 99.4325 89.9068 99.2375C90.2318 99.0375 90.4818 98.75 90.6568 98.375L92.4418 98.915C92.1318 99.645 91.6518 100.212 91.0018 100.617C90.3568 101.022 89.6443 101.225 88.8643 101.225ZM86.0743 97.4525V96.0875H91.6468V97.4525H86.0743ZM97.3328 101.225C96.3328 101.225 95.5203 101 94.8953 100.55C94.2703 100.1 93.8903 99.4675 93.7553 98.6525L95.6003 98.3675C95.6953 98.7675 95.9053 99.0825 96.2303 99.3125C96.5553 99.5425 96.9653 99.6575 97.4603 99.6575C97.8953 99.6575 98.2303 99.5725 98.4653 99.4025C98.7053 99.2275 98.8253 98.99 98.8253 98.69C98.8253 98.505 98.7803 98.3575 98.6903 98.2475C98.6053 98.1325 98.4153 98.0225 98.1203 97.9175C97.8253 97.8125 97.3728 97.68 96.7628 97.52C96.0828 97.34 95.5428 97.1475 95.1428 96.9425C94.7428 96.7325 94.4553 96.485 94.2803 96.2C94.1053 95.915 94.0178 95.57 94.0178 95.165C94.0178 94.66 94.1503 94.22 94.4153 93.845C94.6803 93.47 95.0503 93.1825 95.5253 92.9825C96.0003 92.7775 96.5603 92.675 97.2053 92.675C97.8353 92.675 98.3928 92.7725 98.8778 92.9675C99.3678 93.1625 99.7628 93.44 100.063 93.8C100.363 94.16 100.548 94.5825 100.618 95.0675L98.7728 95.3975C98.7278 95.0525 98.5703 94.78 98.3003 94.58C98.0353 94.38 97.6803 94.2675 97.2353 94.2425C96.8103 94.2175 96.4678 94.2825 96.2078 94.4375C95.9478 94.5875 95.8178 94.8 95.8178 95.075C95.8178 95.23 95.8703 95.3625 95.9753 95.4725C96.0803 95.5825 96.2903 95.6925 96.6053 95.8025C96.9253 95.9125 97.4003 96.0475 98.0303 96.2075C98.6753 96.3725 99.1903 96.5625 99.5753 96.7775C99.9653 96.9875 100.245 97.24 100.415 97.535C100.59 97.83 100.678 98.1875 100.678 98.6075C100.678 99.4225 100.38 100.062 99.7853 100.527C99.1953 100.993 98.3778 101.225 97.3328 101.225ZM101.421 101L105.081 95.54L101.526 90.2H103.738L106.198 94.0025L108.636 90.2H110.863L107.308 95.54L110.953 101H108.741L106.198 97.0775L103.648 101H101.421ZM112.45 101V99.1475H114.302V101H112.45Z" fill="white"/>
<path fill-rule="evenodd" clip-rule="evenodd" d="M102.282 19.917C98.3279 24.3214 93.5332 30.0227 88.5721 36.2201C87.7492 37.248 87.0883 38.1293 87.1032 38.1782C87.1411 38.3022 89.1662 41.9135 90.7503 44.683C91.4737 45.9476 92.0388 47.0087 92.0062 47.0411C91.9736 47.0734 90.7521 47.1266 89.292 47.1581C87.3233 47.2009 86.6113 47.1895 86.5373 47.1144C86.4828 47.0585 85.8526 46.0699 85.1371 44.917C84.4216 43.7642 83.7888 42.7511 83.7298 42.6646C83.6348 42.5249 83.4438 42.6987 81.9538 44.2804C81.0359 45.255 79.6586 46.7397 78.8938 47.5808C78.129 48.421 77.38 49.2437 77.2295 49.4079L76.9558 49.7066L77.2198 49.5266C77.5402 49.3083 80.8634 46.5083 82.3164 45.2323C83.1446 44.5057 83.3813 44.3389 83.4429 44.4402C83.4861 44.5109 83.9939 45.4699 84.5721 46.5721C85.1503 47.6742 85.6528 48.6035 85.6898 48.6376C85.7532 48.6969 95.1261 48.9231 95.1833 48.8673C95.215 48.8358 92.4903 43.8804 90.6192 40.5659L89.3457 38.31L92.3917 34.2777C96.6812 28.5983 99.7395 24.3738 102.5 20.3109C103.341 19.0742 104.011 18.062 103.989 18.062C103.967 18.0611 103.199 18.8969 102.282 19.917Z" fill="white"/>
<path fill-rule="evenodd" clip-rule="evenodd" d="M90.1474 27.8228C89.4161 28.4359 88.0176 29.6245 87.0398 30.4647C86.062 31.3049 85.2295 32.0027 85.1908 32.0167C85.152 32.0306 84.6495 31.1372 84.0739 30.0324C83.4984 28.9267 82.9685 27.9468 82.8955 27.8533C82.7696 27.6926 82.5443 27.6804 78.0568 27.5948C75.4684 27.545 73.3421 27.5127 73.3316 27.5232C73.3043 27.5503 76.3617 33.0935 77.8764 35.7651L79.1921 38.0857L76.4409 41.7206C72.059 47.511 68.5712 52.3319 65.7875 56.4472C64.2966 58.6516 64.2781 58.6664 67.4816 55.0498C71.1595 50.8979 74.3833 47.0621 78.7503 41.6437C80.125 39.9389 81.2999 38.4839 81.3624 38.4105C81.4838 38.2691 80.9505 37.2717 77.8174 31.7896C77.0676 30.4769 76.477 29.38 76.5052 29.352C76.5773 29.2804 81.9652 29.1581 81.9934 29.228C82.0066 29.2595 82.664 30.3171 83.4552 31.5791L84.8933 33.8734L86.5998 32.0595C88.9725 29.5381 91.567 26.7092 91.5063 26.7092C91.4904 26.7075 90.8779 27.2097 90.1474 27.8228Z" fill="white"/>
<path fill-rule="evenodd" clip-rule="evenodd" d="M46.1078 35.834V44.2619H47.5599H49.0121V35.834V27.406H47.5599H46.1078V35.834Z" fill="white"/>
<path fill-rule="evenodd" clip-rule="evenodd" d="M27.4139 31.9528C26.3578 32.1283 25.2717 32.7397 24.7085 33.4742C24.2429 34.0812 24.0625 34.7056 24.0625 35.7047C24.0625 36.4663 24.0863 36.5851 24.3485 37.1126C24.8713 38.1667 25.5516 38.6139 27.5828 39.241C28.8528 39.6331 29.3756 39.8829 29.6836 40.2462C29.945 40.5536 29.9723 40.8122 29.7901 41.2454C29.5754 41.7563 29.255 41.8593 27.8909 41.8593C26.5637 41.8593 25.9811 41.7205 24.9206 41.1528L24.3705 40.8585V42.172V43.4855L24.9567 43.7493C25.879 44.1641 26.7635 44.3598 27.9349 44.4087C29.7039 44.482 30.9439 44.0969 31.8821 43.1842C32.675 42.4122 32.9716 41.4864 32.8167 40.2646C32.7032 39.3711 32.4339 38.7449 31.9217 38.1886C31.2634 37.4733 30.7239 37.1999 28.9989 36.7056C27.4852 36.2716 27.0117 35.9659 27.0117 35.4226C27.0117 35.048 27.1481 34.8532 27.5644 34.6322C27.8988 34.455 28.0581 34.4357 29.1679 34.4357C30.3639 34.4357 30.8436 34.517 31.8055 34.8838C31.9226 34.9283 31.9402 34.7833 31.9402 33.7982V32.6619L31.3021 32.3991C30.1245 31.9152 28.6557 31.7467 27.4139 31.9528Z" fill="white"/>
<path fill-rule="evenodd" clip-rule="evenodd" d="M44.0396 35.5852C43.6682 33.7581 42.5276 32.5598 40.6953 32.0734C40.0792 31.9092 37.9714 31.8332 37.1749 31.9459C36.551 32.0341 35.6014 32.2472 35.2608 32.3755L35.0187 32.4673V34.8498L35.2168 34.793C36.4234 34.4445 36.8361 34.3738 37.9318 34.3301C38.7362 34.2978 39.2784 34.317 39.5811 34.3895C40.477 34.6026 41.0447 35.2402 41.1538 36.1581L41.2066 36.6L40.8194 36.5485C38.6702 36.262 36.499 36.5441 35.3708 37.2576C33.3853 38.5127 33.1573 41.3834 34.9061 43.1153C35.4526 43.6559 36.044 43.9782 36.9549 44.2297C37.7567 44.4507 40.1848 44.4568 40.9848 44.2393C42.3455 43.8699 43.2106 43.186 43.7897 42.0236L44.1276 41.3459L44.1558 38.821C44.1787 36.745 44.1584 36.1694 44.0396 35.5852ZM41.2445 39.5555C41.1829 40.8681 41.0218 41.2149 40.2993 41.5825C39.8416 41.8157 39.7642 41.8271 38.8911 41.7965C37.7901 41.7581 37.3545 41.5799 36.9769 41.0131C36.7683 40.7013 36.7349 40.5616 36.7349 40.0175C36.7349 39.5127 36.7719 39.3345 36.9188 39.138C37.1468 38.8314 37.7039 38.5162 38.2038 38.4096C38.6227 38.3214 41.0297 38.3625 41.1908 38.4611C41.2621 38.5048 41.2779 38.8253 41.2445 39.5555Z" fill="white"/>
<path fill-rule="evenodd" clip-rule="evenodd" d="M61.0913 41.0725C59.5335 41.6864 58.1685 41.9467 56.8131 41.8864C55.3927 41.8236 54.5513 41.365 54.2151 40.469C54.1245 40.2253 54.0215 39.8594 53.9872 39.655L53.9247 39.2838H61.9696L61.9282 37.7773C61.8825 36.0952 61.7636 35.5703 61.174 34.4367C60.785 33.6891 59.8882 32.7633 59.2343 32.434C58.0787 31.8533 56.1232 31.6803 54.7502 32.0367C52.4391 32.6375 51.2527 34.4157 50.9914 37.6681C50.928 38.455 51.0521 39.8506 51.2554 40.6375C51.4675 41.4629 52.0272 42.5065 52.5051 42.9685C53.4838 43.9153 54.5619 44.338 56.1848 44.4113C57.8305 44.4864 59.4957 44.1904 60.7533 43.6L61.2453 43.3685V42.1904C61.2453 41.103 61.233 41.0166 61.0913 41.0725ZM54.0083 36.8384C54.0646 35.924 54.4871 35.0436 55.0538 34.6585C55.713 34.2096 56.6908 34.1336 57.3632 34.4777C57.9898 34.7974 58.5012 35.5249 58.7493 36.4454C58.8145 36.6856 58.8673 36.9712 58.8682 37.0803L58.869 37.2777L56.4268 37.255L53.9845 37.2314L54.0083 36.8384Z" fill="white"/>
<path fill-rule="evenodd" clip-rule="evenodd" d="M66.4818 32.0052C65.6695 32.1773 64.8528 32.5834 64.3291 33.0768C62.9474 34.379 62.9377 36.8681 64.3089 38.0681C64.8616 38.5511 65.1511 38.6882 66.686 39.1886C68.2217 39.6899 68.6222 39.8786 68.9346 40.2471C69.1951 40.5546 69.2224 40.8131 69.0411 41.2454C68.8475 41.7048 68.4858 41.8463 67.3962 41.8864C66.2477 41.9292 65.3148 41.7257 64.3036 41.2105L63.6215 40.8629V42.1746V43.4864L64.2077 43.7502C65.1141 44.1581 66.0118 44.3563 67.1859 44.4078C68.9478 44.4847 70.238 44.0838 71.1507 43.1755C71.9533 42.3773 72.234 41.462 72.0651 40.2C71.9463 39.3109 71.6673 38.7048 71.1084 38.1179C70.5654 37.5476 70.0893 37.2856 68.946 36.9257C66.6209 36.193 66.2618 35.9939 66.2618 35.441C66.2618 35.048 66.3929 34.8559 66.8145 34.6323C67.1489 34.455 67.3082 34.4358 68.418 34.4358C69.614 34.4358 70.0928 34.517 71.0556 34.8838C71.1727 34.9284 71.1903 34.7834 71.1903 33.7982V32.662L70.5522 32.3991C69.2822 31.8768 67.7799 31.731 66.4818 32.0052Z" fill="white"/>
<path d="M265.219 87.3925L257.31 83.3H254.531H252.265H249.486L241.577 87.3925C243.283 94.4084 242.2 105.758 242.286 106.298C242.372 106.837 243.222 107.737 243.222 107.737C244.851 108.386 248.719 108.581 253.398 108.581C257.089 108.581 262.182 108.386 263.811 107.737C263.811 107.737 264.425 106.837 264.511 106.298C264.596 105.759 263.513 94.4092 265.219 87.3925Z" fill="#71ACE8"/>
<path d="M260.065 98.3042H259.734C258.239 98.3042 257.027 97.0959 257.027 95.6057V92.1272H262.772V95.6057C262.772 97.0959 261.56 98.3042 260.065 98.3042Z" fill="#4A85C1"/>
<path d="M261.906 108.158C262.72 108.046 263.384 107.907 263.81 107.738C263.81 107.738 264.424 106.838 264.51 106.299C264.568 105.937 264.101 100.726 264.299 95.2158C263.623 103.951 262.432 107.139 261.906 108.158Z" fill="#579AC9"/>
<path d="M242.309 92.1487C242.885 98.6272 242.216 105.87 242.284 106.299C242.37 106.839 243.22 107.738 243.22 107.738C243.858 107.992 244.84 108.176 246.079 108.307C242.88 107.536 242.309 92.1487 242.309 92.1487Z" fill="#579AC9"/>
<path d="M260.589 85.2554C260.529 85.0153 256.943 83.6775 256.943 83.6775L253.075 84.8935L249.206 83.6775C249.206 83.6775 245.635 85.0834 245.576 85.3235C245.516 85.5637 246.86 90.1543 247.191 90.3638C247.521 90.5733 252.274 87.0206 252.274 87.0206H253.875C253.875 87.0206 258.627 90.5741 258.959 90.3638C259.289 90.1535 260.649 85.4947 260.589 85.2554Z" fill="#4A85C1"/>
<path d="M260.613 85.0655C260.553 84.8254 256.943 83.1206 256.943 83.1206L253.075 84.3366L249.206 83.1206C249.206 83.1206 245.597 84.8262 245.536 85.0655C245.476 85.3056 246.859 89.5965 247.191 89.8069C247.521 90.0163 252.274 86.4637 252.274 86.4637H253.875C253.875 86.4637 258.627 90.0172 258.959 89.8069C259.289 89.5974 260.673 85.3056 260.613 85.0655Z" fill="#95CAFA"/>
<path d="M252.873 12.149C254.565 12.149 255.936 11.4441 255.936 10.5745C255.936 9.70493 254.565 9 252.873 9C251.181 9 249.81 9.70493 249.81 10.5745C249.81 11.4441 251.181 12.149 252.873 12.149Z" fill="#4A85C1"/>
<path d="M280.378 37.7421C278.934 21.8541 267.246 10.5388 252.853 10.5388C238.42 10.5388 226.834 22.6077 225.149 37.8068C229.796 39.0194 253.732 44.5552 280.378 37.7421Z" fill="#71ACE8"/>
<path d="M237.34 30.8914C236.347 15.2895 247.292 11.4687 251.643 10.5686C237.776 11.2209 226.786 23.0351 225.149 37.8068C226.717 38.2164 230.486 39.1181 235.811 39.8709C236.967 37.7591 237.593 34.8553 237.34 30.8914Z" fill="#60A2D8"/>
<path d="M254.469 10.5879C258.885 11.5254 269.66 15.4067 268.674 30.8911C268.423 34.815 269.035 37.7 270.168 39.8067C273.501 39.3018 276.916 38.6265 280.377 37.7417C278.988 22.4524 268.112 11.4003 254.469 10.5879Z" fill="#60A2D8"/>
<path d="M249.81 11.0386C248.682 11.3162 248.05 11.6653 248.05 11.6653C248.05 11.6653 235.431 15.6113 236.785 30.4085C236.871 31.3537 237.079 32.1763 237.393 32.889C237.401 32.2547 237.385 31.5905 237.341 30.8913C236.466 17.1739 244.821 12.5637 249.81 11.0386Z" fill="#4A85C1"/>
<path d="M262.662 14.4482C266.125 17.3154 269.067 22.147 268.707 30.2732C269.013 30.1302 269.178 30.0484 269.178 30.0484C269.178 30.0484 270.99 20.7062 262.662 14.4482Z" fill="#4A85C1"/>
<path d="M225.149 37.8066C229.796 39.0192 253.732 44.5559 280.378 37.7427C280.179 35.5534 279.784 33.4518 279.216 31.4541C280.494 37.4328 275.198 37.2148 275.198 37.2148C275.198 37.2148 237.747 36.6153 231.104 37.8142C224.6 38.9885 226.151 32.579 226.219 32.3116C225.719 34.0837 225.358 35.9213 225.149 37.8066Z" fill="#4A85C1"/>
<path d="M280.466 54.2976C278.173 50.0765 279.96 40.1365 279.96 40.1365C279.96 40.1365 277.001 39.8316 272.47 39.4323C252.449 42.9108 235.034 40.0283 227.846 38.4487C226.384 38.8447 225.631 39.3939 225.836 40.1356C227.644 46.6712 226.798 52.213 227.101 53.0884C235.196 76.3993 282.759 58.5186 280.466 54.2976Z" fill="#854122"/>
<path d="M280.466 54.2975C280.346 54.0778 280.239 53.841 280.141 53.5924L278.928 53.2433C278.928 53.2433 275.662 45.7812 278.453 39.9865C277.151 39.8596 275.07 39.6612 272.47 39.433C254.939 42.479 239.407 40.6481 230.989 39.0847C230.013 39.7259 229.381 40.4497 229.18 41.2587C229.18 41.2587 229.165 48.7803 227.044 50.3787C227.035 51.7982 226.989 52.7647 227.101 53.0891C227.542 54.3579 228.1 55.5041 228.759 56.5379L256.989 60.5784L269.506 61.0195C276.481 58.6122 281.229 55.6999 280.466 54.2975Z" fill="#682A1B"/>
<path d="M225.272 36.8225C225.272 36.8225 224.182 37.1555 224.001 37.3956C223.82 37.6357 223.376 39.045 223.643 39.584C223.911 40.1231 225.012 40.5829 225.505 40.8435C225.792 40.9951 232.694 41.9828 233.235 41.8032C233.776 41.6235 232.151 38.8347 232.151 38.8347C232.151 38.8347 227.98 38.7632 225.148 37.5846L225.272 36.8225Z" fill="#71ACE8"/>
<path d="M233.235 41.8022C233.586 41.6855 233.03 40.478 232.593 39.6393L231.894 38.8261C231.434 38.8082 230.4 38.7511 229.18 38.5825C229.18 38.5825 229.815 40.2984 229.325 40.8425C228.835 41.3866 225.172 40.7003 224.76 40.467C225.043 40.6168 225.318 40.7437 225.505 40.8425C225.793 40.9949 232.694 41.9827 233.235 41.8022Z" fill="#4A85C1"/>
<path d="M280.212 36.2559C280.212 36.2559 281.289 36.5888 281.469 36.8289C281.649 37.0691 282.093 38.4784 281.826 39.0174C281.56 39.5573 280.458 40.0163 279.965 40.2768C279.678 40.4284 272.776 41.4162 272.235 41.2365C271.694 41.0568 273.318 38.268 273.318 38.268C273.318 38.268 277.438 38.2059 280.27 37.0274L280.212 36.2559Z" fill="#71ACE8"/>
<path d="M272.236 41.2369C272.701 41.3918 277.865 40.6834 279.487 40.3853C279.364 40.4041 277.568 40.6587 277.018 39.8489C276.448 39.0101 277.018 37.9065 277.018 37.9065H277.017C275.037 38.242 273.318 38.2693 273.318 38.2693C273.318 38.2693 271.694 41.0563 272.236 41.2369Z" fill="#4A85C1"/>
<path d="M231.074 55.7762C231.074 55.7762 227.871 52.4033 225.48 51.4589C224.645 51.1285 222.277 51.9988 221.735 53.168C221.194 54.3371 221.104 57.8906 221.51 59.9147C221.915 61.9388 224.893 66.0764 226.247 67.0208C227.601 67.9651 232.383 67.4704 232.879 66.526C233.375 65.5808 231.074 55.7762 231.074 55.7762Z" fill="#FAB989"/>
<path d="M223.643 54.3062C223.643 54.3062 226.23 54.1266 227.855 55.9855C229.479 57.8444 231.645 62.4546 231.645 62.4546V63.7455C231.645 63.7455 227.855 64.3655 226.712 61.8619C225.555 59.3286 227.644 57.623 227.644 57.623C227.644 57.623 227.133 55.5052 223.643 54.3062Z" fill="#F39464"/>
<path d="M223.643 54.3063C224.099 54.2407 224.567 54.2612 225.026 54.3259C225.486 54.3957 225.94 54.5209 226.371 54.7099C226.802 54.8973 227.206 55.1527 227.565 55.461C227.747 55.6126 227.908 55.7871 228.065 55.9651C228.22 56.1473 228.352 56.333 228.492 56.5169C229.03 57.2663 229.514 58.0497 229.947 58.8586C230.381 59.6668 230.777 60.4953 231.103 61.3519C230.644 60.5583 230.184 59.7715 229.708 58.9949C229.467 58.6091 229.231 58.2208 228.977 57.8436C228.73 57.4621 228.472 57.0891 228.207 56.723C228.072 56.5425 227.94 56.3534 227.801 56.1857C227.658 56.0179 227.508 55.8561 227.344 55.7088C227.021 55.4074 226.648 55.163 226.253 54.956C225.855 54.7559 225.431 54.6001 224.992 54.4928C224.555 54.3855 224.103 54.3182 223.643 54.3063Z" fill="#DC644A"/>
<path d="M227.645 57.623C227.381 57.9441 227.155 58.2898 226.973 58.6543C226.789 59.017 226.65 59.3994 226.571 59.7902C226.498 60.1819 226.475 60.5813 226.539 60.9696C226.567 61.1637 226.613 61.3553 226.676 61.5418L226.725 61.6815L226.783 61.8135C226.792 61.8356 226.801 61.8577 226.812 61.879L226.847 61.9421C226.871 61.9838 226.892 62.0272 226.918 62.0672C227.018 62.2307 227.139 62.3823 227.275 62.5203C227.415 62.6548 227.568 62.7774 227.732 62.8864C227.897 62.9937 228.07 63.0925 228.253 63.1742C228.436 63.2543 228.623 63.3309 228.816 63.3931C229.201 63.5183 229.601 63.6094 230.006 63.6749C230.412 63.7422 230.824 63.7822 231.24 63.8027C230.826 63.8614 230.407 63.8665 229.988 63.847C229.569 63.8214 229.149 63.7652 228.738 63.6571C228.325 63.554 227.924 63.3914 227.551 63.1674C227.366 63.0533 227.194 62.9162 227.033 62.7655C226.877 62.6105 226.735 62.4385 226.616 62.2503C226.587 62.2026 226.563 62.1532 226.536 62.1047L226.496 62.0315C226.484 62.0068 226.474 61.9804 226.463 61.9548L226.399 61.8016L226.348 61.6474C226.283 61.4405 226.23 61.2285 226.208 61.0122C226.156 60.5804 226.191 60.1411 226.303 59.7272C226.412 59.3117 226.596 58.9225 226.823 58.5674C227.054 58.2166 227.323 57.8904 227.645 57.623Z" fill="#DC644A"/>
<path d="M225.253 52.2668C226.064 52.2668 230.413 55.1152 230.416 55.1177C229.355 54.0874 227.205 52.1391 225.478 51.457C224.643 51.1266 222.275 51.9968 221.733 53.166C221.192 54.3352 221.102 57.8887 221.508 59.9128C221.669 60.7166 222.236 61.8543 222.946 62.9919C222.89 62.6683 222.791 62.3175 222.635 61.9369C221.372 58.8339 221.914 54.5608 222.455 53.6923C222.997 52.8245 224.441 52.2668 225.253 52.2668Z" fill="#FFD3B6"/>
<path d="M275.23 55.7762C275.23 55.7762 278.433 52.4033 280.824 51.4589C281.66 51.1285 284.027 51.9988 284.569 53.168C285.111 54.3371 285.2 57.8906 284.795 59.9147C284.389 61.9388 281.411 66.0764 280.057 67.0208C278.703 67.9651 273.921 67.4704 273.425 66.526C272.929 65.5808 275.23 55.7762 275.23 55.7762Z" fill="#FAB989"/>
<path d="M282.659 54.3062C282.659 54.3062 280.072 54.1266 278.448 55.9855C276.823 57.8444 274.657 62.4546 274.657 62.4546V63.7455C274.657 63.7455 278.448 64.3655 279.591 61.8619C280.748 59.3286 278.659 57.623 278.659 57.623C278.659 57.623 279.17 55.5052 282.659 54.3062Z" fill="#F39464"/>
<path d="M282.659 54.3061C282.2 54.318 281.748 54.3852 281.309 54.4942C280.87 54.6007 280.447 54.7574 280.048 54.9575C279.654 55.1636 279.281 55.4088 278.958 55.7102C278.794 55.8576 278.642 56.0194 278.501 56.1871C278.361 56.3549 278.23 56.5431 278.095 56.7244C277.828 57.0906 277.57 57.4636 277.324 57.8451C277.071 58.2214 276.835 58.6106 276.593 58.9963C276.117 59.7729 275.657 60.5598 275.198 61.3534C275.525 60.4968 275.92 59.6682 276.354 58.8601C276.788 58.0511 277.271 57.2677 277.81 56.5184C277.951 56.3344 278.082 56.1488 278.237 55.9666C278.393 55.7886 278.554 55.614 278.736 55.4624C279.096 55.1542 279.5 54.8987 279.931 54.7114C280.361 54.5223 280.816 54.3963 281.275 54.3273C281.736 54.2609 282.203 54.2396 282.659 54.3061Z" fill="#DC644A"/>
<path d="M278.659 57.6228C278.979 57.8902 279.249 58.2163 279.48 58.5689C279.707 58.924 279.891 59.3131 280.001 59.7287C280.113 60.1425 280.146 60.5828 280.095 61.0136C280.073 61.2299 280.02 61.442 279.955 61.6489L279.904 61.803L279.84 61.9563C279.829 61.9818 279.819 62.0074 279.807 62.0329L279.767 62.1062C279.741 62.1547 279.716 62.2049 279.687 62.2518C279.568 62.44 279.427 62.612 279.27 62.767C279.11 62.9168 278.937 63.0548 278.752 63.1689C278.379 63.3929 277.977 63.5555 277.565 63.6585C277.154 63.7667 276.734 63.8229 276.316 63.8484C275.896 63.868 275.477 63.8629 275.063 63.8041C275.479 63.7846 275.891 63.7437 276.297 63.6764C276.702 63.6108 277.102 63.5197 277.487 63.3946C277.681 63.3324 277.867 63.2558 278.05 63.1757C278.233 63.094 278.407 62.9952 278.572 62.8879C278.736 62.7789 278.888 62.6563 279.029 62.5217C279.164 62.3829 279.285 62.2322 279.386 62.0687C279.411 62.0278 279.433 61.9853 279.456 61.9435L279.491 61.8805C279.502 61.8592 279.511 61.8362 279.521 61.8149L279.579 61.683L279.627 61.5433C279.69 61.3568 279.736 61.1652 279.764 60.9711C279.828 60.5828 279.805 60.1834 279.732 59.7917C279.653 59.4008 279.515 59.0185 279.33 58.6557C279.148 58.2904 278.923 57.9438 278.659 57.6228Z" fill="#DC644A"/>
<path d="M281.05 52.2668C280.239 52.2668 275.89 55.1152 275.887 55.1177C276.949 54.0874 279.099 52.1391 280.825 51.457C281.66 51.1266 284.028 51.9968 284.57 53.166C285.111 54.3352 285.201 57.8887 284.795 59.9128C284.634 60.7166 284.067 61.8543 283.357 62.9919C283.413 62.6683 283.512 62.3175 283.668 61.9369C284.931 58.8339 284.39 54.5608 283.848 53.6923C283.306 52.8245 281.862 52.2668 281.05 52.2668Z" fill="#FFD3B6"/>
<path d="M253.538 86.0284H252.636C250.592 86.0284 248.936 84.3773 248.936 82.3404V80.811H257.237V82.3404C257.237 84.3773 255.581 86.0284 253.538 86.0284Z" fill="#FAB989"/>
<path d="M248.936 82.3404C248.936 82.7917 249.021 83.2217 249.17 83.6211C250.398 83.7318 253.92 83.851 257.237 82.1122V80.811H248.936V82.3404Z" fill="#DC644A"/>
<path d="M276.774 46.7495C275.511 33.2271 253.944 32.7468 253.944 32.7468H252.214C252.214 32.7468 230.647 33.2262 229.384 46.7495C229.384 46.7495 227.114 68.9832 237.685 76.464C244.994 81.6362 249.439 82.4988 253.078 82.4988C256.717 82.4988 261.146 82.0415 268.471 76.464C278.776 68.6196 276.774 46.7495 276.774 46.7495Z" fill="#FAB989"/>
<path d="M253.017 65.0626C255.303 65.0626 257.155 64.1576 257.155 63.0411C257.155 61.9246 255.303 61.0195 253.017 61.0195C250.732 61.0195 248.88 61.9246 248.88 63.0411C248.88 64.1576 250.732 65.0626 253.017 65.0626Z" fill="#FFCAA6"/>
<path d="M243.32 68.6427C243.32 68.6427 253.057 71.1572 263.043 68.4885L263.229 70.8396C263.229 70.8396 261.328 77.2134 253.206 77.3939C245.837 77.5574 242.523 70.2069 242.523 70.2069L243.32 68.6427Z" fill="#F39464"/>
<path d="M268.473 75.271C261.148 80.6961 256.719 81.1406 253.08 81.1406C249.441 81.1406 244.995 80.3018 237.687 75.271C230.386 70.2452 229.21 58.3756 229.181 51.5122C229.155 58.4709 230.2 71.1657 237.687 76.464C244.995 81.6362 249.441 82.4988 253.08 82.4988C256.719 82.4988 261.148 82.0415 268.473 76.464C275.992 70.7399 276.957 57.5479 276.93 50.8352C276.906 57.4985 275.806 69.8398 268.473 75.271Z" fill="#FFD3B6"/>
<path d="M249.057 62.4539C249.057 62.4539 250.111 64.5299 253.056 64.5035C255.969 64.4771 256.99 62.4539 256.99 62.4539C256.99 62.4539 258.434 64.2532 256.99 65.7817C256.99 65.7817 256.546 66.13 256.117 65.6301C255.689 65.1302 255.08 65.9 255.08 65.9C255.08 65.9 253.418 67.2591 251.154 65.9C251.154 65.9 250.552 65.344 250.301 65.3269C250.049 65.3099 249.838 65.8438 249.432 65.889C249.025 65.9341 247.793 64.77 249.057 62.4539Z" fill="#F39464"/>
<path d="M249.056 62.4536C249.056 62.4536 247.522 64.1627 249.056 65.7814C249.056 65.7823 248.244 64.3202 249.056 62.4536Z" fill="#DC644A"/>
<path d="M251.805 66.1926C251.636 66.2181 251.518 66.1287 251.055 66.0069C250.31 65.8119 250.126 65.628 250.3 65.3265C250.475 65.0251 250.953 64.9748 251.368 65.2141C251.784 65.4534 251.989 66.1645 251.805 66.1926Z" fill="#DC644A"/>
<path d="M256.99 62.4536C256.99 62.4536 258.525 64.1627 256.99 65.7814C256.99 65.7823 257.802 64.3202 256.99 62.4536Z" fill="#DC644A"/>
<path d="M254.242 66.1926C254.41 66.2181 254.528 66.1287 254.992 66.0069C255.736 65.8119 255.92 65.628 255.746 65.3265C255.572 65.0251 255.093 64.9748 254.678 65.2141C254.263 65.4534 254.058 66.1645 254.242 66.1926Z" fill="#DC644A"/>
<path d="M264.299 67.0997C265.04 67.5348 264.065 68.067 263.872 68.165C254.588 72.1962 245.374 69.4423 242.216 68.2535C241.895 68.1224 241.232 67.7852 241.687 67.379C241.687 67.379 240.214 67.4386 240.439 68.9228C240.439 68.9228 240.944 67.8312 241.781 69.0855L241.782 69.0863C243.25 71.4936 247.021 76.3857 253.387 76.2836C260.065 76.1771 263.407 70.9146 264.511 68.7244C265.189 67.5025 265.771 68.4341 265.771 68.4341C265.765 66.9336 264.299 67.0997 264.299 67.0997Z" fill="#B84725"/>
<path d="M241.575 68.0535C241.575 68.0535 252.982 73.3781 264.216 68.0535H264.432C264.432 68.0535 261.451 75.9762 253.371 76.1039C245.291 76.2325 241.575 68.0535 241.575 68.0535Z" fill="#841B03"/>
<path d="M242.284 68.3504C242.897 69.0853 245.465 72.1568 245.902 72.5323C246.231 72.8159 246.498 72.9291 246.642 72.9751C246.509 72.9496 246.299 72.9394 246.195 73.0952C246.125 73.1999 246.061 73.383 246.012 73.5542C247.858 75.0009 250.299 76.1539 253.371 76.1054C256.333 76.0585 258.608 74.9643 260.304 73.5976C260.254 73.4154 260.185 73.2102 260.109 73.096C260.005 72.9402 259.795 72.9513 259.663 72.976C259.807 72.9308 260.073 72.8167 260.402 72.5332C260.835 72.1602 263.465 68.9159 264.128 68.095C254.58 72.5715 244.931 69.3893 242.284 68.3504Z" fill="white"/>
<path opacity="0.8" d="M253.728 76.958C253.72 77.1232 253.316 77.2373 252.827 77.2135C252.338 77.1888 251.947 77.0355 251.956 76.8695C251.964 76.7043 252.367 76.5901 252.857 76.614C253.347 76.6387 253.737 76.7928 253.728 76.958Z" fill="#FFD3B6"/>
<path opacity="0.8" d="M254.323 76.9722C254.326 77.0131 254.241 77.0539 254.132 77.0633C254.024 77.0727 253.932 77.0463 253.929 77.0054C253.926 76.9645 254.011 76.9237 254.119 76.9143C254.229 76.9049 254.319 76.9305 254.323 76.9722Z" fill="#FFD3B6"/>
<path d="M234.712 48.399C234.712 48.399 240.036 43.9463 246.984 45.9252L247.706 43.242C247.706 43.242 247.345 43.1824 247.225 43.4217C247.105 43.6618 246.935 44.705 246.844 44.705C246.753 44.705 246.923 43.2718 246.834 43.0624C246.743 42.8529 243.576 41.3525 239.467 43.231C235.705 44.9511 234.712 48.399 234.712 48.399Z" fill="#682A1B"/>
<path d="M270.449 48.399C270.449 48.399 265.125 43.9463 258.177 45.9252L257.455 43.242C257.455 43.242 257.816 43.1824 257.936 43.4217C258.056 43.6618 258.226 44.705 258.317 44.705C258.408 44.705 258.238 43.2718 258.327 43.0624C258.418 42.8529 261.585 41.3525 265.694 43.231C269.456 44.9511 270.449 48.399 270.449 48.399Z" fill="#682A1B"/>
<path opacity="0.35" d="M270.449 49.0284C271.322 49.1016 274.578 44.6447 275.775 42.9612C275.401 42.1454 274.94 41.3943 274.407 40.7037L270.645 37.3325C263.867 32.9701 253.945 32.7478 253.945 32.7478H252.215C252.215 32.7478 234.531 33.1412 230.252 43.2566C230.257 43.2635 234.736 49.0275 235.849 49.0284C236.81 49.0292 243.129 38.5911 255.807 39.8709C265.944 40.8945 269.372 48.939 270.449 49.0284Z" fill="#F39464"/>
<path d="M236.574 59.193C236.574 59.193 242.399 62.399 248.375 59.0567C248.375 59.0567 248.936 51.3861 242.687 50.6921C242.687 50.6921 243.485 49.9052 245.658 50.2569C245.658 50.2569 243.08 48.96 239.989 50.3991C237.867 51.3878 235.9 54.3571 236.574 59.193Z" fill="#DC644A"/>
<path d="M236.815 58.6463C237.314 58.9631 242.304 61.3465 248.019 58.8558C248.019 58.8558 247.674 51.4798 242.286 51.6347C236.581 51.7982 236.799 58.3253 236.815 58.6463Z" fill="#773420"/>
<path d="M237.919 58.7646C239.4 59.3998 243.557 60.7997 248.019 58.8557C248.019 58.8557 247.527 52.0953 242.476 52.2401C238.086 52.3661 237.437 56.2909 237.355 57.8585C237.334 58.2494 237.559 58.6104 237.919 58.7646Z" fill="white"/>
<path d="M243.77 60.402C245.944 60.402 247.706 58.6452 247.706 56.4781C247.706 54.311 245.944 52.5542 243.77 52.5542C241.596 52.5542 239.833 54.311 239.833 56.4781C239.833 58.6452 241.596 60.402 243.77 60.402Z" fill="#3B3A4A"/>
<path opacity="0.7" d="M243.77 60.017C245.731 60.017 247.32 58.4325 247.32 56.478C247.32 54.5234 245.731 52.939 243.77 52.939C241.809 52.939 240.22 54.5234 240.22 56.478C240.22 58.4325 241.809 60.017 243.77 60.017Z" fill="#838498"/>
<path d="M243.947 58.6444C245.147 58.6444 246.12 57.6745 246.12 56.4781C246.12 55.2817 245.147 54.3118 243.947 54.3118C242.747 54.3118 241.774 55.2817 241.774 56.4781C241.774 57.6745 242.747 58.6444 243.947 58.6444Z" fill="#1C1C1C"/>
<path d="M242.5 56.4658C243 55.968 243 55.1609 242.5 54.6631C242.001 54.1653 241.191 54.1653 240.692 54.6631C240.192 55.1609 240.192 55.968 240.692 56.4658C241.191 56.9637 242.001 56.9637 242.5 56.4658Z" fill="white"/>
<path d="M244.015 56.478C244.015 56.6134 243.905 56.7224 243.77 56.7224C243.634 56.7224 243.525 56.6126 243.525 56.478C243.525 56.3426 243.635 56.2336 243.77 56.2336C243.906 56.2336 244.015 56.3426 244.015 56.478Z" fill="white"/>
<path d="M242.341 53.1088C246.007 53.0041 247.457 56.5337 247.977 58.4795C247.785 57.0599 246.805 52.1167 242.477 52.2411C238.455 52.356 237.574 55.6592 237.39 57.4176C237.768 55.6174 238.915 53.2067 242.341 53.1088Z" fill="#BCBCBC"/>
<path d="M269.215 59.193C269.215 59.193 263.39 62.399 257.414 59.0567C257.414 59.0567 256.853 51.3861 263.103 50.6921C263.103 50.6921 262.304 49.9052 260.131 50.2569C260.131 50.2569 262.71 48.96 265.8 50.3991C267.922 51.3878 269.889 54.3571 269.215 59.193Z" fill="#DC644A"/>
<path d="M268.974 58.6463C268.475 58.9631 263.485 61.3465 257.77 58.8558C257.77 58.8558 258.115 51.4798 263.503 51.6347C269.208 51.7982 268.99 58.3253 268.974 58.6463Z" fill="#773420"/>
<path d="M267.87 58.7646C266.389 59.3998 262.232 60.7997 257.77 58.8557C257.77 58.8557 258.262 52.0953 263.313 52.2401C267.703 52.3661 268.352 56.2909 268.434 57.8585C268.455 58.2494 268.23 58.6104 267.87 58.7646Z" fill="white"/>
<path d="M262.019 60.4029C264.194 60.4029 265.956 58.6458 265.956 56.4782C265.956 54.3106 264.194 52.5535 262.019 52.5535C259.845 52.5535 258.082 54.3106 258.082 56.4782C258.082 58.6458 259.845 60.4029 262.019 60.4029Z" fill="#3B3A4A"/>
<path opacity="0.7" d="M262.019 60.0172C263.98 60.0172 265.569 58.4327 265.569 56.4782C265.569 54.5237 263.98 52.9392 262.019 52.9392C260.058 52.9392 258.469 54.5237 258.469 56.4782C258.469 58.4327 260.058 60.0172 262.019 60.0172Z" fill="#838498"/>
<path d="M261.842 58.6444C263.043 58.6444 264.015 57.6745 264.015 56.4781C264.015 55.2817 263.043 54.3118 261.842 54.3118C260.642 54.3118 259.669 55.2817 259.669 56.4781C259.669 57.6745 260.642 58.6444 261.842 58.6444Z" fill="#1C1C1C"/>
<path d="M261.09 55.8619C261.252 55.1767 260.827 54.4901 260.139 54.3283C259.452 54.1666 258.763 54.5908 258.601 55.276C258.439 55.9612 258.864 56.6478 259.552 56.8095C260.239 56.9713 260.928 56.547 261.09 55.8619Z" fill="white"/>
<path d="M262.264 56.4783C262.264 56.6137 262.154 56.7227 262.019 56.7227C261.883 56.7227 261.774 56.6128 261.774 56.4783C261.774 56.3429 261.884 56.2339 262.019 56.2339C262.154 56.2339 262.264 56.3429 262.264 56.4783Z" fill="white"/>
<path d="M263.448 53.1088C259.782 53.0041 258.332 56.5337 257.812 58.4795C258.004 57.0599 258.984 52.1167 263.312 52.2411C267.334 52.356 268.215 55.6592 268.399 57.4176C268.021 55.6174 266.874 53.2067 263.448 53.1088Z" fill="#BCBCBC"/>
<path d="M247.492 72.9421C247.492 72.9421 253.087 75.2949 258.742 72.9421C258.742 72.9421 253.568 74.1854 247.492 72.9421Z" fill="#BCBCBC"/>
<path d="M270.896 63.7682C272.063 63.4685 272.862 62.66 272.681 61.9624C272.501 61.2647 271.409 60.9421 270.243 61.2418C269.077 61.5415 268.278 62.35 268.458 63.0476C268.639 63.7453 269.73 64.0679 270.896 63.7682Z" fill="#F78249"/>
<path d="M237.806 63.0506C237.987 62.3529 237.188 61.5444 236.021 61.2447C234.855 60.945 233.763 61.2677 233.583 61.9653C233.403 62.663 234.202 63.4715 235.368 63.7711C236.534 64.0708 237.626 63.7482 237.806 63.0506Z" fill="#F78249"/>
<path d="M229.181 38.4496C229.181 38.4496 235.114 48.0728 235.543 47.8055C235.972 47.5381 240.416 38.1745 253.569 38.0511C265.36 37.9404 270.185 47.2894 270.449 47.1097C270.713 46.9301 276.368 37.9957 276.368 37.9957C276.368 37.9957 270.573 24.022 252.774 24.022C235.1 24.022 229.181 38.4496 229.181 38.4496Z" fill="#95CAFA"/>
<path opacity="0.32" d="M245.082 39.6638C247.39 38.7245 250.192 38.0825 253.568 38.051C253.783 38.0493 253.995 38.051 254.205 38.0552C253.512 34.4532 252.593 28.8714 252.454 24.0261C247.576 24.0747 243.605 25.2251 240.415 26.8592C240.415 26.8592 241.477 33.5114 245.082 39.6638Z" fill="white"/>
<path opacity="0.32" d="M258.471 38.5909C258.942 34.9071 259.466 29.8149 259.575 24.7704C258.432 24.5056 257.22 24.3029 255.937 24.176C256.12 27.9475 256.331 33.9227 256.107 38.1796C256.934 38.2715 257.722 38.4112 258.471 38.5909Z" fill="white"/>
<path d="M262.187 15.3491C256.215 14.1476 250.422 14.1476 244.451 15.3491C243.486 15.5663 242.857 16.5881 243.04 17.5836C243.352 19.2781 243.508 20.1246 243.819 21.8191C244.002 22.8146 244.823 23.4345 245.657 23.2472C250.825 22.2338 255.816 22.2338 260.981 23.2472C261.814 23.4353 262.635 22.8146 262.818 21.8191C263.13 20.1246 263.286 19.2781 263.597 17.5836C263.781 16.589 263.152 15.5671 262.187 15.3491ZM263.148 17.6994C262.85 19.2407 262.7 20.0113 262.402 21.5526C262.227 22.4578 261.443 23.0224 260.645 22.852C255.706 21.9307 250.933 21.9298 245.992 22.852C245.195 23.0232 244.41 22.4586 244.234 21.5526C243.936 20.0113 243.787 19.2407 243.489 17.6994C243.314 16.7942 243.915 15.8643 244.838 15.6668C250.548 14.5734 256.088 14.5734 261.797 15.6668C262.721 15.8643 263.323 16.7942 263.148 17.6994Z" fill="#95CAFA"/>
<path d="M260.294 22.428C255.592 21.6046 251.049 21.6037 246.344 22.428C245.585 22.5805 244.838 22.0764 244.672 21.2674C244.388 19.8896 244.246 19.2016 243.962 17.8238C243.795 17.0148 244.368 16.1837 245.247 16.0074C250.682 15.0307 255.955 15.0307 261.391 16.0074C262.269 16.1846 262.842 17.0148 262.675 17.8238C262.392 19.2016 262.25 19.8896 261.965 21.2674C261.799 22.0764 261.052 22.5805 260.294 22.428Z" fill="#95CAFA"/>
<path d="M235.543 47.8057C235.786 47.6541 237.328 44.5639 241.027 41.902C235.681 37.4893 234.713 30.8899 234.712 30.8882C230.757 34.6069 229.181 38.4498 229.181 38.4498C229.181 38.4498 235.114 48.0731 235.543 47.8057Z" fill="#71ACE8"/>
<path d="M270.899 46.4907C272.29 44.4376 276.368 37.9949 276.368 37.9949C276.368 37.9949 274.845 34.3273 270.968 30.75C270.415 36.9177 268.248 41.0741 267.093 42.8989C268.786 44.1336 270.039 45.4595 270.899 46.4907Z" fill="#71ACE8"/>
<path d="M255.553 36.9204C241.627 35.8874 236.084 45.8871 235.222 47.568C235.384 47.7468 235.495 47.8345 235.542 47.8056C235.971 47.5382 240.415 38.1747 253.568 38.0512C265.359 37.9405 270.184 47.2895 270.448 47.1099C270.482 47.086 270.608 46.9132 270.801 46.6321C268.574 42.8947 263.19 37.4875 255.553 36.9204Z" fill="white"/>
<path d="M255.738 37.5751C241.813 36.5422 236.084 45.887 235.222 47.5679C235.384 47.7467 235.495 47.8344 235.542 47.8055C235.971 47.5381 240.415 38.1746 253.568 38.0511C265.359 37.9404 270.184 47.2894 270.448 47.1098C270.482 47.0859 270.608 46.9131 270.801 46.6321C268.574 42.8947 263.376 38.1414 255.738 37.5751Z" fill="#C0E4FF"/>
<path d="M224.974 36.9202C224.638 37.0368 224.12 37.2361 224.001 37.3945C223.821 37.6346 223.377 39.0439 223.644 39.5829C223.834 39.967 224.445 40.3093 224.96 40.569C225.945 39.6485 224.241 37.9505 224.212 37.724C224.182 37.4856 224.971 36.9227 224.974 36.9202Z" fill="#95CAFA"/>
<path d="M281.827 39.0177C282.094 38.4778 281.65 37.0685 281.47 36.8292C281.355 36.6768 280.88 36.4869 280.547 36.3694C280.547 36.3694 281.15 36.9161 281.06 37.2754C280.969 37.6356 279.282 39.1309 279.961 40.1374C279.985 40.1741 280.015 40.2064 280.047 40.2362C280.57 39.9688 281.573 39.5294 281.827 39.0177Z" fill="#95CAFA"/>
<path opacity="0.32" d="M261.391 16.0065C255.955 15.0297 250.682 15.0297 245.247 16.0065C244.368 16.1836 243.795 17.0138 243.962 17.8228C244.195 18.9562 244.333 19.6238 244.533 20.592L262.695 17.3851C262.624 16.7345 262.11 16.1512 261.391 16.0065Z" fill="white"/>
<path opacity="0.32" d="M262.187 15.3491C256.215 14.1476 250.422 14.1476 244.451 15.3491C243.486 15.5663 242.857 16.5881 243.04 17.5836C243.279 18.883 243.427 19.6852 243.624 20.753L244.066 20.6747C243.87 19.6571 243.726 18.9188 243.49 17.6994C243.315 16.7942 243.917 15.8643 244.84 15.6668C250.55 14.5734 256.089 14.5734 261.799 15.6668C262.586 15.8354 263.137 16.537 263.175 17.3009L263.63 17.2208C263.622 16.3514 263.034 15.5407 262.187 15.3491Z" fill="white"/>
<path d="M252.132 61.6361C252.152 61.8005 251.889 61.9674 251.544 62.0082C251.199 62.0491 250.903 61.9495 250.884 61.7851C250.864 61.6208 251.127 61.4539 251.472 61.413C251.817 61.3713 252.113 61.4718 252.132 61.6361Z" fill="white"/>
<path d="M260.065 97.9322H259.734C258.239 97.9322 257.027 96.7239 257.027 95.2337V91.7551H262.772V95.2337C262.772 96.7247 261.56 97.9322 260.065 97.9322Z" fill="#95CAFA"/>
<path d="M253.659 86.8083H252.576V91.7558H253.659V86.8083Z" fill="#4A85C1"/>
<path d="M252.774 24.6965C267.824 24.4257 274.933 35.3884 276.35 38.0231C276.361 38.0052 276.368 37.995 276.368 37.995C276.368 37.995 270.573 24.0212 252.774 24.0212C235.1 24.0212 229.181 38.4489 229.181 38.4489C229.181 38.4489 229.216 38.5051 229.28 38.6089C230.523 36.1446 237.777 24.9664 252.774 24.6965Z" fill="#4A85C1"/>
<path d="M264.263 99.6718L270.96 94.5906C270.96 94.5906 266.533 88.1581 266.172 87.7988C265.81 87.4386 265.22 87.3943 265.22 87.3943C264.336 91.0252 264.2 95.8177 264.263 99.6718Z" fill="#71ACE8"/>
<path d="M277.609 107.497C277.609 107.497 279.383 108.25 280.014 108.231C280.99 108.201 282.57 107.42 283.097 106.996C283.624 106.572 286.177 100.457 285.489 100.101C284.801 99.7452 276.165 104.944 277.609 107.497Z" fill="#71ACE8"/>
<path d="M280.06 89.714L276.727 88.246L277.694 86.0643C277.804 85.8165 278.095 85.7041 278.344 85.8131L280.776 86.8835C281.025 86.9933 281.138 87.2829 281.028 87.5315L280.06 89.714Z" fill="#B1A99E"/>
<path d="M275.56 114.903L260.273 108.172C259.703 107.921 259.444 107.256 259.696 106.686L269.548 84.4516C269.8 83.8828 270.468 83.6247 271.039 83.8759L286.326 90.6074C286.897 90.8586 287.156 91.5236 286.904 92.0933L277.051 114.328C276.799 114.897 276.132 115.156 275.56 114.903Z" fill="#4F4F4F"/>
<path d="M275.432 114.021L261.014 107.672C260.476 107.436 260.231 106.808 260.47 106.271L269.762 85.3007C269.999 84.7642 270.629 84.5207 271.168 84.7583L285.586 91.1074C286.124 91.3441 286.369 91.9717 286.13 92.509L276.838 113.479C276.6 114.016 275.97 114.259 275.432 114.021Z" fill="black"/>
<path d="M285.572 92.1438L270.573 85.5383L261.011 107.116L276.009 113.721L285.572 92.1438Z" fill="white"/>
<path d="M282.253 88.4737L276.047 85.7405L274.65 88.8911L280.857 91.6244L282.253 88.4737Z" fill="#B1A99E"/>
<path d="M280.992 93.15L273.277 89.7524C273.184 89.7115 273.141 89.6025 273.183 89.5097L274.516 86.5021C274.557 86.4092 274.666 86.3667 274.759 86.4084L282.474 89.806C282.568 89.8469 282.61 89.9559 282.568 90.0487L281.236 93.0563C281.195 93.1492 281.086 93.1909 280.992 93.15ZM273.596 89.491L280.973 92.7396L282.157 90.0683L274.78 86.8197L273.596 89.491Z" fill="#B1A99E"/>
<path d="M282.078 88.395L276.052 85.7407L274.706 88.7756L282.078 88.395Z" fill="#E0D9D5"/>
<path d="M282.064 95.0998L270.743 90.114L269.118 93.7803L280.439 98.7661L282.064 95.0998Z" fill="#4A85C1"/>
<path d="M280.008 99.7403L272.997 96.6526L272.717 97.2827L279.728 100.37L280.008 99.7403Z" fill="#E0D9D5"/>
<path d="M279.525 100.829L272.514 97.741L272.235 98.3711L279.246 101.459L279.525 100.829Z" fill="#E0D9D5"/>
<path d="M279.042 101.917L272.031 98.8293L271.752 99.4595L278.763 102.547L279.042 101.917Z" fill="#E0D9D5"/>
<path d="M278.561 103.006L271.549 99.918L271.27 100.548L278.281 103.636L278.561 103.006Z" fill="#E0D9D5"/>
<path d="M278.078 104.094L271.067 101.006L270.788 101.636L277.799 104.724L278.078 104.094Z" fill="#E0D9D5"/>
<path d="M272.037 106.876L265.026 103.788L264.747 104.418L271.758 107.506L272.037 106.876Z" fill="#E0D9D5"/>
<path d="M271.567 107.936L268.809 106.721L268.53 107.351L271.288 108.566L271.567 107.936Z" fill="#E0D9D5"/>
<path d="M271.149 108.881L268.391 107.667L268.111 108.297L270.869 109.511L271.149 108.881Z" fill="#E0D9D5"/>
<path d="M277.544 105.297L266.511 100.438L266.206 101.126L277.239 105.985L277.544 105.297Z" fill="#95CAFA"/>
<path d="M273.257 105.052L269.924 103.584L269.67 104.156L273.004 105.624L273.257 105.052Z" fill="#95CAFA"/>
<path d="M276.447 107.613L276.292 107.617C276.241 107.621 276.192 107.629 276.14 107.635C276.039 107.648 275.937 107.665 275.835 107.682C275.736 107.708 275.636 107.732 275.536 107.761C275.14 107.879 274.757 108.051 274.409 108.273C274.057 108.491 273.734 108.752 273.441 109.041L273.228 109.265C273.181 109.319 273.135 109.372 273.089 109.426C273.059 109.319 273.03 109.212 272.997 109.105C272.942 108.932 272.886 108.76 272.822 108.588C272.757 108.416 272.691 108.245 272.612 108.076C272.587 108.261 272.577 108.445 272.566 108.627C272.558 108.81 272.557 108.991 272.557 109.173C272.56 109.535 272.578 109.896 272.607 110.253C272.614 110.336 272.653 110.416 272.721 110.474C272.859 110.59 273.064 110.574 273.181 110.437L273.222 110.389C273.332 110.263 273.46 110.115 273.586 109.982C273.714 109.847 273.846 109.715 273.978 109.584C274.245 109.323 274.527 109.081 274.816 108.846C275.103 108.609 275.41 108.396 275.73 108.192C276.048 107.98 276.392 107.814 276.753 107.618C276.652 107.614 276.55 107.611 276.447 107.613Z" fill="#FF3B3A"/>
<path d="M267.495 96.5825C266.928 96.333 266.672 95.6739 266.922 95.1093L272.046 83.5463C272.296 82.9817 272.958 82.7263 273.524 82.9758C274.09 83.2253 274.347 83.8844 274.096 84.4489L268.973 96.012C268.723 96.5766 268.061 96.832 267.495 96.5825Z" fill="#F4F4F4"/>
<path d="M272.869 87.2173L274.096 84.4489C274.346 83.8844 274.09 83.2253 273.524 82.9758C272.957 82.7263 272.296 82.9817 272.046 83.5463L270.858 86.2278C271.282 86.5489 271.941 86.9406 272.869 87.2173Z" fill="#FF3B3A"/>
<path d="M268.973 96.0122L268.979 95.9969C268.001 96.0182 267.288 95.4902 266.916 95.1274C266.679 95.6878 266.934 96.3358 267.495 96.5819C268.061 96.8322 268.723 96.5768 268.973 96.0122Z" fill="#FF3B3A"/>
<path opacity="0.4" d="M267.739 96.6575C268.24 96.7528 268.758 96.4974 268.973 96.012L274.097 84.449C274.311 83.9644 274.153 83.4101 273.744 83.1052L267.739 96.6575Z" fill="#B1A99E"/>
<path opacity="0.35" d="M267.227 95.8451C267.077 95.7795 267.009 95.605 267.075 95.4559L272.037 84.2591C272.102 84.1101 272.278 84.0428 272.427 84.1084C272.577 84.1739 272.644 84.3485 272.578 84.4975L267.617 95.6944C267.551 95.8434 267.376 95.9107 267.227 95.8451Z" fill="white"/>
<path d="M285.767 97.6248C285.107 97.0883 279.714 95.1375 279.457 95.3384C279.201 95.5385 278.135 96.2121 278.797 97.6836C278.797 97.6836 277.933 97.635 277.588 98.8613C277.373 99.6268 277.518 99.9938 277.658 100.162C277.742 100.263 277.824 100.291 277.824 100.291C277.824 100.291 276.015 100.909 276.734 102.749C276.734 102.749 275.922 103.649 276.337 104.584C276.752 105.519 279.515 107.038 280.476 106.881C281.438 106.723 281.46 106.223 281.645 105.847C281.83 105.472 282.164 105.137 282.164 105.137C282.164 105.137 283.26 104.785 283.443 104.135C283.59 103.611 283.714 103.081 283.88 102.828C283.92 102.767 283.962 102.722 284.007 102.697C284.243 102.568 284.937 102.18 284.964 100.474C284.964 100.474 285.487 100.271 285.639 99.7298C285.793 99.1899 286.428 98.1613 285.767 97.6248Z" fill="#FAB989"/>
<path d="M282.045 104.957C281.754 104.985 277.344 103.309 276.844 102.49C276.345 101.673 277.514 100.494 277.459 100.471C276.972 100.767 276.228 101.456 276.734 102.749C276.734 102.749 275.922 103.649 276.337 104.584C276.376 104.674 276.438 104.768 276.516 104.865C276.076 103.993 276.577 102.958 276.855 102.994C277.134 103.029 281.278 104.822 281.52 104.936C281.763 105.052 282.076 105.594 281.085 106.411C280.095 107.226 276.855 105.212 276.844 105.206C277.798 106.067 279.709 107.007 280.476 106.882C281.437 106.724 281.459 106.224 281.644 105.848C281.83 105.473 282.164 105.138 282.164 105.138C282.164 105.138 283.259 104.785 283.442 104.136C282.918 104.829 282.336 104.928 282.045 104.957Z" fill="#DC644A"/>
<path d="M282.856 102.353C283.248 102.515 283.496 102.616 283.496 102.616L282.856 102.353Z" fill="#DC644A"/>
<path d="M285.414 100.145C285.274 100.35 284.15 99.8532 282.506 99.1984C280.863 98.5427 279.165 97.8214 278.801 97.067C278.437 96.3142 279.635 95.3375 279.639 95.3332C279.545 95.3205 279.48 95.3205 279.458 95.3383C279.202 95.5385 278.136 96.212 278.798 97.6835C278.798 97.6835 277.934 97.6349 277.589 98.8612C277.244 100.087 277.825 100.291 277.825 100.291L282.856 102.352C281.393 101.747 277.904 100.267 277.666 99.8208C277.365 99.2554 277.87 98.4729 278.39 97.9713C278.909 97.4706 282.619 99.5824 283.726 100.025C284.779 100.446 284.895 101.126 284.905 101.192C284.938 100.982 284.961 100.747 284.965 100.475C284.965 100.475 285.211 100.38 285.414 100.145Z" fill="#DC644A"/>
<path d="M241.575 87.3925C241.575 87.3925 241.213 87.315 240.641 87.8199C239.984 88.4007 237.189 91.4858 235.498 93.1948C235.103 92.7537 234.557 92.2488 234.258 92.0027C233.491 91.3734 231.589 90.5678 227.64 95.0308C227.392 95.3109 226.881 96.2595 227.083 97.0617C227.308 97.9549 232.047 101.38 233.626 101.38C235.026 101.38 240.998 97.461 242.525 96.2561C242.459 93.2229 242.211 90.0067 241.575 87.3925Z" fill="#71ACE8"/>
<path d="M227.808 94.8445C227.808 94.8445 227.129 96.3347 227.603 96.7554C228.077 97.176 231.579 96.5016 233.287 94.05C234.495 92.3172 233.162 91.6257 231.939 92.129C230.716 92.6331 227.808 94.8445 227.808 94.8445Z" fill="#579AC9"/>
<path d="M228.742 97.2652C228.742 97.2652 232.46 96.8002 234.415 93.532C234.416 93.532 233.423 97.3682 228.742 97.2652Z" fill="#4A85C1"/>
<path d="M237.205 94.9638C237.495 94.6471 236.062 93.8543 235.941 93.5844C235.821 93.3144 236.879 93.9905 237.056 93.7496C237.31 93.4047 236.784 93.4047 236.122 93.225C235.779 93.1322 236.034 92.7022 236.358 92.3088C236.053 92.6281 235.762 92.9278 235.498 93.1952C235.103 92.7541 234.557 92.2491 234.258 92.003C234.16 91.9239 234.043 91.837 233.902 91.7561C235.115 92.8052 236.724 95.4884 237.205 94.9638Z" fill="#4A85C1"/>
<path d="M234.749 86.4678C235.551 83.9899 236.604 82.5201 236.273 81.8908C235.942 81.2615 234.588 80.4815 233.506 81.6507C232.423 82.8199 231.671 84.769 231.461 85.0986C231.422 85.1607 231.243 85.2425 230.99 85.3608C230.38 84.4301 229.269 82.5082 228.213 79.4912C226.648 75.0232 226.648 74.7234 226.348 74.5736C226.047 74.4237 224.152 74.6366 224.182 76.1046C224.212 77.5659 226.775 83.5122 226.947 84.0103C226.879 84.0282 226.807 84.0486 226.73 84.0742C226.17 83.0268 223.349 77.8017 222.618 77.3956C221.806 76.9434 220.121 77.8426 220.032 78.9522C219.957 79.8684 223.267 83.9541 224.456 85.6018C224.449 85.6086 224.442 85.6155 224.436 85.6223C224.34 85.6921 224.245 85.7679 224.161 85.8462C223.331 84.7827 219.785 80.2959 219.009 80.1971C218.129 80.0847 216.735 81.6643 217.142 82.7577C217.495 83.7089 221.268 86.9311 222.501 87.8916C222.471 87.9402 222.443 87.9861 222.42 88.0287C221.61 87.6515 217.299 85.6504 216.686 85.549C216.009 85.4366 215.287 86.9881 215.671 88.09C216.054 89.1919 222.799 90.7664 222.799 90.7664C222.799 90.7664 224.221 93.78 225.71 94.4766C226.449 94.8223 227.26 94.9023 227.964 94.818C228.126 94.9739 228.741 95.7666 229.182 95.9404C230.086 96.298 232.722 94.5438 232.963 93.8243C233.11 93.3857 232.757 92.6492 232.526 92.0693C233.591 91.1198 234.026 88.7031 234.749 86.4678Z" fill="#FAB989"/>
<path d="M232.96 93.8242C228.742 96.86 230.257 93.3934 230.257 93.3934C225.775 96.4104 222.798 90.7664 222.798 90.7664C222.798 90.7664 224.219 93.7799 225.708 94.4765C226.447 94.8222 227.258 94.9023 227.962 94.818C228.125 94.9738 228.74 95.7666 229.18 95.9403C230.084 96.2979 232.72 94.5438 232.96 93.8242Z" fill="#DC644A"/>
<path d="M228.362 84.0494L227.46 83.8995C227.46 83.8995 224.002 76.7858 224.513 75.1704C224.308 75.402 224.174 75.7069 224.182 76.1054C224.211 77.5666 226.774 83.5129 226.946 84.0111C226.878 84.029 226.806 84.0494 226.73 84.075C226.169 83.0276 223.348 77.8025 222.617 77.3963C222.458 77.3069 225.821 82.8062 225.949 83.8629C226.015 84.4019 224.692 85.0994 224.332 84.9197C223.971 84.74 220.86 80.6841 220.853 80.6756C221.897 82.2833 223.655 84.4948 224.455 85.6035C224.448 85.6103 224.441 85.6171 224.435 85.6239C224.339 85.6937 224.244 85.7695 224.16 85.8479C223.38 84.8499 220.209 80.8357 219.182 80.2652L223.912 86.1808C223.912 86.1808 222.889 87.2606 222.678 88.2799C222.677 88.2773 224.445 84.6438 228.362 84.0494Z" fill="#DC644A"/>
<path d="M235.573 81.2487C234.997 80.9532 234.196 80.9055 233.505 81.6515C232.422 82.8207 231.67 84.7698 231.46 85.0994C231.421 85.1615 231.242 85.2433 230.989 85.3616C230.735 84.9751 230.394 84.4139 230.007 83.6765V83.6773L230.762 85.4144C230.762 85.4144 227.063 86.943 228.743 90.373C228.743 90.373 227.4 86.6287 231.867 85.6844C231.866 85.6835 233.414 80.8153 235.573 81.2487Z" fill="#DC644A"/>
<path d="M242.371 92.9172C240.186 96.5933 235.045 100.158 233.386 100.227C232.277 100.273 230.207 99.4255 228.743 98.7477C230.33 99.9884 232.619 101.381 233.627 101.381C235.027 101.381 240.999 97.4619 242.526 96.257C242.501 95.1551 242.453 94.0293 242.371 92.9172Z" fill="#579AC9"/>
</svg>
