<svg width="216" height="182" viewBox="0 0 216 182" fill="none" xmlns="http://www.w3.org/2000/svg">
<path d="M177.779 87.4411C177.651 86.6228 176.884 86.0626 176.063 86.1904C175.245 86.3181 174.685 87.0873 174.813 87.9056C175.029 89.3038 175.302 93.6828 173.79 95.4447C173.464 95.8256 173.068 96.0541 172.572 96.145L172.709 87.8048C172.729 86.5934 171.753 85.6006 170.539 85.6006C169.32 85.6006 168.34 86.6056 168.369 87.8245L168.763 103.652C168.242 103.569 167.831 103.34 167.492 102.944C165.981 101.183 166.256 96.8036 166.47 95.4054C166.598 94.5871 166.037 93.8179 165.219 93.6901C164.398 93.5624 163.632 94.1226 163.504 94.9409C163.396 95.629 162.528 101.763 165.209 104.893C166.131 105.969 167.379 106.581 168.836 106.675L169.006 113.565H172.282L172.52 99.17C173.945 99.0594 175.164 98.4525 176.071 97.3934C178.754 94.2627 177.887 88.1316 177.779 87.4411Z" fill="#BDBDBD"/>
<path d="M37.9432 100.86C37.8621 100.339 37.3731 99.9802 36.8497 100.064C36.3287 100.145 35.97 100.634 36.0535 101.157C36.1911 102.049 36.3656 104.841 35.4023 105.964C35.1934 106.207 34.9428 106.352 34.6258 106.411L34.7143 101.093C34.7265 100.322 34.1048 99.6877 33.3308 99.6877C32.5543 99.6877 31.9301 100.329 31.9473 101.106L32.1979 111.195C31.8662 111.141 31.6033 110.996 31.3895 110.746C30.4262 109.623 30.6007 106.831 30.7383 105.939C30.8194 105.418 30.4631 104.927 29.9421 104.846C29.4187 104.765 28.9297 105.121 28.8486 105.642C28.7798 106.082 28.2269 109.989 29.9347 111.987C30.522 112.672 31.3182 113.063 32.2471 113.122L32.3552 117.513H34.4439L34.5963 108.338C35.5031 108.266 36.282 107.881 36.8595 107.205C38.5649 105.207 38.012 101.297 37.9432 100.86Z" fill="#BDBDBD"/>
<path d="M108 181.045C167.647 181.045 216 163.928 216 142.812C216 121.696 167.647 104.578 108 104.578C48.3532 104.578 0 121.696 0 142.812C0 163.928 48.3532 181.045 108 181.045Z" fill="url(#paint0_linear_690_6366)"/>
<path d="M125.241 96.4654C125.241 96.4654 125.177 100.144 125.239 100.513C125.3 100.881 123.799 103.039 123.184 102.943C122.57 102.847 121.341 102.643 121.164 102.439C120.987 102.235 121.066 101.751 121.127 101.311C121.191 100.869 121.651 96.8634 121.651 96.6595C121.651 96.4555 124.558 95.9051 125.241 96.4654Z" fill="#FFD3BC"/>
<path d="M122.859 100.303C122.09 100.719 121.66 101.982 121.55 101.996C121.441 102.011 121.238 101.982 121.238 101.856C121.238 101.731 121.269 101.311 121.129 101.311C120.989 101.311 120.832 101.996 120.803 102.997C120.771 103.997 120.417 106.378 120.803 106.68C121.046 106.869 123.27 108.039 123.331 108.194C123.393 108.351 123.284 109.442 123.471 109.614C123.658 109.786 124.095 110.206 124.439 110.224C124.783 110.238 126.764 110.442 127.703 110.224C128.639 110.005 129.826 109.553 129.858 109.427C129.89 109.302 129.624 106.648 129.327 106.321C129.03 105.995 126.892 103.058 126.72 102.793C126.548 102.527 126.422 101.888 126.422 101.512C126.422 101.139 126.083 100.321 125.452 100.124C124.793 99.92 123.437 99.9913 122.859 100.303Z" fill="url(#paint1_linear_690_6366)"/>
<path d="M102.815 98.595C102.815 98.595 102.815 100.738 102.754 101.106C102.692 101.475 104.194 103.633 104.808 103.537C105.422 103.441 106.651 103.237 106.828 103.033C107.005 102.829 106.926 102.345 106.865 101.905C106.801 101.463 106.405 98.9931 106.405 98.7892C106.405 98.5803 103.498 98.0348 102.815 98.595Z" fill="#FFD3BC"/>
<path d="M104.792 51.3127C103.923 54.4728 102.279 65.3023 102.279 70.5659C102.279 75.8295 101.753 89.2491 101.753 91.2862C101.753 93.3258 101.534 98.3854 102.06 98.6484C102.586 98.9113 103.817 99.7026 105.485 99.4396C107.154 99.1767 107.594 98.1225 107.638 97.1568C107.682 96.191 108.078 89.2515 108.474 86.573C108.869 83.8945 110.275 78.7267 111.196 75.4044C112.118 72.0796 114.27 65.3981 114.841 65.4227C115.411 65.4473 118.969 80.0881 119.264 80.9187C119.561 81.7493 120.124 93.5371 120.161 94.5274C120.198 95.5177 120.161 96.4687 120.782 96.8717C121.404 97.2747 123.311 98.265 124.299 98.3363C125.289 98.41 125.948 96.8349 126.13 96.3581C126.314 95.8814 126.638 80.1127 126.52 75.7878C126.402 71.4628 126.746 63.3954 126.545 60.766C126.346 58.1367 125.702 52.4996 125.292 51.3127C124.886 50.1258 104.792 51.3127 104.792 51.3127Z" fill="#192B59"/>
<path d="M98.6518 14.5701C99.4824 13.6486 103.353 9.2844 104.122 9.12959C104.891 8.97478 106.761 8.63812 107.176 8.20809C107.594 7.77805 109.356 2.24167 108.658 1.23416C107.96 0.226655 105.264 0.511706 104.449 2.22693C103.633 3.94215 103.672 4.83908 102.326 6.02352C100.979 7.20795 95.1083 12.0071 94.5628 12.4912C94.0173 12.9753 95.1009 15.3319 95.9586 15.7398C96.8186 16.1477 98.6518 14.5701 98.6518 14.5701Z" fill="url(#paint2_linear_690_6366)"/>
<path d="M109.354 15.8975C107.376 16.3128 104.088 16.6642 103.004 17.0156C101.918 17.367 97.6421 18.866 97.6741 18.2271C97.706 17.5882 99.6522 14.7819 99.3008 14.4944C98.9494 14.2069 96.8435 13.8555 96.4921 13.4082C96.1407 12.961 95.6615 11.9093 95.1848 12.0371C94.7056 12.1648 89.1569 17.3326 89.5353 19.3132C90.4298 23.9797 103.547 27.3782 103.847 29.4129C104.147 31.4476 102.83 50.9588 103.547 51.6764C104.265 52.3939 111.865 55.1486 115.696 55.3869C119.527 55.6253 126.246 54.291 126.612 53.2835C126.978 52.276 124.742 32.89 125.002 32.89C125.263 32.89 125.334 38.9916 128.253 40.5692C130.18 41.6111 132.829 40.5373 133.335 39.9622C133.841 39.3872 131.524 31.2755 130.477 28.5381C129.428 25.8031 128.425 20.1487 126.054 18.1435C123.683 16.1383 120.336 16.4775 119.183 16.0081C118.031 15.5363 114.165 15.8754 113.19 15.7722C112.217 15.669 109.354 15.8975 109.354 15.8975Z" fill="url(#paint3_linear_690_6366)"/>
<path d="M134.064 36.2956C134.064 36.2956 130.654 37.3277 130.388 37.6815C130.123 38.0354 129.649 39.4557 130.388 40.0479C131.128 40.6402 131.939 41.0825 132.816 40.3993C133.693 39.7162 134.492 38.7996 134.998 38.6817C135.504 38.5662 137.021 38.7824 137.657 38.5342C138.294 38.2836 139.5 33.4598 139.014 33.1674C138.525 32.875 134.064 36.2956 134.064 36.2956Z" fill="url(#paint4_linear_690_6366)"/>
<path d="M109.368 15.2467C108.267 15.0182 106.142 12.9393 105.948 10.8284C105.759 8.77165 104.245 2.98953 109.511 0.819701C114.453 -1.21497 119.537 0.878677 120.269 3.38762C120.952 5.73192 115.15 5.83758 113.025 7.36359C110.899 8.8896 110.754 9.90202 110.223 9.6612C109.69 9.42038 109.368 15.2467 109.368 15.2467Z" fill="#3C414B"/>
<path d="M109.28 11.1245C109.212 12.0657 108.973 16.624 109.369 17.2973C109.733 17.9141 110.376 19.7055 112.9 19.6269C115.426 19.5483 117.063 17.0221 117.203 16.7272C117.34 16.4323 117.046 12.7807 117.046 12.1689C117.046 11.557 113.652 10.117 112.291 10.1563C110.927 10.1932 109.347 10.2399 109.28 11.1245Z" fill="url(#paint5_linear_690_6366)"/>
<path d="M109.511 11.1429C109.796 11.1355 109.459 12.8729 109.975 13.4405C110.491 14.0082 112.737 16.9693 115.114 16.6793C117.168 16.4286 116.873 14.6594 117.17 13.1997C117.438 11.8752 118.293 11.7622 118.593 8.30469C118.709 6.96789 119.343 4.87178 118.18 4.48598C117.018 4.09772 112.659 3.06564 111.575 4.48598C110.491 5.90632 110.388 9.31219 109.821 8.87233C109.253 8.43247 108.066 6.29212 107.368 7.45199C106.673 8.61431 107.99 11.1871 109.511 11.1429Z" fill="#F2DAD4"/>
<path d="M127.86 28.8176L120.943 37.5632C120.584 38.0178 120.913 38.6862 121.493 38.6764L134.279 38.4602C134.49 38.4577 134.689 38.3545 134.817 38.1849L141.351 29.454C141.661 29.0412 141.363 28.4514 140.847 28.4563L128.394 28.5595C128.185 28.5571 127.988 28.6529 127.86 28.8176Z" fill="url(#paint6_linear_690_6366)"/>
<path d="M138.795 32.3389C138.122 32.4077 137.144 32.7861 137.144 33.1375C137.144 33.4889 137.928 33.5848 138.144 33.6192C138.36 33.6511 138.645 33.7199 138.564 33.8281C138.483 33.9362 138.321 34.4768 137.889 34.3834C137.456 34.2876 135.562 34.2605 135.195 34.2605C134.829 34.2605 134.397 34.5186 134.37 34.7889C134.343 35.0592 134.262 35.1132 134.045 35.128C133.829 35.1427 133.436 35.3442 133.436 35.6956C133.436 36.047 134.306 36.364 134.306 36.4893C134.306 36.6147 136.011 37.6541 136.345 37.8483C136.68 38.0424 137.304 38.5339 137.655 38.5339C138.007 38.5339 138.596 38.1997 138.641 37.7156C138.685 37.2315 139.38 36.8801 139.388 36.6417C139.397 36.4033 139.169 36.2289 139.193 36.079C139.22 35.9291 139.827 35.7177 139.827 35.3393C139.827 34.9609 139.589 34.4522 139.555 34.2925C139.52 34.1352 139.378 33.7912 139.52 33.747C139.66 33.7027 140.154 33.2457 140.066 32.823C139.977 32.4028 139.107 32.307 138.795 32.3389Z" fill="#FFD3BC"/>
<path d="M105.132 100.893C105.901 101.309 106.331 102.572 106.442 102.587C106.55 102.601 106.754 102.572 106.754 102.446C106.754 102.321 106.722 101.901 106.862 101.901C107.002 101.901 107.16 102.587 107.189 103.587C107.221 104.587 107.575 106.968 107.189 107.27C106.946 107.459 104.722 108.629 104.66 108.784C104.599 108.941 104.707 110.032 104.52 110.204C104.334 110.376 103.896 110.797 103.552 110.814C103.208 110.828 101.228 111.032 100.289 110.814C99.3526 110.595 98.1657 110.143 98.1337 110.018C98.1018 109.892 98.3672 107.238 98.6645 106.911C98.9618 106.585 101.1 103.648 101.272 103.383C101.444 103.117 101.569 102.478 101.569 102.102C101.569 101.729 101.908 100.911 102.54 100.714C103.198 100.51 104.555 100.581 105.132 100.893Z" fill="url(#paint7_linear_690_6366)"/>
<defs>
<linearGradient id="paint0_linear_690_6366" x1="108.001" y1="87.2478" x2="108.001" y2="147.287" gradientUnits="userSpaceOnUse">
<stop stop-color="#E5E5E5"/>
<stop offset="0.4764" stop-color="#F4F4F4"/>
<stop offset="1" stop-color="white"/>
</linearGradient>
<linearGradient id="paint1_linear_690_6366" x1="126.96" y1="104.258" x2="121.371" y2="108.494" gradientUnits="userSpaceOnUse">
<stop stop-color="#0180F5"/>
<stop offset="0.9844" stop-color="#176AD4"/>
</linearGradient>
<linearGradient id="paint2_linear_690_6366" x1="111.04" y1="9.26039" x2="100.469" y2="8.08075" gradientUnits="userSpaceOnUse">
<stop stop-color="#F2BFAD"/>
<stop offset="1" stop-color="#F2DAD4"/>
</linearGradient>
<linearGradient id="paint3_linear_690_6366" x1="98.395" y1="22.4711" x2="134.423" y2="49.7824" gradientUnits="userSpaceOnUse">
<stop stop-color="#0180F5"/>
<stop offset="0.9844" stop-color="#176AD4"/>
</linearGradient>
<linearGradient id="paint4_linear_690_6366" x1="134.649" y1="37.8685" x2="135.187" y2="46.9866" gradientUnits="userSpaceOnUse">
<stop stop-color="#F2BFAD"/>
<stop offset="0.7043" stop-color="#F2DAD4"/>
</linearGradient>
<linearGradient id="paint5_linear_690_6366" x1="112.412" y1="13.052" x2="115.907" y2="20.3513" gradientUnits="userSpaceOnUse">
<stop stop-color="#F2BFAD"/>
<stop offset="1" stop-color="#F2DAD4"/>
</linearGradient>
<linearGradient id="paint6_linear_690_6366" x1="128.786" y1="29.2193" x2="134.871" y2="40.4138" gradientUnits="userSpaceOnUse">
<stop stop-color="#F6DBDB"/>
<stop offset="1" stop-color="#EB9A99"/>
</linearGradient>
<linearGradient id="paint7_linear_690_6366" x1="101.032" y1="104.847" x2="106.621" y2="109.083" gradientUnits="userSpaceOnUse">
<stop stop-color="#4E9CFF"/>
<stop offset="0.9844" stop-color="#176AD4"/>
</linearGradient>
</defs>
</svg>
