<svg width="140" height="181" viewBox="0 0 140 181" fill="none" xmlns="http://www.w3.org/2000/svg">
<path d="M66.9095 75.2314L102.141 41.0305C102.141 41.0305 107.134 36.648 103.56 34.0558C103.56 34.0558 102.127 32.9181 99.9838 32.053C99.2516 31.7578 98.4327 31.4931 97.5616 31.3196C96.2112 31.0489 95.0826 30.0231 94.714 28.6851C94.0018 26.1048 93.8128 21.676 97.7148 16.1927C97.7148 16.1927 103.468 8.54634 107.557 5.18626C108.526 4.38895 109.91 4.26254 111.119 4.85953C112.12 5.35852 113.465 6.0566 114.956 6.92603C119.944 9.83242 126.626 14.6391 128.056 20.1752C128.056 20.1752 133.396 37.3853 97.6742 71.6663C62.442 106.266 45.2955 100.515 45.2955 100.515C39.6556 98.8838 34.9427 91.7378 32.2101 86.6345C31.4858 85.2786 30.9029 84.0703 30.4752 83.1448C29.9123 81.9196 30.0794 80.5391 30.9029 79.5963C34.3848 75.6089 42.2002 70.0847 42.2002 70.0847C47.7971 66.3464 52.2225 66.6642 54.7811 67.4527C56.1074 67.8597 57.1003 69.0158 57.3295 70.3726C57.5207 71.4964 57.8625 72.5354 58.2373 73.4217C58.2373 73.4249 58.2373 73.4249 58.2373 73.4249C59.0013 75.251 59.8928 76.446 59.8928 76.446C62.382 80.0894 66.9095 75.2314 66.9095 75.2314Z" fill="#395E8F"/>
<path d="M42.2015 70.0822C47.7985 66.344 52.2238 66.6618 54.7824 67.4503C56.1088 67.8573 57.1017 69.0134 57.3308 70.3702C57.5221 71.494 57.8638 72.533 58.2387 73.4193C58.2387 73.4225 58.2387 73.4225 58.2387 73.4225C58.2387 73.4225 48.9997 69.0786 32.2109 86.6316C31.4866 85.2757 30.9037 84.0674 30.476 83.1419C29.9131 81.9167 30.0802 80.5361 30.9038 79.5934C34.3862 75.6065 42.2015 70.0822 42.2015 70.0822Z" fill="#323E49"/>
<path d="M97.7286 16.1243C93.824 21.6049 94.0099 26.0359 94.7221 28.6162C95.0902 29.9536 96.216 30.9799 97.566 31.2491C98.6844 31.4736 99.7127 31.8464 100.588 32.2469C100.591 32.2469 100.591 32.2469 100.591 32.2469C100.591 32.2469 96.5228 22.887 114.576 6.63572C113.242 5.87163 112.051 5.253 111.137 4.79851C109.928 4.19992 108.543 4.32581 107.575 5.12048C103.485 8.48056 97.7286 16.1243 97.7286 16.1243Z" fill="#323E49"/>
<path d="M43.8918 152.675C45.9659 153.945 47.5163 156.251 48.3774 159.159C50.6929 168.45 40.3329 169.565 34.9052 165.503C38.0383 171.253 43.0631 173.177 44.4318 173.691L45.3051 176.86L45.267 176.842L45.2675 176.849C40.1326 176.138 32.3938 169.812 31.075 161.707C27.1114 158.073 26.1725 155.751 25.1936 151.01C24.4748 147.52 24.9871 144.968 26.9535 142.34C26.114 141.333 25.3295 140.24 24.5987 139.098L24.597 139.1C20.3991 134.337 17.1367 125.68 19.5875 117.854C17.6678 112.833 17.8678 110.339 19.1164 105.667C20.0366 102.229 21.6389 100.18 24.5775 98.7154C23.5133 94.1881 22.9476 89.0368 24.4718 85.5889C26.0394 82.0389 29.4222 79.0092 33.7767 80.0674L33.7678 84.2872C31.0598 83.7618 24.9145 86.9191 26.598 97.3436C28.0315 96.2536 29.6464 94.8208 32.4896 94.7002L32.4919 94.6968C36.104 94.5801 38.6001 96.9323 39.8475 99.8696C40.9305 102.422 41.1963 105.788 40.3643 108.393C37.3421 116.347 28.1349 109.155 25.6978 101.999L25.5514 101.575C22.908 103.16 19.4963 108.39 21.4543 116.964C22.715 115.22 24.0839 113.475 26.7838 112.064L26.785 112.062C30.2196 110.31 33.6218 113.162 35.1061 115.536C36.3942 117.6 36.7466 120.354 36.2156 123.337C34.124 132.67 24.3525 129.02 21.3149 122.96C21.4608 127.144 23.2346 131.645 24.7723 134.619C25.415 135.61 26.0816 136.704 26.7538 137.885L26.7379 137.847L26.7588 137.838C27.2189 138.632 27.6701 139.382 28.1164 140.193C27.2458 138.611 29.7195 136.575 32.2039 135.192L32.2106 135.19C35.3827 133.466 38.6677 134.453 41.0984 136.524C43.2091 138.324 44.9561 141.217 45.38 143.921C46.2464 152.396 34.8042 150.087 29.4218 144.775L29.1024 144.462C27.4528 147.067 26.7512 153.278 32.3408 160.073C32.6843 157.946 33.1247 155.771 34.9046 153.297L34.9043 153.294C37.1867 150.188 41.5031 151.214 43.8918 152.675ZM37.622 103.844C37.5929 102.79 37.2478 101.756 36.5861 100.934C36.1985 100.453 35.7659 100.014 35.3667 99.6487C34.5078 98.8623 33.351 98.4849 32.1962 98.6106C29.7712 98.8746 27.938 99.654 27.938 99.654C28.6533 106.588 37.8374 111.604 37.622 103.844ZM32.7518 119.066C32.6504 118.6 32.4905 118.156 32.225 117.759C31.2452 116.296 29.8678 114.955 27.5279 116.195L27.5276 116.191C25.1839 117.387 23.6256 118.6 22.582 119.804C24.2834 125.831 34.4778 127.065 32.7518 119.066ZM40.8958 141.081C40.3971 140.151 39.6263 139.38 38.6679 138.941C38.1067 138.683 37.5228 138.486 37.004 138.337C35.8852 138.018 34.6825 138.2 33.7082 138.831C31.6612 140.154 30.3738 141.673 30.3738 141.673C34.1189 147.559 44.5656 147.93 40.8958 141.081ZM34.5894 162.129C38.8096 166.761 48.4951 163.275 43.369 156.89C43.0703 156.517 42.6959 156.211 42.2818 155.974C40.752 155.103 38.9767 154.487 37.3551 156.699L37.3538 156.696C35.8493 158.786 34.9809 160.583 34.5894 162.129Z" fill="#323E49"/>
</svg>
