<svg width="201" height="130" viewBox="0 0 201 130" fill="none" xmlns="http://www.w3.org/2000/svg">
<path d="M183.333 129.616L177.593 112.334C177.593 112.334 183.907 118.633 183.907 123.801L182.774 111.85C182.774 111.85 186.012 116.21 185.688 122.832C185.364 129.454 183.333 129.616 183.333 129.616Z" fill="#E6E6E6"/>
<path d="M60.0509 113.88L54.4481 97.0139C54.4481 97.0139 60.6108 103.161 60.6108 108.205L59.5047 96.541C59.5047 96.541 62.6651 100.797 62.349 107.26C62.033 113.722 60.0509 113.88 60.0509 113.88Z" fill="#E6E6E6"/>
<path d="M147.5 121.662C147.509 132.757 125.45 129.345 98.4433 129.368C71.437 129.391 49.7108 132.842 49.7012 121.747C49.6916 110.652 71.7433 108.22 98.7497 108.196C125.756 108.173 147.49 110.568 147.5 121.662Z" fill="#E6E6E6"/>
<path d="M201 129.361H0V129.869H201V129.361Z" fill="#BCBCBD"/>
<path d="M128.573 106.679H125.042L123.362 93.0938H128.573V106.679Z" fill="#A0616A"/>
<path d="M122.128 105.673H129.33V109.95H118.233V109.558C118.233 108.528 118.643 107.54 119.374 106.811C120.104 106.082 121.095 105.673 122.128 105.673Z" fill="#2F2E41"/>
<path d="M154.525 126.729H150.994L149.314 113.145H154.525V126.729Z" fill="#A0616A"/>
<path d="M148.08 125.724H155.281V130H144.185V129.609C144.185 128.579 144.595 127.59 145.326 126.862C146.056 126.133 147.047 125.724 148.08 125.724Z" fill="#2F2E41"/>
<path d="M170.81 86.372C171.055 86.0766 171.231 85.7315 171.327 85.3609C171.423 84.9903 171.436 84.6032 171.366 84.2269C171.296 83.8506 171.143 83.4942 170.92 83.1829C170.697 82.8716 170.408 82.6129 170.074 82.4251L161.873 49.1025L156.63 51.3529L166.384 83.5729C166.105 84.1541 166.049 84.8172 166.227 85.4366C166.405 86.056 166.805 86.5887 167.351 86.9337C167.896 87.2788 168.55 87.4121 169.188 87.3086C169.825 87.2051 170.403 86.8718 170.81 86.372Z" fill="#A0616A"/>
<path d="M164.415 19.0257C164.122 18.7206 163.766 18.4831 163.371 18.3301C162.977 18.1771 162.553 18.1122 162.131 18.1401C161.708 18.168 161.297 18.2879 160.926 18.4915C160.555 18.695 160.234 18.9772 159.984 19.3182L147.292 20.7718L149.222 25.6553L160.765 23.5003C161.367 23.8809 162.088 24.028 162.792 23.9137C163.495 23.7994 164.133 23.4316 164.582 22.8801C165.032 22.3285 165.264 21.6315 165.233 20.9211C165.202 20.2108 164.911 19.5364 164.415 19.0257Z" fill="#A0616A"/>
<path d="M143.499 82.9155L149.037 124.38L155.931 122.965C155.931 122.965 154.917 92.7667 158.364 89.1263C161.81 85.4858 153.93 79.1084 153.93 79.1084L143.499 82.9155Z" fill="#2F2E41"/>
<path d="M145.789 71.4949L143.244 75.3019C143.244 75.3019 123.653 67.1804 123.653 80.1242C123.653 93.068 122.532 101.852 122.127 102.459C121.721 103.066 126.818 104.64 129.251 104.236C129.251 104.236 132.252 83.3681 132.049 82.1546C132.049 82.1546 151.267 91.5538 154.917 90.7448C158.566 89.9358 159.429 87.072 160.037 85.4541C160.645 83.8361 159.782 70.9873 159.782 70.9873L147.618 67.2842L145.789 71.4949Z" fill="#2F2E41"/>
<path d="M146.132 48.6367L145.407 47.7686C145.407 47.7686 137.284 29.5384 140.475 24.6192C143.666 19.6999 157.59 18.9765 158.025 19.2659C158.46 19.5552 156.986 23.3122 158.001 25.0484C158.001 25.0484 147.215 27.3812 146.49 27.6705C145.764 27.9599 152.079 38.6535 152.079 38.6535L151.353 45.1643L146.132 48.6367Z" fill="#CCCCCC"/>
<path d="M160.346 39.6661C160.346 39.6661 152.804 40.5342 152.514 40.5342C152.224 40.5342 152.079 38.6533 152.079 38.6533L145.407 47.7684C145.407 47.7684 142.12 74.2125 142.99 73.7784C143.86 73.3444 159.911 75.8372 160.056 74.6797C160.201 73.5222 159.911 67.7349 160.346 67.4455C160.781 67.1561 167.888 49.2153 167.888 49.2153C167.888 49.2153 167.163 45.4535 164.697 44.1513C162.231 42.8492 160.346 39.6661 160.346 39.6661Z" fill="#CCCCCC"/>
<path d="M165.567 46.7559L167.888 49.2155C167.888 49.2155 171.336 77.4789 169.451 78.3471C167.565 79.2152 163.853 79.1085 163.853 79.1085L160.201 65.7095L165.567 46.7559Z" fill="#CCCCCC"/>
<path d="M153.098 37.8766C156.785 37.8766 159.774 34.895 159.774 31.2171C159.774 27.5392 156.785 24.5576 153.098 24.5576C149.411 24.5576 146.422 27.5392 146.422 31.2171C146.422 34.895 149.411 37.8766 153.098 37.8766Z" fill="#A0616A"/>
<path d="M151.532 32.2561C151.442 30.8742 149.694 30.8269 148.306 30.8138C146.918 30.8007 145.258 30.8502 144.473 29.7084C143.954 28.9538 144.053 27.9063 144.482 27.0973C144.91 26.2883 145.616 25.6661 146.31 25.0675C148.101 23.5222 149.948 21.9891 152.099 20.9999C154.25 20.0108 156.77 19.6111 159.001 20.4052C161.741 21.3805 165.445 26.4015 165.765 29.2862C166.085 32.1709 164.929 35.1116 162.981 37.2672C161.033 39.4229 156.574 38.5531 153.768 39.32C155.474 36.9115 154.35 32.5352 151.617 31.4105L151.532 32.2561Z" fill="#2F2E41"/>
<path d="M93.6375 120.013C101.862 120.013 108.529 113.362 108.529 105.158C108.529 96.9543 101.862 90.3037 93.6375 90.3037C85.4133 90.3037 78.7462 96.9543 78.7462 105.158C78.7462 113.362 85.4133 120.013 93.6375 120.013Z" fill="#ACAEB4"/>
<path d="M83.6928 89.2482C81.629 89.2483 79.6094 88.6517 77.8784 87.5306C76.1475 86.4095 74.7793 84.8119 73.9397 82.9313L50.31 29.8486C49.5273 28.0902 49.1133 26.1907 49.0935 24.2669C49.0738 22.3431 49.4486 20.4355 50.1951 18.6615C50.9415 16.8875 52.0438 15.2845 53.4341 13.9511C54.8245 12.6177 56.4735 11.582 58.2798 10.9077C60.0862 10.2334 62.0117 9.93471 63.938 10.03C65.8644 10.1253 67.7508 10.6126 69.4814 11.462C71.212 12.3113 72.7501 13.5047 74.0014 14.9688C75.2526 16.433 76.1904 18.1369 76.7572 19.9759L93.8679 75.4924C94.3578 77.0814 94.4672 78.763 94.1874 80.4019C93.9077 82.0408 93.2464 83.5914 92.2569 84.9292C91.2674 86.2669 89.9771 87.3545 88.4898 88.1046C87.0024 88.8547 85.3595 89.2464 83.6929 89.2482H83.6928Z" fill="#ACAEB4"/>
</svg>
