<svg width="152" height="94" viewBox="0 0 152 94" fill="none" xmlns="http://www.w3.org/2000/svg">
<ellipse cx="74.4669" cy="92.2433" rx="74.4669" ry="1.75701" fill="#F2F2F8"/>
<path d="M116.375 90.8211C114.429 89.175 113.247 86.5745 113.557 84.0429C113.867 81.5113 115.787 79.184 118.277 78.6464C120.768 78.1088 123.607 79.5969 124.363 82.0325C124.78 77.3369 125.259 72.4445 127.753 68.4458C130.011 64.825 133.922 62.2342 138.16 61.7708C142.399 61.3073 146.862 63.0578 149.505 66.4069C152.148 69.7561 152.796 74.625 150.944 78.4701C149.58 81.3026 147.068 83.4106 144.435 85.1256C135.928 90.6206 125.725 92.8552 115.703 91.4182L116.375 90.8211Z" fill="#CFE6FC"/>
<path d="M145.314 63.1551C141.816 66.0068 138.608 69.1963 135.735 72.6774C131.239 78.1066 127.6 84.1937 124.946 90.7267C124.752 91.2033 125.525 91.4107 125.717 90.9394C130.059 80.322 136.991 70.9639 145.879 63.721C146.278 63.3956 145.71 62.8324 145.314 63.1551Z" fill="#A4CDF8"/>
<path d="M48.9313 90.3747C51.6041 88.1136 53.2277 84.5419 52.8019 81.0647C52.3761 77.5876 49.7391 74.391 46.3184 73.6527C42.8977 72.9143 38.9984 74.9582 37.9594 78.3034C37.3876 71.854 36.7287 65.1344 33.3036 59.6422C30.2022 54.6691 24.8306 51.1106 19.009 50.474C13.1873 49.8374 7.05791 52.2418 3.42718 56.8418C-0.203557 61.4418 -1.09253 68.1293 1.45034 73.4105C3.32359 77.301 6.77477 80.1963 10.3907 82.5518C21.9269 90.0667 36.2376 93.2009 49.8544 91.1947" fill="#CFE5FC"/>
<path d="M9.18478 52.3747C13.9883 56.2916 18.3951 60.6723 22.3413 65.4536C26.2882 70.2299 29.7629 75.3782 32.7168 80.8262C34.3679 83.8823 35.8511 87.0263 37.1599 90.2443C37.4267 90.8989 36.3649 91.1838 36.101 90.5365C33.783 84.8633 30.9151 79.4311 27.5385 74.318C24.1784 69.2233 20.3325 64.467 16.0549 60.1159C13.6355 57.656 11.0828 55.3312 8.40835 53.152C7.86017 52.7051 8.64112 51.9315 9.18477 52.3747L9.18478 52.3747Z" fill="#A4CDF8"/>
<path d="M109.108 90.7763H45.3379V25.274C45.3379 11.3378 56.6632 0 70.5839 0H83.8621C97.7828 0 109.108 11.3378 109.108 25.274V90.7763Z" fill="#DDEDFD"/>
<path d="M95.83 90.7766H45.338V25.2742C45.324 19.9342 47.0131 14.7292 50.1593 10.4169C50.2753 10.2587 50.391 10.1025 50.5103 9.948C52.032 7.94988 53.843 6.19017 55.8834 4.72695C55.9987 4.64299 56.1144 4.5605 56.2318 4.478C57.9391 3.29518 59.786 2.32825 61.7304 1.59922C61.8459 1.5554 61.9634 1.51151 62.081 1.4694C63.8395 0.84115 65.6624 0.410802 67.516 0.186302C67.6309 0.170587 67.7489 0.158289 67.8669 0.145992C69.6733 -0.0473618 71.4951 -0.0473618 73.3014 0.145992C73.4191 0.158289 73.537 0.170585 73.6533 0.18647C75.5065 0.410985 77.3289 0.841281 79.0869 1.46941C79.2045 1.51151 79.3221 1.55541 79.4379 1.59931C81.3583 2.31914 83.1834 3.27164 84.8726 4.43555C84.9899 4.51626 85.1074 4.59876 85.2231 4.68126C86.3668 5.49855 87.4411 6.40906 88.435 7.4035C89.232 8.20114 89.9747 9.05139 90.6581 9.94852C90.777 10.1025 90.8927 10.2587 91.0084 10.4167C94.1547 14.729 95.8439 19.9341 95.83 25.2742V90.7766Z" fill="#0B75E5"/>
<path d="M91.7251 61.4798C93.2689 61.4798 94.5205 60.2269 94.5205 58.6813C94.5205 57.1357 93.2689 55.8828 91.7251 55.8828C90.1812 55.8828 88.9297 57.1357 88.9297 58.6813C88.9297 60.2269 90.1812 61.4798 91.7251 61.4798Z" fill="white"/>
<path d="M81.9401 71.7993H59.2274C58.9283 71.8009 58.6408 71.6837 58.4279 71.4733C58.215 71.263 58.0941 70.9767 58.0918 70.6772V19.9248C58.0941 19.6254 58.215 19.3391 58.4279 19.1287C58.6408 18.9184 58.9283 18.8011 59.2274 18.8028H81.9401C82.2392 18.8011 82.5268 18.9184 82.7396 19.1287C82.9525 19.3391 83.0734 19.6254 83.0757 19.9248V70.6772C83.0734 70.9767 82.9525 71.263 82.7396 71.4733C82.5268 71.6837 82.2392 71.8009 81.9401 71.7993Z" fill="white"/>
<path d="M83.0757 35.2246H58.0918V35.5744H83.0757V35.2246Z" fill="#DBDBDB"/>
<path d="M83.1626 55.1836H58.1787V55.5334H83.1626V55.1836Z" fill="#DBDBDB"/>
<path d="M66.3048 18.8027H65.9541V71.9742H66.3048V18.8027Z" fill="#DBDBDB"/>
<path d="M75.0392 18.8027H74.6885V71.9742H75.0392V18.8027Z" fill="#DBDBDB"/>
</svg>
