<svg width="33" height="32" viewBox="0 0 33 32" fill="none" xmlns="http://www.w3.org/2000/svg">
<path d="M16.5 10.52L15.0733 13C14.7533 13.5467 15.02 14 15.6466 14H17.34C17.98 14 18.2333 14.4534 17.9133 15L16.5 17.48" stroke="#FA5A7D" stroke-width="1.5" stroke-linecap="round" stroke-linejoin="round"/>
<path d="M11.5666 24.0534V22.5067C8.49998 20.6534 5.97998 17.04 5.97998 13.2C5.97998 6.60003 12.0466 1.4267 18.9 2.92003C21.9133 3.5867 24.5533 5.5867 25.9266 8.3467C28.7133 13.9467 25.78 19.8934 21.4733 22.4934V24.04C21.4733 24.4267 21.62 25.32 20.1933 25.32H12.8466C11.38 25.3334 11.5666 24.76 11.5666 24.0534Z" stroke="#FA5A7D" stroke-width="1.5" stroke-linecap="round" stroke-linejoin="round"/>
<path d="M11.8334 29.3333C14.8867 28.4667 18.1134 28.4667 21.1667 29.3333" stroke="#FA5A7D" stroke-width="1.5" stroke-linecap="round" stroke-linejoin="round"/>
</svg>
