<svg width="16" height="16" viewBox="0 0 16 16" fill="none" xmlns="http://www.w3.org/2000/svg">
<path d="M6.00004 14.6666H10C13.3334 14.6666 14.6667 13.3333 14.6667 9.99998V5.99998C14.6667 2.66665 13.3334 1.33331 10 1.33331H6.00004C2.66671 1.33331 1.33337 2.66665 1.33337 5.99998V9.99998C1.33337 13.3333 2.66671 14.6666 6.00004 14.6666Z" stroke="#FA5A7D" stroke-width="1.5" stroke-linecap="round" stroke-linejoin="round"/>
<path d="M10.3334 6.5C10.8857 6.5 11.3334 6.05228 11.3334 5.5C11.3334 4.94772 10.8857 4.5 10.3334 4.5C9.78109 4.5 9.33337 4.94772 9.33337 5.5C9.33337 6.05228 9.78109 6.5 10.3334 6.5Z" stroke="#FA5A7D" stroke-miterlimit="10" stroke-linecap="round" stroke-linejoin="round"/>
<path d="M5.66663 6.5C6.21891 6.5 6.66663 6.05228 6.66663 5.5C6.66663 4.94772 6.21891 4.5 5.66663 4.5C5.11434 4.5 4.66663 4.94772 4.66663 5.5C4.66663 6.05228 5.11434 6.5 5.66663 6.5Z" stroke="#FA5A7D" stroke-miterlimit="10" stroke-linecap="round" stroke-linejoin="round"/>
<path d="M5.6 8.86664H10.4C10.7333 8.86664 11 9.1333 11 9.46664C11 11.1266 9.66 12.4666 8 12.4666C6.34 12.4666 5 11.1266 5 9.46664C5 9.1333 5.26667 8.86664 5.6 8.86664Z" stroke="#FA5A7D" stroke-miterlimit="10" stroke-linecap="round" stroke-linejoin="round"/>
</svg>
