<svg width="40" height="40" viewBox="0 0 40 40" fill="none" xmlns="http://www.w3.org/2000/svg">
<path d="M39.5 20C39.5 30.7696 30.7696 39.5 20 39.5C9.23045 39.5 0.5 30.7696 0.5 20C0.5 9.23045 9.23045 0.5 20 0.5C30.7696 0.5 39.5 9.23045 39.5 20Z" fill="#F0F0F0" stroke="#C6C6C6"/>
<path fill-rule="evenodd" clip-rule="evenodd" d="M30.5355 9.11579C28.157 11.765 25.273 15.1943 22.2889 18.9221C21.794 19.5404 21.3964 20.0704 21.4054 20.0998C21.4282 20.1744 22.6463 22.3467 23.5991 24.0125C24.0343 24.7731 24.3741 25.4114 24.3545 25.4308C24.335 25.4503 23.6002 25.4823 22.722 25.5012C21.5378 25.527 21.1095 25.5202 21.065 25.475C21.0322 25.4414 20.6532 24.8467 20.2228 24.1533C19.7924 23.4598 19.4118 22.8504 19.3763 22.7984C19.3192 22.7144 19.2043 22.8189 18.3081 23.7703C17.7559 24.3566 16.9275 25.2496 16.4674 25.7555C16.0074 26.2609 15.5569 26.7557 15.4664 26.8545L15.3018 27.0341L15.4606 26.9259C15.6533 26.7946 17.6522 25.1104 18.5262 24.3429C19.0243 23.9058 19.1667 23.8055 19.2038 23.8664C19.2297 23.909 19.5351 24.4858 19.8829 25.1487C20.2307 25.8117 20.533 26.3707 20.5552 26.3911C20.5934 26.4269 26.2312 26.5629 26.2656 26.5293C26.2846 26.5104 24.6457 23.5297 23.5203 21.5361L22.7543 20.1792L24.5864 17.7537C27.1666 14.3375 29.0061 11.7965 30.6668 9.35272C31.1723 8.60885 31.5752 8 31.5625 8C31.5487 7.99948 31.0871 8.50221 30.5355 9.11579Z" fill="white"/>
<path fill-rule="evenodd" clip-rule="evenodd" d="M23.2363 13.871C22.7964 14.2397 21.9553 14.9547 21.3671 15.4601C20.779 15.9654 20.2782 16.3852 20.2549 16.3936C20.2316 16.402 19.9294 15.8646 19.5832 15.2C19.2369 14.535 18.9183 13.9456 18.8743 13.8894C18.7986 13.7927 18.6631 13.7853 15.9638 13.7339C14.407 13.7039 13.128 13.6845 13.1216 13.6908C13.1052 13.7071 14.9443 17.0413 15.8553 18.6483L16.6467 20.0441L14.9919 22.2305C12.3562 25.7134 10.2583 28.6132 8.58387 31.0885C7.68712 32.4145 7.676 32.4234 9.60291 30.248C11.8152 27.7506 13.7542 25.4434 16.381 22.1843C17.2079 21.1588 17.9146 20.2836 17.9522 20.2395C18.0252 20.1544 17.7044 19.5545 15.8198 16.257C15.3688 15.4674 15.0136 14.8076 15.0306 14.7908C15.074 14.7477 18.3148 14.6742 18.3317 14.7162C18.3397 14.7351 18.7351 15.3713 19.211 16.1304L20.076 17.5104L21.1024 16.4193C22.5296 14.9027 24.0902 13.2012 24.0537 13.2012C24.0442 13.2001 23.6757 13.5022 23.2363 13.871Z" fill="white"/>
<path d="M39.75 33C39.75 36.7279 36.7279 39.75 33 39.75C29.2721 39.75 26.25 36.7279 26.25 33C26.25 29.2721 29.2721 26.25 33 26.25C36.7279 26.25 39.75 29.2721 39.75 33Z" fill="#0180F5" stroke="white" stroke-width="0.5"/>
<path d="M35.4466 33.83L35.1132 33.2767C35.0432 33.1534 34.9799 32.92 34.9799 32.7834V31.94C34.9799 31.1567 34.5199 30.48 33.8566 30.1634C33.6832 29.8567 33.3632 29.6667 32.9966 29.6667C32.6332 29.6667 32.3066 29.8634 32.1332 30.1734C31.4832 30.4967 31.0332 31.1667 31.0332 31.94V32.7834C31.0332 32.92 30.9699 33.1534 30.8999 33.2734L30.5632 33.83C30.4299 34.0534 30.3999 34.3 30.4832 34.5267C30.5632 34.75 30.7532 34.9234 30.9999 35.0067C31.6466 35.2267 32.3266 35.3334 33.0066 35.3334C33.6866 35.3334 34.3666 35.2267 35.0132 35.01C35.2466 34.9334 35.4266 34.7567 35.5132 34.5267C35.5999 34.2967 35.5766 34.0434 35.4466 33.83Z" fill="white"/>
<path d="M33.9434 35.67C33.8034 36.0567 33.4334 36.3334 33.0001 36.3334C32.7367 36.3334 32.4767 36.2267 32.2934 36.0367C32.1867 35.9367 32.1067 35.8034 32.0601 35.6667C32.1034 35.6734 32.1467 35.6767 32.1934 35.6834C32.2701 35.6934 32.3501 35.7034 32.4301 35.71C32.6201 35.7267 32.8134 35.7367 33.0067 35.7367C33.1967 35.7367 33.3867 35.7267 33.5734 35.71C33.6434 35.7034 33.7134 35.7 33.7801 35.69C33.8334 35.6834 33.8867 35.6767 33.9434 35.67Z" fill="white"/>
</svg>
