<svg width="16" height="16" viewBox="0 0 16 16" fill="none" xmlns="http://www.w3.org/2000/svg">
<path d="M7.36668 9.96665L6.13334 11.2C5.87334 11.46 5.46001 11.46 5.19334 11.2066C5.12001 11.1333 5.04668 11.0666 4.97334 10.9933C4.28668 10.3 3.66668 9.57331 3.11334 8.81331C2.56668 8.05331 2.12668 7.29331 1.80668 6.53998C1.49334 5.77998 1.33334 5.05331 1.33334 4.35998C1.33334 3.90665 1.41334 3.47331 1.57334 3.07331C1.73334 2.66665 1.98668 2.29331 2.34001 1.95998C2.76668 1.53998 3.23334 1.33331 3.72668 1.33331C3.91334 1.33331 4.10001 1.37331 4.26668 1.45331C4.44001 1.53331 4.59334 1.65331 4.71334 1.82665L6.26001 4.00665C6.38001 4.17331 6.46668 4.32665 6.52668 4.47331C6.58668 4.61331 6.62001 4.75331 6.62001 4.87998C6.62001 5.03998 6.57334 5.19998 6.48001 5.35331C6.39334 5.50665 6.26668 5.66665 6.10668 5.82665L5.60001 6.35331C5.52668 6.42665 5.49334 6.51331 5.49334 6.61998C5.49334 6.67331 5.50001 6.71998 5.51334 6.77331C5.53334 6.82665 5.55334 6.86665 5.56668 6.90665C5.68668 7.12665 5.89334 7.41331 6.18668 7.75998C6.48668 8.10665 6.80668 8.45998 7.15334 8.81331C7.22001 8.87998 7.29334 8.94665 7.36001 9.01331C7.62668 9.27331 7.63334 9.69998 7.36668 9.96665Z" fill="#0180F5"/>
<path d="M14.6467 12.22C14.6467 12.4067 14.6133 12.6 14.5467 12.7867C14.5267 12.84 14.5067 12.8933 14.48 12.9467C14.3667 13.1867 14.22 13.4133 14.0267 13.6267C13.7 13.9867 13.34 14.2467 12.9333 14.4133C12.9267 14.4133 12.92 14.42 12.9133 14.42C12.52 14.58 12.0933 14.6667 11.6333 14.6667C10.9533 14.6667 10.2267 14.5067 9.45999 14.18C8.69333 13.8533 7.92666 13.4133 7.16666 12.86C6.90666 12.6667 6.64666 12.4733 6.39999 12.2667L8.57999 10.0867C8.76666 10.2267 8.93333 10.3333 9.07333 10.4067C9.10666 10.42 9.14666 10.44 9.19333 10.46C9.24666 10.48 9.29999 10.4867 9.35999 10.4867C9.47333 10.4867 9.55999 10.4467 9.63333 10.3733L10.14 9.87332C10.3067 9.70665 10.4667 9.57999 10.62 9.49999C10.7733 9.40665 10.9267 9.35999 11.0933 9.35999C11.22 9.35999 11.3533 9.38665 11.5 9.44665C11.6467 9.50665 11.8 9.59332 11.9667 9.70665L14.1733 11.2733C14.3467 11.3933 14.4667 11.5333 14.54 11.7C14.6067 11.8667 14.6467 12.0333 14.6467 12.22Z" fill="#0180F5"/>
</svg>
