<svg width="263" height="159" viewBox="0 0 263 159" fill="none" xmlns="http://www.w3.org/2000/svg">
<path d="M85.0406 129.983V119.551C85.0406 118.874 84.4959 118.33 83.8198 118.33H80.3265C79.8288 118.33 79.3875 118.02 79.1903 117.56C79.1903 117.55 79.1903 117.55 79.1809 117.541C78.9837 117.081 79.0776 116.546 79.4344 116.189L81.9041 113.719C82.3831 113.24 82.3831 112.47 81.9041 112.001L74.5232 104.62C74.0443 104.141 73.2743 104.141 72.8047 104.62L70.335 107.089C69.9782 107.446 69.4429 107.531 68.9828 107.343C68.9734 107.343 68.9734 107.343 68.964 107.334C68.5039 107.136 68.194 106.704 68.194 106.197V102.704C68.194 102.028 67.6493 101.483 66.9732 101.483H56.5498C55.8736 101.483 55.329 102.028 55.329 102.704V106.197C55.329 106.695 55.0191 107.136 54.559 107.334C54.5496 107.334 54.5496 107.334 54.5402 107.343C54.0801 107.54 53.5448 107.446 53.188 107.089L50.7183 104.62C50.2393 104.141 49.4693 104.141 48.9998 104.62L41.6189 112.001C41.1399 112.479 41.1399 113.25 41.6189 113.719L44.0886 116.189C44.4454 116.546 44.5299 117.081 44.3421 117.541C44.3421 117.55 44.3421 117.55 44.3327 117.56C44.1355 118.02 43.7035 118.33 43.1965 118.33H39.7032C39.0271 118.33 38.4824 118.874 38.4824 119.551V129.983C38.4824 130.66 39.0271 131.204 39.7032 131.204H43.1965C43.6942 131.204 44.1355 131.514 44.3327 131.974C44.3327 131.984 44.3327 131.984 44.3421 131.993C44.5393 132.453 44.4454 132.988 44.0886 133.345L41.6189 135.815C41.1399 136.294 41.1399 137.064 41.6189 137.533L48.9998 144.914C49.4787 145.393 50.2487 145.393 50.7183 144.914L53.188 142.445C53.5448 142.088 54.0801 142.003 54.5402 142.191C54.5496 142.191 54.5496 142.191 54.559 142.2C55.0191 142.398 55.329 142.83 55.329 143.337V146.83C55.329 147.506 55.8736 148.051 56.5498 148.051H66.9826C67.6587 148.051 68.2034 147.506 68.2034 146.83V143.337C68.2034 142.839 68.5133 142.398 68.9734 142.2C68.9828 142.2 68.9828 142.2 68.9922 142.191C69.4523 141.994 69.9876 142.088 70.3444 142.445L72.8141 144.914C73.293 145.393 74.0631 145.393 74.5326 144.914L81.9135 137.533C82.3924 137.054 82.3924 136.284 81.9135 135.815L79.4344 133.345C79.0776 132.988 78.9931 132.453 79.1809 131.993C79.1809 131.984 79.1809 131.984 79.1903 131.974C79.3875 131.514 79.8194 131.204 80.3265 131.204H83.8198C84.4959 131.204 85.0406 130.66 85.0406 129.983ZM73.2179 124.772C73.2179 131.101 68.0907 136.228 61.7615 136.228C55.4323 136.228 50.3051 131.101 50.3051 124.772C50.3051 118.442 55.4323 113.315 61.7615 113.315C68.0907 113.315 73.2179 118.442 73.2179 124.772Z" fill="#FFFDFE"/>
<path d="M230.79 134.932H238.425C238.913 134.932 239.317 134.538 239.317 134.04V131.486C239.317 131.12 239.542 130.8 239.88 130.66H239.89C240.228 130.519 240.622 130.584 240.876 130.847L242.688 132.66C243.036 133.007 243.599 133.007 243.947 132.66L249.346 127.26C249.694 126.913 249.694 126.349 249.346 126.002L247.534 124.189C247.271 123.927 247.205 123.542 247.346 123.203C247.346 123.203 247.346 123.194 247.355 123.194C247.496 122.856 247.815 122.631 248.182 122.631H250.736C251.224 122.631 251.628 122.236 251.628 121.739V114.104C251.628 113.616 251.234 113.212 250.736 113.212H248.182C247.815 113.212 247.496 112.987 247.355 112.649C247.355 112.649 247.355 112.639 247.346 112.639C247.205 112.301 247.271 111.907 247.534 111.653L249.346 109.841C249.694 109.493 249.694 108.93 249.346 108.582L243.947 103.183C243.599 102.835 243.036 102.835 242.688 103.183L240.876 104.995C240.613 105.258 240.228 105.324 239.89 105.183C239.89 105.183 239.88 105.183 239.88 105.174C239.542 105.033 239.317 104.714 239.317 104.347V101.793C239.317 101.305 238.923 100.901 238.425 100.901H230.79C230.302 100.901 229.898 101.295 229.898 101.793V104.347C229.898 104.714 229.673 105.033 229.335 105.174C229.335 105.174 229.326 105.174 229.326 105.183C228.987 105.324 228.593 105.258 228.34 104.995L226.527 103.183C226.18 102.835 225.616 102.835 225.269 103.183L219.869 108.582C219.522 108.93 219.522 109.493 219.869 109.841L221.682 111.653C221.945 111.916 222.01 112.301 221.869 112.639C221.869 112.639 221.869 112.649 221.86 112.649C221.719 112.987 221.4 113.212 221.034 113.212H218.479C217.991 113.212 217.587 113.606 217.587 114.104V121.739C217.587 122.227 217.982 122.631 218.479 122.631H221.034C221.4 122.631 221.719 122.856 221.86 123.194C221.86 123.194 221.86 123.203 221.869 123.203C222.01 123.542 221.945 123.936 221.682 124.189L219.869 126.002C219.522 126.349 219.522 126.913 219.869 127.26L225.269 132.66C225.616 133.007 226.18 133.007 226.527 132.66L228.34 130.847C228.602 130.584 228.987 130.519 229.326 130.66H229.335C229.673 130.8 229.898 131.12 229.898 131.486V134.04C229.898 134.528 230.302 134.932 230.79 134.932ZM234.603 126.284C229.973 126.284 226.217 122.527 226.217 117.898C226.217 113.268 229.973 109.512 234.603 109.512C239.233 109.512 242.989 113.268 242.989 117.898C242.989 122.527 239.233 126.284 234.603 126.284Z" fill="#FFFDFE"/>
<path d="M198.722 121.034H202.948C203.22 121.034 203.436 120.809 203.436 120.546V119.128C203.436 118.921 203.558 118.743 203.746 118.668C203.746 118.668 203.746 118.668 203.755 118.668C203.943 118.593 204.159 118.63 204.3 118.771L205.305 119.776C205.493 119.964 205.812 119.964 206 119.776L208.986 116.79C209.183 116.602 209.183 116.283 208.986 116.095L207.981 115.09C207.84 114.949 207.803 114.733 207.878 114.545C207.878 114.545 207.878 114.545 207.878 114.536C207.953 114.348 208.131 114.226 208.338 114.226H209.756C210.028 114.226 210.244 114.001 210.244 113.738V109.512C210.244 109.24 210.019 109.024 209.756 109.024H208.338C208.131 109.024 207.953 108.902 207.878 108.714C207.878 108.714 207.878 108.714 207.878 108.705C207.803 108.517 207.84 108.301 207.981 108.16L208.986 107.155C209.183 106.967 209.183 106.648 208.986 106.46L206 103.474C205.812 103.286 205.493 103.286 205.305 103.474L204.3 104.479C204.159 104.62 203.943 104.657 203.755 104.582C203.755 104.582 203.755 104.582 203.746 104.582C203.558 104.507 203.436 104.329 203.436 104.122V102.704C203.436 102.432 203.22 102.216 202.948 102.216H198.722C198.45 102.216 198.234 102.441 198.234 102.704V104.122C198.234 104.329 198.112 104.507 197.924 104.582C197.924 104.582 197.924 104.582 197.914 104.582C197.727 104.657 197.511 104.62 197.37 104.479L196.365 103.474C196.168 103.286 195.858 103.286 195.67 103.474L192.684 106.46C192.496 106.648 192.496 106.967 192.684 107.155L193.689 108.16C193.829 108.301 193.867 108.517 193.792 108.705C193.792 108.705 193.792 108.705 193.792 108.714C193.717 108.902 193.538 109.024 193.332 109.024H191.914C191.642 109.024 191.426 109.249 191.426 109.512V113.738C191.426 114.01 191.651 114.226 191.914 114.226H193.332C193.538 114.226 193.717 114.348 193.792 114.536C193.792 114.536 193.792 114.536 193.792 114.545C193.867 114.733 193.829 114.949 193.689 115.09L192.684 116.095C192.496 116.283 192.496 116.602 192.684 116.79L195.67 119.776C195.858 119.964 196.177 119.964 196.365 119.776L197.37 118.771C197.511 118.63 197.727 118.593 197.914 118.668C197.914 118.668 197.914 118.668 197.924 118.668C198.112 118.743 198.234 118.921 198.234 119.128V120.546C198.224 120.809 198.45 121.034 198.722 121.034ZM200.835 116.245C198.271 116.245 196.196 114.17 196.196 111.606C196.196 109.043 198.271 106.967 200.835 106.967C203.398 106.967 205.474 109.043 205.474 111.606C205.474 114.17 203.398 116.245 200.835 116.245Z" fill="#FFFDFE"/>
<path d="M47.8072 52.9155H52.0329C52.3052 52.9155 52.5212 52.6995 52.5212 52.4272V51.0092C52.5212 50.8026 52.6433 50.6242 52.8311 50.5491C52.8311 50.5491 52.8311 50.5491 52.8405 50.5491C53.0283 50.474 53.2443 50.5115 53.3851 50.6524L54.3899 51.6478C54.5777 51.8356 54.897 51.8356 55.0848 51.6478L58.071 48.6616C58.2682 48.4738 58.2682 48.1545 58.071 47.9667L57.0662 46.9619C56.9254 46.8211 56.8878 46.6051 56.9629 46.4173C56.9629 46.4173 56.9629 46.4173 56.9629 46.4079C57.038 46.2201 57.2165 46.098 57.4231 46.098H58.841C59.1133 46.098 59.3293 45.8726 59.3293 45.6097V41.384C59.3293 41.1116 59.1133 40.8956 58.841 40.8956H57.4231C57.2165 40.8956 57.038 40.7736 56.9629 40.5858C56.9629 40.5858 56.9629 40.5858 56.9629 40.5764C56.8878 40.3886 56.9254 40.1726 57.0662 40.0317L58.071 39.0269C58.2682 38.8391 58.2682 38.5198 58.071 38.332L55.0848 35.3459C54.897 35.158 54.5777 35.158 54.3899 35.3459L53.3851 36.3506C53.2443 36.4915 53.0283 36.5291 52.8405 36.4539C52.8405 36.4539 52.8405 36.4539 52.8311 36.4539C52.6433 36.3788 52.5212 36.2004 52.5212 35.9938V34.5758C52.5212 34.3035 52.3052 34.0875 52.0329 34.0875H47.8072C47.5348 34.0875 47.3189 34.3129 47.3189 34.5758V35.9938C47.3189 36.2004 47.1968 36.3788 47.009 36.4539C47.009 36.4539 47.009 36.4539 46.9996 36.4539C46.8118 36.5291 46.5958 36.4915 46.4549 36.3506L45.4502 35.3459C45.2623 35.158 44.9431 35.158 44.7553 35.3459L41.7691 38.332C41.5813 38.5198 41.5813 38.8391 41.7691 39.0269L42.7739 40.0317C42.9147 40.1726 42.9523 40.3886 42.8772 40.5764C42.8772 40.5764 42.8772 40.5764 42.8772 40.5858C42.802 40.7736 42.6236 40.8956 42.417 40.8956H40.999C40.7267 40.8956 40.5107 41.121 40.5107 41.384V45.6097C40.5107 45.882 40.7267 46.098 40.999 46.098H42.417C42.6236 46.098 42.802 46.2201 42.8772 46.4079C42.8772 46.4079 42.8772 46.4079 42.8772 46.4173C42.9523 46.6051 42.9147 46.8211 42.7739 46.9619L41.7691 47.9667C41.5813 48.1545 41.5813 48.4738 41.7691 48.6616L44.7459 51.6478C44.9337 51.8356 45.2529 51.8356 45.4408 51.6478L46.4455 50.643C46.5864 50.5021 46.8024 50.4646 46.9902 50.5397C46.9902 50.5397 46.9902 50.5397 46.9996 50.5397C47.1874 50.6148 47.3095 50.7932 47.3095 50.9998V52.4178C47.3095 52.6901 47.5348 52.9155 47.8072 52.9155ZM49.92 48.1263C47.3564 48.1263 45.2811 46.051 45.2811 43.4874C45.2811 40.9238 47.3564 38.8485 49.92 38.8485C52.4836 38.8485 54.5589 40.9238 54.5589 43.4874C54.5589 46.051 52.4836 48.1263 49.92 48.1263Z" fill="#F1EBFF"/>
<path d="M209.39 93.5013H211.822C211.981 93.5013 212.103 93.3698 212.103 93.2196V92.4026C212.103 92.2899 212.179 92.1866 212.282 92.1397C212.395 92.0927 212.517 92.1115 212.601 92.196L213.174 92.7689C213.287 92.8815 213.465 92.8815 213.578 92.7689L215.296 91.0504C215.409 90.9377 215.409 90.7593 215.296 90.6466L214.723 90.0738C214.639 89.9893 214.62 89.8672 214.667 89.7545C214.714 89.6418 214.817 89.5761 214.93 89.5761H215.747C215.907 89.5761 216.029 89.4446 216.029 89.2944V86.8622C216.029 86.7026 215.897 86.5805 215.747 86.5805H214.93C214.817 86.5805 214.714 86.5054 214.667 86.4021C214.62 86.2894 214.639 86.1673 214.723 86.0828L215.296 85.51C215.409 85.3973 215.409 85.2189 215.296 85.1062L213.578 83.3877C213.465 83.2751 213.287 83.2751 213.174 83.3877L212.601 83.9606C212.517 84.0451 212.395 84.0639 212.282 84.0169C212.169 83.9699 212.103 83.8667 212.103 83.754V82.937C212.103 82.7774 211.972 82.6553 211.822 82.6553H209.39C209.23 82.6553 209.108 82.7867 209.108 82.937V83.754C209.108 83.8667 209.033 83.9699 208.929 84.0169C208.817 84.0639 208.695 84.0451 208.61 83.9606L208.037 83.3877C207.925 83.2751 207.746 83.2751 207.634 83.3877L205.915 85.1062C205.802 85.2189 205.802 85.3973 205.915 85.51L206.488 86.0828C206.572 86.1673 206.591 86.2894 206.544 86.4021C206.497 86.5054 206.394 86.5805 206.281 86.5805H205.464C205.305 86.5805 205.183 86.712 205.183 86.8622V89.2944C205.183 89.454 205.314 89.5761 205.464 89.5761H206.281C206.394 89.5761 206.497 89.6512 206.544 89.7545C206.591 89.8672 206.572 89.9893 206.488 90.0738L205.915 90.6466C205.802 90.7593 205.802 90.9377 205.915 91.0504L207.634 92.7689C207.746 92.8815 207.925 92.8815 208.037 92.7689L208.61 92.196C208.695 92.1115 208.817 92.0927 208.929 92.1397C209.042 92.1866 209.108 92.2899 209.108 92.4026V93.2196C209.108 93.3792 209.23 93.5013 209.39 93.5013ZM210.61 90.7499C209.136 90.7499 207.934 89.5573 207.934 88.0736C207.934 86.5993 209.127 85.3973 210.61 85.3973C212.085 85.3973 213.287 86.5899 213.287 88.0736C213.277 89.5479 212.085 90.7499 210.61 90.7499Z" fill="#FFFDFE"/>
<path d="M24.143 120.602V115.193C24.143 114.846 23.8613 114.564 23.5138 114.564H21.7015C21.4385 114.564 21.2132 114.405 21.1099 114.16V114.151C21.0066 113.907 21.0535 113.635 21.2413 113.447L22.5278 112.16C22.772 111.916 22.772 111.512 22.5278 111.268L18.6965 107.437C18.4524 107.193 18.0486 107.193 17.8044 107.437L16.5179 108.723C16.3301 108.911 16.0578 108.958 15.8136 108.855H15.8042C15.5601 108.751 15.4004 108.526 15.4004 108.263V106.451C15.4004 106.103 15.1187 105.822 14.7713 105.822H9.36234C9.01489 105.822 8.73317 106.103 8.73317 106.451V108.263C8.73317 108.526 8.57354 108.751 8.32938 108.855H8.31999C8.07584 108.958 7.80351 108.911 7.6157 108.723L6.3292 107.437C6.08505 107.193 5.68126 107.193 5.43711 107.437L1.60578 111.268C1.36162 111.512 1.36162 111.916 1.60578 112.16L2.89228 113.447C3.08009 113.635 3.12704 113.907 3.02374 114.151V114.16C2.92984 114.405 2.70447 114.564 2.44153 114.564H0.629164C0.281715 114.564 0 114.846 0 115.193V120.602C0 120.95 0.281715 121.231 0.629164 121.231H2.44153C2.70447 121.231 2.92984 121.391 3.03313 121.635V121.645C3.13643 121.889 3.08948 122.161 2.90167 122.349L1.61517 123.635C1.37101 123.88 1.37101 124.283 1.61517 124.528L5.4465 128.359C5.69065 128.603 6.09444 128.603 6.33859 128.359L7.62509 127.072C7.8129 126.885 8.08523 126.838 8.32938 126.941H8.33877C8.58293 127.044 8.74256 127.27 8.74256 127.533V129.345C8.74256 129.692 9.02428 129.974 9.37173 129.974H14.7807C15.1281 129.974 15.4098 129.692 15.4098 129.345V127.533C15.4098 127.27 15.5695 127.044 15.8136 126.941H15.823C16.0672 126.838 16.3395 126.885 16.5273 127.072L17.8138 128.359C18.0579 128.603 18.4617 128.603 18.7059 128.359L22.5372 124.528C22.7814 124.283 22.7814 123.88 22.5372 123.635L21.2507 122.349C21.0629 122.161 21.016 121.889 21.1193 121.645V121.635C21.2226 121.391 21.4479 121.231 21.7109 121.231H23.5232C23.8613 121.241 24.143 120.95 24.143 120.602ZM18.0204 117.898C18.0204 121.185 15.3629 123.842 12.0762 123.842C8.79891 123.842 6.132 121.185 6.132 117.898C6.132 114.611 8.78952 111.954 12.0762 111.954C15.3535 111.954 18.0204 114.621 18.0204 117.898Z" fill="#FFFDFE"/>
<path d="M198.543 18.9782H202.769C203.042 18.9782 203.258 18.7528 203.258 18.4899V17.0719C203.258 16.8653 203.38 16.6869 203.567 16.6118C203.567 16.6118 203.567 16.6118 203.577 16.6118C203.765 16.5367 203.981 16.5742 204.121 16.7151L205.126 17.7199C205.323 17.9077 205.633 17.9077 205.821 17.7199L208.807 14.7337C208.995 14.5459 208.995 14.2266 208.807 14.0388L207.803 13.034C207.662 12.8932 207.624 12.6772 207.699 12.4894C207.699 12.4894 207.699 12.4894 207.699 12.48C207.774 12.2922 207.953 12.1701 208.159 12.1701H209.577C209.85 12.1701 210.066 11.9541 210.066 11.6818V7.45606C210.066 7.18373 209.84 6.96775 209.577 6.96775H208.159C207.953 6.96775 207.774 6.84567 207.699 6.65786C207.699 6.65786 207.699 6.65786 207.699 6.64847C207.624 6.46066 207.662 6.24468 207.803 6.10382L208.807 5.09904C208.995 4.91123 208.995 4.59195 208.807 4.40414L205.821 1.41796C205.633 1.23015 205.314 1.23015 205.126 1.41796L204.121 2.42274C203.981 2.5636 203.765 2.60116 203.577 2.52604C203.577 2.52604 203.577 2.52604 203.567 2.52604C203.38 2.45092 203.258 2.2725 203.258 2.06591V0.610377C203.258 0.338052 203.042 0.12207 202.769 0.12207H198.543C198.271 0.12207 198.055 0.338052 198.055 0.610377V2.02834C198.055 2.23494 197.933 2.41335 197.745 2.48848C197.745 2.48848 197.745 2.48848 197.736 2.48848C197.548 2.5636 197.332 2.52604 197.191 2.38518L196.186 1.3804C195.989 1.19259 195.679 1.19259 195.492 1.3804L192.505 4.36658C192.318 4.55439 192.318 4.87367 192.505 5.06148L193.51 6.06626C193.651 6.20712 193.689 6.4231 193.613 6.61091C193.613 6.61091 193.613 6.61091 193.613 6.6203C193.538 6.80811 193.36 6.93019 193.153 6.93019H191.735C191.463 6.93019 191.247 7.14617 191.247 7.4185V11.6442C191.247 11.9165 191.463 12.1325 191.735 12.1325H193.153C193.36 12.1325 193.538 12.2546 193.613 12.4424C193.613 12.4424 193.613 12.4424 193.613 12.4518C193.689 12.6396 193.651 12.8556 193.51 12.9965L192.505 14.0012C192.318 14.1891 192.318 14.5083 192.505 14.6961L195.492 17.6823C195.679 17.8701 195.999 17.8701 196.186 17.6823L197.191 16.6775C197.332 16.5367 197.548 16.4991 197.736 16.5742C197.736 16.5742 197.736 16.5742 197.745 16.5742C197.933 16.6494 198.055 16.8278 198.055 17.0344V18.4523C198.046 18.7528 198.271 18.9782 198.543 18.9782ZM200.656 14.1891C198.093 14.1891 196.017 12.1138 196.017 9.55014C196.017 6.98653 198.093 4.91123 200.656 4.91123C203.22 4.91123 205.295 6.98653 205.295 9.55014C205.295 12.1138 203.211 14.1891 200.656 14.1891Z" fill="#FFFDFE"/>
<path d="M218.31 27.5424H220.743C220.902 27.5424 221.024 27.4109 221.024 27.2607V26.4437C221.024 26.331 221.099 26.2277 221.203 26.1808C221.315 26.1338 221.437 26.1526 221.522 26.2371L222.095 26.8099C222.208 26.9226 222.386 26.9226 222.499 26.8099L224.217 25.0915C224.33 24.9788 224.33 24.8004 224.217 24.6877L223.644 24.1149C223.56 24.0303 223.541 23.9083 223.588 23.7956C223.635 23.6923 223.738 23.6172 223.851 23.6172H224.668C224.827 23.6172 224.95 23.4857 224.95 23.3354V20.9033C224.95 20.7437 224.818 20.6216 224.668 20.6216H223.851C223.738 20.6216 223.635 20.5465 223.588 20.4432C223.541 20.3305 223.56 20.2084 223.644 20.1239L224.217 19.5511C224.33 19.4384 224.33 19.26 224.217 19.1473L222.499 17.4288C222.386 17.3161 222.208 17.3161 222.095 17.4288L221.522 18.0016C221.437 18.0861 221.315 18.1049 221.203 18.058C221.099 18.011 221.024 17.9077 221.024 17.795V16.9781C221.024 16.8184 220.893 16.6964 220.743 16.6964H218.31C218.151 16.6964 218.029 16.8278 218.029 16.9781V17.795C218.029 17.9077 217.954 18.011 217.85 18.058C217.738 18.1049 217.616 18.0861 217.531 18.0016L216.958 17.4288C216.846 17.3161 216.667 17.3161 216.554 17.4288L214.836 19.1473C214.723 19.26 214.723 19.4384 214.836 19.5511L215.409 20.1239C215.493 20.2084 215.512 20.3305 215.465 20.4432C215.418 20.5465 215.315 20.6216 215.202 20.6216H214.385C214.226 20.6216 214.104 20.753 214.104 20.9033V23.3354C214.104 23.4951 214.235 23.6172 214.385 23.6172H215.202C215.315 23.6172 215.418 23.6923 215.465 23.7956C215.512 23.9083 215.493 24.0303 215.409 24.1149L214.836 24.6877C214.723 24.8004 214.723 24.9788 214.836 25.0915L216.554 26.8099C216.667 26.9226 216.846 26.9226 216.958 26.8099L217.531 26.2371C217.616 26.1526 217.738 26.1338 217.85 26.1808C217.954 26.2277 218.029 26.331 218.029 26.4437V27.2607C218.029 27.4109 218.151 27.5424 218.31 27.5424ZM219.522 24.7816C218.048 24.7816 216.846 23.589 216.846 22.1053C216.846 20.631 218.038 19.429 219.522 19.429C220.996 19.429 222.198 20.6216 222.198 22.1053C222.198 23.589 221.006 24.7816 219.522 24.7816Z" fill="#FFFDFE"/>
<path d="M65.9777 38.4072H68.4098C68.5695 38.4072 68.6916 38.2757 68.6916 38.1255V37.3085C68.6916 37.1958 68.7667 37.0925 68.87 37.0456C68.9827 36.9986 69.1047 37.0174 69.1893 37.1019L69.7621 37.6747C69.8748 37.7874 70.0532 37.7874 70.1659 37.6747L71.8843 35.9563C71.997 35.8436 71.997 35.6652 71.8843 35.5525L71.3115 34.9797C71.227 34.8951 71.2082 34.7731 71.2552 34.6604C71.3021 34.5571 71.4054 34.482 71.5181 34.482H72.3351C72.4947 34.482 72.6168 34.3505 72.6168 34.2002V31.7681C72.6168 31.6085 72.4853 31.4864 72.3351 31.4864H71.5181C71.4054 31.4864 71.3021 31.4113 71.2552 31.308C71.2082 31.1953 71.227 31.0732 71.3115 30.9887L71.8843 30.4159C71.997 30.3032 71.997 30.1248 71.8843 30.0121L70.1659 28.2936C70.0532 28.1809 69.8748 28.1809 69.7621 28.2936L69.1893 28.8664C69.1047 28.951 68.9827 28.9697 68.87 28.9228C68.7667 28.8758 68.6916 28.7725 68.6916 28.6598V27.8429C68.6916 27.6832 68.5601 27.5612 68.4098 27.5612H65.9777C65.8181 27.5612 65.696 27.6926 65.696 27.8429V28.6598C65.696 28.7725 65.6209 28.8758 65.5176 28.9228C65.4049 28.9697 65.2828 28.951 65.1983 28.8664L64.6255 28.2936C64.5128 28.1809 64.3344 28.1809 64.2217 28.2936L62.5032 30.0121C62.3905 30.1248 62.3905 30.3032 62.5032 30.4159L63.076 30.9887C63.1605 31.0732 63.1793 31.1953 63.1324 31.308C63.0854 31.4113 62.9821 31.4864 62.8694 31.4864H62.0525C61.8928 31.4864 61.7708 31.6179 61.7708 31.7681V34.2002C61.7708 34.3599 61.9022 34.482 62.0525 34.482H62.8694C62.9821 34.482 63.0854 34.5571 63.1324 34.6604C63.1793 34.7731 63.1605 34.8951 63.076 34.9797L62.5032 35.5525C62.3905 35.6652 62.3905 35.8436 62.5032 35.9563L64.2217 37.6747C64.3344 37.7874 64.5128 37.7874 64.6255 37.6747L65.1983 37.1019C65.2828 37.0174 65.4049 36.9986 65.5176 37.0456C65.6209 37.0925 65.696 37.1958 65.696 37.3085V38.1255C65.696 38.2757 65.8181 38.4072 65.9777 38.4072ZM67.1985 35.6464C65.7242 35.6464 64.5222 34.4538 64.5222 32.9701C64.5222 31.4958 65.7148 30.2938 67.1985 30.2938C68.6728 30.2938 69.8748 31.4864 69.8748 32.9701C69.8748 34.4538 68.6728 35.6464 67.1985 35.6464Z" fill="#F1EBFF"/>
<path opacity="0.13" d="M192.928 155.807H85.632C81.8195 155.807 78.73 152.718 78.73 148.905V6.90202C78.73 3.08948 81.8195 0 85.632 0H192.928C196.741 0 199.83 3.08948 199.83 6.90202V148.896C199.83 152.708 196.741 155.807 192.928 155.807Z" fill="#D6BDF1"/>
<path d="M189.256 155.807H81.9604C78.1478 155.807 75.0583 152.718 75.0583 148.905V6.90202C75.0583 3.08948 78.1478 0 81.9604 0H189.256C193.069 0 196.158 3.08948 196.158 6.90202V148.896C196.158 152.708 193.069 155.807 189.256 155.807Z" fill="url(#paint0_linear_1383_20086)"/>
<path d="M189.2 146.107H82.0168C80.2138 146.107 78.7583 144.642 78.7583 142.848V12.9589C78.7583 11.1559 80.2232 9.70038 82.0168 9.70038H189.2C191.003 9.70038 192.459 11.1653 192.459 12.9589V142.839C192.468 144.642 191.003 146.107 189.2 146.107Z" fill="#FFFDFE"/>
<path opacity="0.4" d="M184.749 137.731H141.365C139.365 137.731 137.75 136.106 137.75 134.115V20.9784C137.75 18.9782 139.374 17.363 141.365 17.363H184.749C186.749 17.363 188.364 18.9876 188.364 20.9784V134.115C188.364 136.115 186.74 137.731 184.749 137.731Z" fill="#F1EBFF"/>
<path d="M144.736 37.393V26.4906C144.736 25.7488 145.337 25.1572 146.069 25.1572C148.67 25.1572 154.38 25.1572 156.981 25.1572C157.723 25.1572 158.315 25.7582 158.315 26.4906V37.393C158.315 38.1348 157.714 38.7265 156.981 38.7265C154.38 38.7265 148.67 38.7265 146.069 38.7265C145.327 38.7265 144.736 38.1255 144.736 37.393Z" fill="#F1EBFF"/>
<path d="M181.021 28.0494H160.878C160.681 28.0494 160.521 27.8898 160.521 27.6926C160.521 27.4954 160.681 27.3358 160.878 27.3358H181.021C181.218 27.3358 181.378 27.4954 181.378 27.6926C181.378 27.8898 181.218 28.0494 181.021 28.0494ZM181.378 29.8148C181.378 29.6176 181.218 29.458 181.021 29.458H160.878C160.681 29.458 160.521 29.6176 160.521 29.8148C160.521 30.012 160.681 30.1717 160.878 30.1717H181.021C181.218 30.1717 181.378 30.012 181.378 29.8148ZM181.378 31.9371C181.378 31.7399 181.218 31.5803 181.021 31.5803H160.878C160.681 31.5803 160.521 31.7399 160.521 31.9371C160.521 32.1343 160.681 32.2939 160.878 32.2939H181.021C181.218 32.2939 181.378 32.1343 181.378 31.9371ZM181.378 34.0594C181.378 33.8622 181.218 33.7025 181.021 33.7025H160.878C160.681 33.7025 160.521 33.8622 160.521 34.0594C160.521 34.2566 160.681 34.4162 160.878 34.4162H181.021C181.218 34.4162 181.378 34.2566 181.378 34.0594ZM181.378 36.1816C181.378 35.9844 181.218 35.8248 181.021 35.8248H160.878C160.681 35.8248 160.521 35.9844 160.521 36.1816C160.521 36.3788 160.681 36.5385 160.878 36.5385H181.021C181.218 36.5385 181.378 36.3788 181.378 36.1816Z" fill="#F1EBFF"/>
<path d="M144.736 55.8641V44.9617C144.736 44.2199 145.337 43.6283 146.069 43.6283C148.67 43.6283 154.38 43.6283 156.981 43.6283C157.723 43.6283 158.315 44.2293 158.315 44.9617V55.8641C158.315 56.606 157.714 57.1976 156.981 57.1976C154.38 57.1976 148.67 57.1976 146.069 57.1976C145.327 57.1976 144.736 56.606 144.736 55.8641Z" fill="#F1EBFF"/>
<path d="M181.021 46.5206H160.878C160.681 46.5206 160.521 46.3609 160.521 46.1637C160.521 45.9665 160.681 45.8069 160.878 45.8069H181.021C181.218 45.8069 181.378 45.9665 181.378 46.1637C181.378 46.3609 181.218 46.5206 181.021 46.5206ZM181.378 48.286C181.378 48.0888 181.218 47.9291 181.021 47.9291H160.878C160.681 47.9291 160.521 48.0888 160.521 48.286C160.521 48.4832 160.681 48.6428 160.878 48.6428H181.021C181.218 48.6428 181.378 48.4832 181.378 48.286ZM181.378 50.4082C181.378 50.211 181.218 50.0514 181.021 50.0514H160.878C160.681 50.0514 160.521 50.211 160.521 50.4082C160.521 50.6054 160.681 50.7651 160.878 50.7651H181.021C181.218 50.7651 181.378 50.6054 181.378 50.4082ZM181.378 52.5305C181.378 52.3333 181.218 52.1737 181.021 52.1737H160.878C160.681 52.1737 160.521 52.3333 160.521 52.5305C160.521 52.7277 160.681 52.8873 160.878 52.8873H181.021C181.218 52.8873 181.378 52.7277 181.378 52.5305ZM181.378 54.6621C181.378 54.4649 181.218 54.3053 181.021 54.3053H160.878C160.681 54.3053 160.521 54.4649 160.521 54.6621C160.521 54.8593 160.681 55.019 160.878 55.019H181.021C181.218 55.0096 181.378 54.8499 181.378 54.6621Z" fill="#F1EBFF"/>
<path d="M144.736 74.0442V63.1418C144.736 62.3999 145.337 61.8083 146.069 61.8083C148.67 61.8083 154.38 61.8083 156.981 61.8083C157.723 61.8083 158.315 62.4093 158.315 63.1418V74.0442C158.315 74.786 157.714 75.3776 156.981 75.3776C154.38 75.3776 148.67 75.3776 146.069 75.3776C145.327 75.387 144.736 74.786 144.736 74.0442Z" fill="#F1EBFF"/>
<path d="M181.021 64.7006H160.878C160.681 64.7006 160.521 64.541 160.521 64.3438C160.521 64.1466 160.681 63.9869 160.878 63.9869H181.021C181.218 63.9869 181.378 64.1466 181.378 64.3438C181.378 64.541 181.218 64.7006 181.021 64.7006ZM181.378 66.4754C181.378 66.2782 181.218 66.1186 181.021 66.1186H160.878C160.681 66.1186 160.521 66.2782 160.521 66.4754C160.521 66.6726 160.681 66.8323 160.878 66.8323H181.021C181.218 66.8229 181.378 66.6726 181.378 66.4754ZM181.378 68.5977C181.378 68.4005 181.218 68.2408 181.021 68.2408H160.878C160.681 68.2408 160.521 68.4005 160.521 68.5977C160.521 68.7949 160.681 68.9545 160.878 68.9545H181.021C181.218 68.9545 181.378 68.7949 181.378 68.5977ZM181.378 70.7199C181.378 70.5227 181.218 70.3631 181.021 70.3631H160.878C160.681 70.3631 160.521 70.5227 160.521 70.7199C160.521 70.9171 160.681 71.0768 160.878 71.0768H181.021C181.218 71.0768 181.378 70.9171 181.378 70.7199ZM181.378 72.8422C181.378 72.645 181.218 72.4854 181.021 72.4854H160.878C160.681 72.4854 160.521 72.645 160.521 72.8422C160.521 73.0394 160.681 73.199 160.878 73.199H181.021C181.218 73.199 181.378 73.0394 181.378 72.8422Z" fill="#F1EBFF"/>
<path d="M144.736 92.2336V81.3312C144.736 80.5893 145.337 79.9977 146.069 79.9977C148.67 79.9977 154.38 79.9977 156.981 79.9977C157.723 79.9977 158.315 80.5987 158.315 81.3312V92.2336C158.315 92.9754 157.714 93.567 156.981 93.567C154.38 93.567 148.67 93.567 146.069 93.567C145.327 93.567 144.736 92.966 144.736 92.2336Z" fill="#F1EBFF"/>
<path d="M181.021 82.89H160.878C160.681 82.89 160.521 82.7304 160.521 82.5332C160.521 82.336 160.681 82.1763 160.878 82.1763H181.021C181.218 82.1763 181.378 82.336 181.378 82.5332C181.378 82.7304 181.218 82.89 181.021 82.89ZM181.378 84.6554C181.378 84.4582 181.218 84.2986 181.021 84.2986H160.878C160.681 84.2986 160.521 84.4582 160.521 84.6554C160.521 84.8526 160.681 85.0123 160.878 85.0123H181.021C181.218 85.0123 181.378 84.8526 181.378 84.6554ZM181.378 86.7777C181.378 86.5805 181.218 86.4208 181.021 86.4208H160.878C160.681 86.4208 160.521 86.5805 160.521 86.7777C160.521 86.9749 160.681 87.1345 160.878 87.1345H181.021C181.218 87.1345 181.378 86.9749 181.378 86.7777ZM181.378 88.8999C181.378 88.7027 181.218 88.5431 181.021 88.5431H160.878C160.681 88.5431 160.521 88.7027 160.521 88.8999C160.521 89.0971 160.681 89.2568 160.878 89.2568H181.021C181.218 89.2568 181.378 89.0971 181.378 88.8999ZM181.378 91.0222C181.378 90.825 181.218 90.6654 181.021 90.6654H160.878C160.681 90.6654 160.521 90.825 160.521 91.0222C160.521 91.2194 160.681 91.379 160.878 91.379H181.021C181.218 91.379 181.378 91.2194 181.378 91.0222Z" fill="#F1EBFF"/>
<path d="M144.736 110.414V99.5112C144.736 98.7693 145.337 98.1777 146.069 98.1777C148.67 98.1777 154.38 98.1777 156.981 98.1777C157.723 98.1777 158.315 98.7787 158.315 99.5112V110.414C158.315 111.155 157.714 111.747 156.981 111.747C154.38 111.747 148.67 111.747 146.069 111.747C145.327 111.756 144.736 111.155 144.736 110.414Z" fill="#F1EBFF"/>
<path d="M181.021 101.07H160.878C160.681 101.07 160.521 100.91 160.521 100.713C160.521 100.516 160.681 100.356 160.878 100.356H181.021C181.218 100.356 181.378 100.516 181.378 100.713C181.378 100.91 181.218 101.07 181.021 101.07ZM181.378 102.845C181.378 102.648 181.218 102.488 181.021 102.488H160.878C160.681 102.488 160.521 102.648 160.521 102.845C160.521 103.042 160.681 103.202 160.878 103.202H181.021C181.218 103.192 181.378 103.042 181.378 102.845ZM181.378 104.967C181.378 104.77 181.218 104.61 181.021 104.61H160.878C160.681 104.61 160.521 104.77 160.521 104.967C160.521 105.164 160.681 105.324 160.878 105.324H181.021C181.218 105.324 181.378 105.164 181.378 104.967ZM181.378 107.089C181.378 106.892 181.218 106.732 181.021 106.732H160.878C160.681 106.732 160.521 106.892 160.521 107.089C160.521 107.287 160.681 107.446 160.878 107.446H181.021C181.218 107.446 181.378 107.287 181.378 107.089ZM181.378 109.212C181.378 109.014 181.218 108.855 181.021 108.855H160.878C160.681 108.855 160.521 109.014 160.521 109.212C160.521 109.409 160.681 109.568 160.878 109.568H181.021C181.218 109.568 181.378 109.409 181.378 109.212Z" fill="#F1EBFF"/>
<path d="M144.736 128.603V117.701C144.736 116.959 145.337 116.367 146.069 116.367C148.67 116.367 154.38 116.367 156.981 116.367C157.723 116.367 158.315 116.968 158.315 117.701V128.603C158.315 129.345 157.714 129.936 156.981 129.936C154.38 129.936 148.67 129.936 146.069 129.936C145.327 129.936 144.736 129.335 144.736 128.603Z" fill="#F1EBFF"/>
<path d="M181.021 119.259H160.878C160.681 119.259 160.521 119.1 160.521 118.903C160.521 118.705 160.681 118.546 160.878 118.546H181.021C181.218 118.546 181.378 118.705 181.378 118.903C181.378 119.1 181.218 119.259 181.021 119.259ZM181.378 121.025C181.378 120.828 181.218 120.668 181.021 120.668H160.878C160.681 120.668 160.521 120.828 160.521 121.025C160.521 121.222 160.681 121.382 160.878 121.382H181.021C181.218 121.382 181.378 121.222 181.378 121.025ZM181.378 123.147C181.378 122.95 181.218 122.79 181.021 122.79H160.878C160.681 122.79 160.521 122.95 160.521 123.147C160.521 123.344 160.681 123.504 160.878 123.504H181.021C181.218 123.504 181.378 123.344 181.378 123.147ZM181.378 125.269C181.378 125.072 181.218 124.913 181.021 124.913H160.878C160.681 124.913 160.521 125.072 160.521 125.269C160.521 125.467 160.681 125.626 160.878 125.626H181.021C181.218 125.626 181.378 125.467 181.378 125.269ZM181.378 127.392C181.378 127.194 181.218 127.035 181.021 127.035H160.878C160.681 127.035 160.521 127.194 160.521 127.392C160.521 127.589 160.681 127.748 160.878 127.748H181.021C181.218 127.748 181.378 127.589 181.378 127.392Z" fill="#F1EBFF"/>
<path opacity="0.4" d="M127.749 62.4844H87.4445C85.0593 62.4844 83.1155 60.55 83.1155 58.1554V20.9784C83.1155 18.5932 85.0499 16.6494 87.4445 16.6494H127.739C130.124 16.6494 132.068 18.5838 132.068 20.9784V58.1554C132.068 60.55 130.134 62.4844 127.749 62.4844Z" fill="#F1EBFF"/>
<path d="M99.314 35.5619V62.4939H87.3411C85.0123 62.4939 83.1248 60.597 83.1248 58.2681V35.5619H99.314Z" fill="#F1EBFF"/>
<path d="M90.1019 139.13C94.1005 139.13 97.342 135.888 97.342 131.89C97.342 127.891 94.1005 124.65 90.1019 124.65C86.1033 124.65 82.8618 127.891 82.8618 131.89C82.8618 135.888 86.1033 139.13 90.1019 139.13Z" fill="#F1EBFF"/>
<path d="M133.439 125.758H101.68C101.371 125.758 101.117 125.504 101.117 125.194C101.117 124.884 101.371 124.631 101.68 124.631H133.439C133.749 124.631 134.003 124.884 134.003 125.194C133.993 125.504 133.749 125.758 133.439 125.758ZM133.993 128.547C133.993 128.237 133.74 127.983 133.43 127.983H101.671C101.361 127.983 101.108 128.237 101.108 128.547C101.108 128.857 101.361 129.11 101.671 129.11H133.43C133.749 129.101 133.993 128.857 133.993 128.547ZM133.993 131.89C133.993 131.58 133.74 131.326 133.43 131.326H101.671C101.361 131.326 101.108 131.58 101.108 131.89C101.108 132.2 101.361 132.453 101.671 132.453H133.43C133.749 132.453 133.993 132.2 133.993 131.89ZM133.993 135.242C133.993 134.932 133.74 134.679 133.43 134.679H101.671C101.361 134.679 101.108 134.932 101.108 135.242C101.108 135.552 101.361 135.806 101.671 135.806H133.43C133.749 135.796 133.993 135.552 133.993 135.242ZM133.993 138.585C133.993 138.275 133.74 138.022 133.43 138.022H101.671C101.361 138.022 101.108 138.275 101.108 138.585C101.108 138.895 101.361 139.149 101.671 139.149H133.43C133.749 139.149 133.993 138.895 133.993 138.585Z" fill="#F1EBFF"/>
<path opacity="0.4" d="M127.749 118.048H87.4445C85.0593 118.048 83.1155 116.114 83.1155 113.719V76.542C83.1155 74.1568 85.0499 72.213 87.4445 72.213H127.739C130.124 72.213 132.068 74.1475 132.068 76.542V113.719C132.068 116.114 130.134 118.048 127.749 118.048Z" fill="#F1EBFF"/>
<path d="M78.4484 109.625L94.5907 90.393C96.0556 88.6464 98.7131 88.5713 100.281 90.224L128.509 120.058H77.9883L78.4484 109.625Z" fill="#F1EBFF"/>
<path d="M122.509 96.0273L151.638 120.058H93.9053L117.372 96.2903C118.762 94.8911 120.988 94.7784 122.509 96.0273Z" fill="#F1EBFF"/>
<path d="M115.325 86.712C115.325 89.2004 113.306 91.2288 110.808 91.2288C108.32 91.2288 106.291 89.2098 106.291 86.712C106.291 84.2235 108.31 82.1951 110.808 82.1951C113.306 82.2045 115.325 84.2235 115.325 86.712Z" fill="#F1EBFF"/>
<path opacity="0.31" d="M72.9267 111.005H31.5522C29.721 111.005 28.2373 109.522 28.2373 107.69V85.5663C28.2373 83.7352 29.721 82.2515 31.5522 82.2515H72.9267C74.7579 82.2515 76.2416 83.7352 76.2416 85.5663V107.69C76.2416 109.522 74.7579 111.005 72.9267 111.005Z" fill="#D6BDF1"/>
<path d="M70.6072 109.456H29.2326C27.4014 109.456 25.9177 107.972 25.9177 106.141V84.0169C25.9177 82.1857 27.4014 80.702 29.2326 80.702H70.6072C72.4383 80.702 73.922 82.1857 73.922 84.0169V106.141C73.922 107.972 72.4383 109.456 70.6072 109.456Z" fill="#FFFDFE"/>
<path d="M29.073 101.286V88.8718C29.073 88.0266 29.7491 87.3505 30.5943 87.3505C33.5523 87.3505 40.0505 87.3505 43.0085 87.3505C43.8537 87.3505 44.5298 88.036 44.5298 88.8718V101.277C44.5298 102.122 43.8537 102.798 43.0085 102.798C40.0505 102.798 33.5523 102.798 30.5943 102.798C29.7491 102.807 29.073 102.122 29.073 101.286Z" fill="#F1EBFF"/>
<path d="M70.363 90.656H47.4502C47.2248 90.656 47.0464 90.4776 47.0464 90.2522C47.0464 90.0268 47.2248 89.8484 47.4502 89.8484H70.363C70.5884 89.8484 70.7668 90.0268 70.7668 90.2522C70.7668 90.4776 70.579 90.656 70.363 90.656ZM70.7668 92.6655C70.7668 92.4402 70.5884 92.2617 70.363 92.2617H47.4502C47.2248 92.2617 47.0464 92.4402 47.0464 92.6655C47.0464 92.8909 47.2248 93.0693 47.4502 93.0693H70.363C70.579 93.0693 70.7668 92.8909 70.7668 92.6655ZM70.7668 95.0789C70.7668 94.8535 70.5884 94.6751 70.363 94.6751H47.4502C47.2248 94.6751 47.0464 94.8535 47.0464 95.0789C47.0464 95.3043 47.2248 95.4827 47.4502 95.4827H70.363C70.579 95.4827 70.7668 95.3043 70.7668 95.0789ZM70.7668 97.4923C70.7668 97.2669 70.5884 97.0885 70.363 97.0885H47.4502C47.2248 97.0885 47.0464 97.2669 47.0464 97.4923C47.0464 97.7176 47.2248 97.8961 47.4502 97.8961H70.363C70.579 97.8961 70.7668 97.7176 70.7668 97.4923ZM70.7668 99.915C70.7668 99.6896 70.5884 99.5112 70.363 99.5112H47.4502C47.2248 99.5112 47.0464 99.6896 47.0464 99.915C47.0464 100.14 47.2248 100.319 47.4502 100.319H70.363C70.579 100.319 70.7668 100.14 70.7668 99.915Z" fill="#F1EBFF"/>
<path d="M200.656 154.23H184.289L191.548 131.805C191.839 130.904 193.116 130.904 193.407 131.805L200.656 154.23Z" fill="#FFC504"/>
<path d="M202.215 155.807H182.711C182.279 155.807 181.922 155.45 181.922 155.019C181.922 154.587 182.279 154.23 182.711 154.23H202.215C202.647 154.23 203.004 154.587 203.004 155.019C203.004 155.45 202.657 155.807 202.215 155.807Z" fill="#FFFDFE"/>
<path d="M200.656 154.23H184.289L191.548 131.805C191.839 130.904 193.116 130.904 193.407 131.805L200.656 154.23Z" fill="url(#paint1_linear_1383_20086)"/>
<path d="M201.164 150.182H184.448V145.91H201.164V150.182ZM201.164 137.58H184.448V141.853H201.164V137.58Z" fill="#FFFDFE"/>
<path d="M45.9571 154.23H29.5801L36.8389 131.805C37.13 130.904 38.4072 130.904 38.6983 131.805L45.9571 154.23Z" fill="#FFC504"/>
<path d="M47.5159 155.807H28.0212C27.5893 155.807 27.2324 155.45 27.2324 155.019C27.2324 154.587 27.5893 154.23 28.0212 154.23H47.5159C47.9479 154.23 48.3047 154.587 48.3047 155.019C48.3047 155.45 47.9573 155.807 47.5159 155.807Z" fill="#FFFDFE"/>
<path d="M45.9571 154.23H29.5801L36.8389 131.805C37.13 130.904 38.4072 130.904 38.6983 131.805L45.9571 154.23Z" fill="url(#paint2_linear_1383_20086)"/>
<path d="M46.4641 150.182H29.749V145.91H46.4641V150.182ZM46.4641 137.58H29.749V141.853H46.4641V137.58Z" fill="#FFFDFE"/>
<path d="M244.224 148.911V147.483H205.694V148.911H244.224Z" fill="#423BAA"/>
<path d="M205.737 155.807C205.126 155.807 204.629 155.31 204.629 154.699V120.565C204.629 119.954 205.126 119.457 205.737 119.457C206.347 119.457 206.845 119.954 206.845 120.565V154.699C206.854 155.3 206.357 155.807 205.737 155.807Z" fill="#423BAA"/>
<path d="M207.267 155.807H204.206C203.812 155.807 203.502 155.488 203.502 155.103C203.502 154.709 203.821 154.399 204.206 154.399H207.267C207.662 154.399 207.972 154.718 207.972 155.103C207.972 155.488 207.662 155.807 207.267 155.807Z" fill="#423BAA"/>
<path d="M244.125 155.807C243.515 155.807 243.017 155.31 243.017 154.699V120.565C243.017 119.954 243.515 119.457 244.125 119.457C244.736 119.457 245.233 119.954 245.233 120.565V154.699C245.233 155.3 244.736 155.807 244.125 155.807Z" fill="#423BAA"/>
<path d="M245.656 155.807H242.594C242.2 155.807 241.89 155.488 241.89 155.103C241.89 154.709 242.209 154.399 242.594 154.399H245.656C246.05 154.399 246.36 154.718 246.36 155.103C246.36 155.488 246.05 155.807 245.656 155.807Z" fill="#423BAA"/>
<path d="M248.341 135.298H200.825V121.786H248.341V135.298ZM248.341 136.961H200.825V143.149H248.341V136.961Z" fill="#7357E5"/>
<path d="M195.069 153.375H188.167L211.934 104.93H218.836L195.069 153.375ZM229.805 104.93H222.902L199.135 153.375H206.037L229.805 104.93ZM240.773 104.93H233.871L210.103 153.375H217.005L240.773 104.93ZM251.741 104.93H244.839L221.071 153.375H227.973L251.741 104.93ZM262.709 104.93H255.807L232.039 153.375H238.941L262.709 104.93Z" fill="url(#paint3_linear_1383_20086)"/>
<path d="M195.069 153.375H188.167L211.934 104.93H218.836L195.069 153.375ZM229.805 104.93H222.902L199.135 153.375H206.037L229.805 104.93ZM240.773 104.93H233.871L210.103 153.375H217.005L240.773 104.93ZM251.741 104.93H244.839L221.071 153.375H227.973L251.741 104.93ZM262.709 104.93H255.807L232.039 153.375H238.941L262.709 104.93Z" fill="url(#paint4_linear_1383_20086)"/>
<path d="M152.615 122.912C151.835 123.87 151.215 124.124 151.028 124.931C150.84 125.73 152.446 126.772 152.971 125.636C154.408 122.527 154.887 123.56 154.887 123.56L152.615 122.912Z" fill="#FFC9C5"/>
<path d="M160.503 120.424C158.578 115.719 156.127 110.686 155.197 110.169C156.418 113.456 158.484 116.855 158.484 116.855L153.563 125.523L152.145 123.391L155.835 115.607C155.835 115.607 150.023 107.174 153.234 103.887C153.234 103.887 153.976 103.164 154.408 102.854C156.793 101.173 159.141 101.248 159.141 101.248C159.141 101.248 166.484 101.586 171.386 115.391C167.189 118.424 165.282 118.63 160.503 120.424Z" fill="#7357E5"/>
<path d="M155.845 101.136C156.314 102.366 157.375 103.69 157.31 104.432C157.235 105.258 155.882 105.803 155.572 105.512C154.718 104.714 154.004 103.145 154.098 103.07C154.248 102.939 155.845 101.136 155.845 101.136Z" fill="#FFC9C5"/>
<path d="M149.619 100.244C151.084 102.535 154.784 105.343 156.117 102.206C157.451 99.0699 155.986 96.2527 155.986 96.2527C155.986 96.2527 145.966 89.7451 149.619 100.244Z" fill="#FFC9C5"/>
<path d="M154.671 100.403C154.455 99.2108 155.845 98.0088 156.108 99.1826C156.408 100.516 155.864 100.469 155.911 100.957C155.967 101.577 156.174 101.737 156.23 101.925C159.038 99.8399 157 93.7267 154.08 92.9848C152.671 92.2899 150.755 91.689 148.727 94.0272C146.962 96.0555 148.154 97.6613 148.52 100.61C152.521 100.047 152.305 98.2623 153.526 98.2623C154.192 98.2623 154.483 100.525 154.671 100.403Z" fill="#391D77"/>
<path d="M158.089 117.287C153.76 112.733 152.924 103.756 152.924 103.756L153.788 103.23C153.788 103.23 155.892 109.86 156.418 110.085C157.554 110.573 158.878 109.174 158.878 109.174C158.07 106.855 157.526 104.329 157.366 101.493L158.38 101.126C160.193 109.437 163.075 109.615 166.4 114.442L170.071 111.334C170.071 111.334 171.846 112.602 172.475 118.508C173.264 126.002 174.447 133.139 174.447 133.139L180.542 151.046L176.983 151.76L169.339 134.782L165.339 122.865L163.958 135.223L164.615 152.286H160.775L158.38 135.007C158.38 135.007 159.338 127.861 159.592 120.217C158.643 116.593 159.141 118.386 158.089 117.287Z" fill="url(#paint5_linear_1383_20086)"/>
<path d="M176.992 151.76C176.992 151.76 171.057 154.934 171.396 155.666C171.734 156.399 181.612 153.986 181.894 153.413C182.176 152.84 180.542 151.056 180.542 151.056L176.992 151.76Z" fill="#391D77"/>
<path d="M164.616 152.286H160.775C160.775 152.286 154.85 154.615 155.113 155.253C155.385 155.892 164.897 155.366 165.198 154.727C165.508 154.089 164.616 152.286 164.616 152.286Z" fill="#391D77"/>
<path d="M157.469 97.0603C151.967 98.3468 147.882 99.4361 147.882 99.4361C147.431 99.5018 146.689 93.7267 150.727 92.5434C156.408 90.8907 157.469 97.0603 157.469 97.0603Z" fill="#FFAE02"/>
<path d="M147.562 98.4689C144.013 103.098 152.183 99.0511 152.868 98.1684L147.562 98.4689Z" fill="#FFAE02"/>
<path d="M158.653 147.91H148.511L146.389 134.406H160.775L158.653 147.91Z" fill="url(#paint6_linear_1383_20086)"/>
<path d="M160.775 134.744C160.643 134.744 160.512 134.669 160.456 134.528C160.418 134.444 156.868 125.974 153.385 125.974C149.91 125.974 146.745 134.435 146.717 134.519C146.652 134.697 146.454 134.791 146.276 134.726C146.098 134.66 146.004 134.463 146.069 134.284C146.201 133.918 149.431 125.288 153.385 125.288C157.329 125.288 160.944 133.899 161.094 134.265C161.169 134.444 161.085 134.641 160.906 134.716C160.869 134.744 160.822 134.744 160.775 134.744Z" fill="#B598FC"/>
<path d="M154.737 123.495C153.957 124.452 152.718 124.715 152.53 125.523C152.342 126.321 153.319 128.077 154.812 126.424C157.103 123.88 155.864 125.082 155.864 125.082L154.737 123.495Z" fill="#FFC9C5"/>
<path d="M159.132 101.258C167.592 101.68 164.681 116.386 163.714 117.87C162.747 119.353 155.216 126.096 155.216 126.096L154.004 124.143C154.004 124.143 158.897 117.898 159.836 116.189C160.615 114.79 160.484 105.878 160.484 105.878L159.132 101.258Z" fill="#7357E5"/>
<path d="M60.5687 155.807H50.4269L48.3047 142.304H62.691L60.5687 155.807Z" fill="url(#paint7_linear_1383_20086)"/>
<path d="M49.4879 150.154C48.6991 150.154 48.0887 149.863 47.685 149.29C46.2576 147.29 47.9103 142.398 47.9855 142.191C48.0512 142.013 48.2484 141.919 48.4174 141.975C48.5958 142.041 48.6897 142.229 48.6334 142.416C48.1827 143.74 47.2248 147.478 48.2484 148.896C48.5207 149.281 48.9339 149.469 49.4973 149.469C53.0939 149.469 62.3905 142.107 62.4844 142.031C62.6347 141.909 62.8506 141.938 62.9633 142.088C63.0854 142.238 63.0572 142.454 62.907 142.567C62.522 142.877 53.3287 150.154 49.4879 150.154Z" fill="#B598FC"/>
<path d="M53.1503 155.807C53.0751 155.807 53 155.798 52.9249 155.779C52.4366 155.657 52.1361 155.159 52.2582 154.671L77.4905 53.0282C77.6125 52.5399 78.1102 52.2394 78.5985 52.3615C79.0868 52.4836 79.3873 52.9813 79.2653 53.4696L54.0424 155.103C53.9391 155.526 53.5634 155.807 53.1503 155.807Z" fill="#423BAA"/>
<path d="M73.2648 155.807C73.1896 155.807 73.1145 155.798 73.0394 155.779C72.5511 155.657 72.2506 155.159 72.3727 154.671L97.605 53.0376C97.727 52.5493 98.2247 52.2488 98.713 52.3709C99.2013 52.493 99.5018 52.9907 99.3798 53.479L74.1569 155.103C74.0536 155.526 73.6779 155.807 73.2648 155.807Z" fill="#423BAA"/>
<path d="M77.2651 138.36L57.2915 138.294L57.3009 136.463L77.2745 136.529L77.2651 138.36ZM80.4767 125.42L60.5031 125.354L60.5125 123.523L80.4861 123.588L80.4767 125.42ZM83.6788 112.48L63.7052 112.414L63.7146 110.583L83.6882 110.648L83.6788 112.48ZM86.881 99.5394L66.9074 99.4737L66.9168 97.6425L86.8904 97.7082L86.881 99.5394ZM90.0832 86.5993L70.1096 86.5335L70.1189 84.7024L90.0926 84.7681L90.0832 86.5993ZM93.2853 73.6592L73.3117 73.5934L73.3211 71.7623L93.2947 71.828L93.2853 73.6592ZM96.4875 60.719L76.5139 60.6533L76.5233 58.8221L96.4969 58.8879L96.4875 60.719Z" fill="#423BAA"/>
<path d="M83.6318 65.8369C84.862 65.3486 85.5193 64.0339 86.7964 64.2217C87.5007 64.325 87.2096 66.3721 86.1391 67.4802C85.8856 67.7432 83.8854 68.3535 83.8854 68.3535L83.6318 65.8369Z" fill="#FFC9C5"/>
<path d="M84.5896 65.1889C84.5896 65.1889 80.1761 67.1515 77.7721 67.1515C76.1382 67.1515 74.5981 58.3995 71.1236 58.3995C70.7856 60.5312 71.3114 62.4375 70.7104 64.5128C71.9969 67.8088 73.9877 71.4523 75.7719 71.9407C77.7721 72.4853 84.5896 68.3723 84.5896 68.3723V65.1889Z" fill="#7357E5"/>
<path d="M74.3821 69.6776C73.753 69.8936 72.9172 69.4241 73.1708 68.6165C74.2131 65.3298 73.4994 60.2308 71.7246 58.8034C69.8183 57.2634 67.0763 57.6108 64.8977 58.1742C62.2308 60.8224 64.4564 69.4147 64.1934 78.9179C69.7151 78.5516 69.7432 80.3077 74.8986 78.5235C73.9971 75.603 74.0722 72.2506 74.3821 69.6776Z" fill="#7357E5"/>
<path d="M66.5694 121.241C66.5694 121.241 73.5278 123.11 73.3494 123.955C73.1709 124.8 62.2873 124.678 61.8554 124.152C61.4234 123.626 62.6911 121.363 62.6911 121.363L66.5694 121.241Z" fill="#391D77"/>
<path d="M74.0536 107.54L77.6313 108.338C77.6313 108.338 82.5426 110.01 82.2515 110.695C81.9604 111.371 73.9972 111.212 73.6685 110.526C73.3399 109.841 74.0536 107.54 74.0536 107.54Z" fill="#391D77"/>
<path d="M67.978 55.4791C67.9592 56.7468 67.8935 56.8783 67.6587 57.6014C68.4287 58.6719 69.8279 59.6861 70.335 59.5828C70.8421 59.4795 70.2317 58.6531 70.2317 58.5592C70.2223 57.4511 70.4477 56.9534 70.7106 55.8829" fill="#FFC9C5"/>
<path d="M75.049 75.218C74.6264 70.3725 74.063 65.142 73.5277 63.1136C72.7859 60.2965 71.1237 58.3902 70.7951 58.1648C70.7951 58.1648 70.5979 57.9864 70.2598 57.9113C70.4101 57.8925 72.8046 63.7991 72.5793 63.8461C71.9595 63.9681 71.3867 63.94 70.7105 63.893C70.7293 63.7522 69.7809 59.5922 67.6586 57.6014C67.5459 57.6296 67.2079 57.6953 67.1046 57.7892C67.7056 57.808 68.9076 61.705 69.7809 65.4518C70.457 68.3629 69.687 72.7013 69.687 72.7013L63.893 73.4807C63.893 73.4807 63.8085 77.8661 63.8367 80.101C63.8085 84.3549 68.9357 101.202 68.9357 101.202L62.7004 121.354L66.5787 121.231L75.2086 101.934C75.2086 101.934 75.6124 94.4216 74.3353 85.4442C75.988 86.881 79.3686 90.1395 80.2231 90.9283C79.331 93.3417 74.0536 107.54 74.0536 107.54L77.6314 108.338C77.6314 108.338 87.4538 91.041 87.3599 89.4822C84.0263 83.4253 75.0584 75.2274 75.049 75.218Z" fill="url(#paint8_linear_1383_20086)"/>
<path d="M77.9224 97.8021C77.866 97.8021 77.8191 97.7927 77.7627 97.7833C77.3965 97.6988 77.1617 97.3232 77.2462 96.957L90.1488 41.506C90.1864 41.337 90.1112 41.2149 90.0737 41.1492C90.0267 41.0928 89.9234 40.9895 89.745 40.9895H82.7585C82.2702 40.9895 81.81 40.8017 81.4626 40.4543C81.1151 40.1068 80.9273 39.6467 80.9367 39.1584L80.9555 37.4963C80.9649 36.1065 82.1105 34.9796 83.4909 34.9796C83.8666 34.9796 84.1764 35.2895 84.1764 35.6651C84.1764 36.0407 83.8666 36.3506 83.4909 36.3506C82.8524 36.3506 82.3359 36.8671 82.3265 37.5057L82.3077 39.1678C82.3077 39.2899 82.3547 39.4025 82.4392 39.4871C82.5237 39.5716 82.6364 39.6185 82.7585 39.6185H89.745C90.2991 39.6185 90.8061 39.8627 91.1442 40.2946C91.4823 40.7266 91.6137 41.2806 91.4823 41.8159L78.5797 97.2669C78.514 97.5955 78.2323 97.8021 77.9224 97.8021Z" fill="#B598FC"/>
<path d="M97.9711 38.7171H85.1906C84.383 38.7171 83.7163 38.0597 83.7163 37.2428V34.0594C83.7163 33.2518 84.3736 32.5851 85.1906 32.5851H97.9711C98.7787 32.5851 99.4454 33.2424 99.4454 34.0594V37.2428C99.4454 38.0504 98.7881 38.7171 97.9711 38.7171Z" fill="#7357E5"/>
<path d="M73.6685 50.9999C73.6309 54.0612 71.7622 58.9349 68.6258 56.7281C65.4894 54.5213 65.217 50.9717 65.217 50.9717C65.217 50.9717 70.9359 38.8016 73.6685 50.9999Z" fill="#FFC9C5"/>
<path d="M67.9968 51.7605C67.0295 52.2488 67.4521 53.8639 68.1001 54.1738C68.194 54.2208 68.3066 54.2583 68.3442 54.3616C68.363 54.418 68.3536 54.4931 68.3348 54.5494C68.2034 55.0847 68.3348 55.8735 67.8371 56.1271C65.6304 55.0471 65.2735 53.4789 65.0012 51.9107C64.8885 51.2628 64.8322 50.5867 65.02 49.9575C65.2078 49.3095 65.6304 48.7555 66.0435 48.2202C66.4661 47.6756 66.9262 47.0934 67.5836 46.8774C67.8935 46.7741 68.2221 46.7553 68.5508 46.7459C69.5838 46.699 70.6073 46.652 71.6403 46.6051C71.8938 46.5957 72.1568 46.5863 72.3915 46.6614C72.8235 46.7929 73.1334 47.1873 73.3775 47.5723C74.0349 48.5959 74.4856 49.7509 74.7016 50.9529C74.7204 51.075 74.7391 51.197 74.6828 51.3097C74.6265 51.413 74.5232 51.4694 74.4199 51.5163C73.9222 51.7229 73.3587 51.8356 72.8235 51.7886C68.917 51.413 69.4241 53.6573 69.4241 53.6573C69.4241 53.6573 68.8137 51.3379 67.9968 51.7605Z" fill="#391D77"/>
<path d="M64.926 53.817C70.7669 51.3097 75.1992 49.5725 75.1992 49.5725C75.65 49.3377 72.4666 43.6001 68.0249 45.2341C61.7708 47.5253 64.926 53.817 64.926 53.817Z" fill="#FFAE02"/>
<path d="M74.8423 48.4832C81.1433 50.305 71.0485 52.0892 69.8372 51.7511L74.8423 48.4832Z" fill="#FFAE02"/>
<path d="M80.5237 74.8799C81.8478 74.9644 82.9558 74.185 83.7165 74.617C84.4865 75.0489 86.3552 77.3496 82.6929 77.2651C79.0306 77.1806 79.6692 77.2651 79.6692 77.2651L80.5237 74.8799Z" fill="#FFC9C5"/>
<path d="M66.4661 57.9019C65.2265 57.8174 63.4893 58.6062 63.1042 59.5922C61.3858 64.0245 63.2451 73.3962 63.8649 74.8142C65.2171 77.9037 80.2138 77.2182 80.2138 77.2182L81.0589 74.4855C81.0589 74.4855 69.0391 73.3587 67.6586 72.3445C67.114 71.9501 68.1282 58.0146 66.4661 57.9019Z" fill="#7357E5"/>
<path opacity="0.31" d="M227.626 72.1473H186.251C184.42 72.1473 182.937 70.6636 182.937 68.8324V46.7084C182.937 44.8773 184.42 43.3936 186.251 43.3936H227.626C229.457 43.3936 230.941 44.8773 230.941 46.7084V68.8324C230.941 70.6636 229.457 72.1473 227.626 72.1473Z" fill="#D6BDF1"/>
<path d="M225.306 70.6073H183.932C182.101 70.6073 180.617 69.1236 180.617 67.2924V45.1684C180.617 43.3372 182.101 41.8535 183.932 41.8535H225.306C227.138 41.8535 228.621 43.3372 228.621 45.1684V67.2924C228.621 69.1236 227.138 70.6073 225.306 70.6073Z" fill="#FFFDFE"/>
<path d="M183.782 62.4281V50.0232C183.782 49.1781 184.458 48.502 185.303 48.502C188.261 48.502 194.759 48.502 197.717 48.502C198.562 48.502 199.239 49.1875 199.239 50.0232V62.4281C199.239 63.2638 198.562 63.9493 197.717 63.9493C194.759 63.9493 188.261 63.9493 185.303 63.9493C184.458 63.9493 183.782 63.2732 183.782 62.4281Z" fill="#F1EBFF"/>
<path d="M225.062 51.7981H202.149C201.924 51.7981 201.746 51.6196 201.746 51.3943C201.746 51.1689 201.924 50.9905 202.149 50.9905H225.062C225.288 50.9905 225.466 51.1689 225.466 51.3943C225.466 51.6196 225.288 51.7981 225.062 51.7981ZM225.466 53.8076C225.466 53.5823 225.288 53.4038 225.062 53.4038H202.149C201.924 53.4038 201.746 53.5823 201.746 53.8076C201.746 54.033 201.924 54.2114 202.149 54.2114H225.062C225.288 54.2114 225.466 54.033 225.466 53.8076ZM225.466 56.2304C225.466 56.005 225.288 55.8266 225.062 55.8266H202.149C201.924 55.8266 201.746 56.005 201.746 56.2304C201.746 56.4558 201.924 56.6342 202.149 56.6342H225.062C225.288 56.6342 225.466 56.4464 225.466 56.2304ZM225.466 58.6437C225.466 58.4184 225.288 58.24 225.062 58.24H202.149C201.924 58.24 201.746 58.4184 201.746 58.6437C201.746 58.8691 201.924 59.0475 202.149 59.0475H225.062C225.288 59.0475 225.466 58.8691 225.466 58.6437ZM225.466 61.0571C225.466 60.8317 225.288 60.6533 225.062 60.6533H202.149C201.924 60.6533 201.746 60.8317 201.746 61.0571C201.746 61.2825 201.924 61.4609 202.149 61.4609H225.062C225.288 61.4609 225.466 61.2825 225.466 61.0571Z" fill="#F1EBFF"/>
<path d="M261.62 158.399H9.25895C8.49832 158.399 7.88794 157.779 7.88794 157.028C7.88794 156.277 8.50771 155.657 9.25895 155.657H261.62C262.38 155.657 262.991 156.277 262.991 157.028C262.991 157.779 262.38 158.399 261.62 158.399Z" fill="#E4D4F4"/>
<defs>
<linearGradient id="paint0_linear_1383_20086" x1="135.612" y1="21.3752" x2="135.612" y2="231.859" gradientUnits="userSpaceOnUse">
<stop offset="0.00060096" stop-color="#ABB4FC"/>
<stop offset="1" stop-color="#7765FC"/>
</linearGradient>
<linearGradient id="paint1_linear_1383_20086" x1="192.467" y1="127.235" x2="192.467" y2="164.473" gradientUnits="userSpaceOnUse">
<stop stop-color="#FFC504"/>
<stop offset="0.2528" stop-color="#FFB504"/>
<stop offset="0.7431" stop-color="#FF8C05"/>
<stop offset="1" stop-color="#FF7406"/>
</linearGradient>
<linearGradient id="paint2_linear_1383_20086" x1="37.7688" y1="127.235" x2="37.7688" y2="164.473" gradientUnits="userSpaceOnUse">
<stop stop-color="#FFC504"/>
<stop offset="0.2528" stop-color="#FFB504"/>
<stop offset="0.7431" stop-color="#FF8C05"/>
<stop offset="1" stop-color="#FF7406"/>
</linearGradient>
<linearGradient id="paint3_linear_1383_20086" x1="188.159" y1="129.157" x2="262.708" y2="129.157" gradientUnits="userSpaceOnUse">
<stop stop-color="#FFC504"/>
<stop offset="0.2528" stop-color="#FFB504"/>
<stop offset="0.7431" stop-color="#FF8C05"/>
<stop offset="1" stop-color="#FF7406"/>
</linearGradient>
<linearGradient id="paint4_linear_1383_20086" x1="188.159" y1="129.157" x2="262.708" y2="129.157" gradientUnits="userSpaceOnUse">
<stop stop-color="#FFC504"/>
<stop offset="0.2528" stop-color="#FFB504"/>
<stop offset="0.7431" stop-color="#FF8C05"/>
<stop offset="1" stop-color="#FF7406"/>
</linearGradient>
<linearGradient id="paint5_linear_1383_20086" x1="159.156" y1="105.577" x2="170.998" y2="151.959" gradientUnits="userSpaceOnUse">
<stop stop-color="#FFC504"/>
<stop offset="0.2528" stop-color="#FFB504"/>
<stop offset="0.7431" stop-color="#FF8C05"/>
<stop offset="1" stop-color="#FF7406"/>
</linearGradient>
<linearGradient id="paint6_linear_1383_20086" x1="153.584" y1="150.794" x2="153.584" y2="133.11" gradientUnits="userSpaceOnUse">
<stop stop-color="#4F2CA0"/>
<stop offset="1" stop-color="#8149ED"/>
</linearGradient>
<linearGradient id="paint7_linear_1383_20086" x1="55.5003" y1="161.692" x2="55.5003" y2="141.757" gradientUnits="userSpaceOnUse">
<stop stop-color="#4F2CA0"/>
<stop offset="1" stop-color="#8149ED"/>
</linearGradient>
<linearGradient id="paint8_linear_1383_20086" x1="74.8092" y1="51.5878" x2="75.0511" y2="112.303" gradientUnits="userSpaceOnUse">
<stop stop-color="#FFC504"/>
<stop offset="0.2528" stop-color="#FFB504"/>
<stop offset="0.7431" stop-color="#FF8C05"/>
<stop offset="1" stop-color="#FF7406"/>
</linearGradient>
</defs>
</svg>
