<svg width="152" height="94" viewBox="0 0 152 94" fill="none" xmlns="http://www.w3.org/2000/svg">
<ellipse cx="74.4669" cy="92.243" rx="74.4669" ry="1.75701" fill="#F2F2F8"/>
<path d="M116.375 90.8215C114.429 89.1753 113.247 86.5748 113.557 84.0432C113.867 81.5116 115.787 79.1843 118.277 78.6467C120.768 78.1091 123.607 79.5973 124.363 82.0328C124.779 77.3372 125.259 72.4448 127.753 68.4461C130.011 64.8253 133.922 62.2346 138.16 61.7711C142.399 61.3076 146.861 63.0581 149.505 66.4073C152.148 69.7564 152.795 74.6253 150.944 78.4704C149.58 81.3029 147.068 83.4109 144.435 85.1259C135.928 90.6209 125.725 92.8555 115.703 91.4185L116.375 90.8215Z" fill="#CFE6FC"/>
<path d="M145.314 63.1551C141.816 66.0068 138.608 69.1963 135.735 72.6774C131.239 78.1066 127.6 84.1937 124.946 90.7267C124.752 91.2033 125.525 91.4107 125.717 90.9394C130.059 80.322 136.991 70.9639 145.879 63.721C146.278 63.3956 145.71 62.8324 145.314 63.1551Z" fill="#A4CDF8"/>
<path d="M48.9313 90.3742C51.6041 88.1132 53.2277 84.5414 52.8019 81.0643C52.3761 77.5872 49.7391 74.3906 46.3184 73.6522C42.8977 72.9138 38.9984 74.9578 37.9594 78.303C37.3876 71.8536 36.7287 65.134 33.3036 59.6417C30.2022 54.6686 24.8306 51.1101 19.009 50.4735C13.1873 49.8369 7.05791 52.2413 3.42718 56.8413C-0.203557 61.4414 -1.09253 68.1288 1.45034 73.41C3.32359 77.3005 6.77477 80.1958 10.3907 82.5514C21.9269 90.0662 36.2376 93.2004 49.8544 91.1943" fill="#CFE5FC"/>
<path d="M9.18502 52.3745C13.9886 56.2914 18.3953 60.6721 22.3416 65.4534C26.2884 70.2297 29.7632 75.378 32.7171 80.826C34.3682 83.8821 35.8514 87.0261 37.1601 90.244C37.4269 90.8986 36.3652 91.1836 36.1013 90.5363C33.7832 84.863 30.9153 79.4309 27.5388 74.3177C24.1786 69.2231 20.3327 64.4668 16.0551 60.1156C13.6357 57.6558 11.083 55.331 8.40859 53.1518C7.86042 52.7049 8.64137 51.9313 9.18502 52.3745L9.18502 52.3745Z" fill="#A4CDF8"/>
<path d="M109.108 90.7763H45.3375V25.274C45.3375 11.3378 56.6628 0 70.5835 0H83.8618C97.7825 0 109.108 11.3378 109.108 25.274V90.7763Z" fill="#DDEDFD"/>
<path d="M95.8296 90.7762H45.3376V25.2739C45.3237 19.9339 47.0128 14.7288 50.1589 10.4166C50.2749 10.2583 50.3906 10.1021 50.5099 9.94765C52.0317 7.94953 53.8426 6.18982 55.883 4.7266C55.9983 4.64264 56.114 4.56014 56.2314 4.47765C57.9388 3.29483 59.7856 2.3279 61.73 1.59887C61.8455 1.55505 61.9631 1.51115 62.0806 1.46905C63.8391 0.840799 65.662 0.410452 67.5156 0.185951C67.6306 0.170236 67.7485 0.157938 67.8665 0.145641C69.6729 -0.0477128 71.4947 -0.0477128 73.301 0.145641C73.4187 0.157938 73.5367 0.170234 73.6529 0.186119C75.5061 0.410634 77.3285 0.84093 79.0866 1.46906C79.2042 1.51116 79.3217 1.55506 79.4375 1.59896C81.3579 2.31879 83.1831 3.27129 84.8722 4.4352C84.9896 4.51591 85.107 4.59841 85.2228 4.68091C86.3665 5.4982 87.4407 6.40871 88.4346 7.40315C89.2316 8.20079 89.9743 9.05104 90.6577 9.94817C90.7766 10.1021 90.8923 10.2584 91.0081 10.4163C94.1544 14.7286 95.8435 19.9338 95.8296 25.2739V90.7762Z" fill="#0B75E5"/>
<path d="M91.7247 61.4796C93.2686 61.4796 94.5201 60.2266 94.5201 58.6811C94.5201 57.1355 93.2686 55.8826 91.7247 55.8826C90.1809 55.8826 88.9293 57.1355 88.9293 58.6811C88.9293 60.2266 90.1809 61.4796 91.7247 61.4796Z" fill="white"/>
<path d="M81.9402 71.7989H59.2276C58.9284 71.8005 58.6409 71.6833 58.428 71.4729C58.2151 71.2626 58.0942 70.9763 58.0919 70.6768V19.9244C58.0942 19.625 58.2151 19.3387 58.428 19.1283C58.6409 18.918 58.9284 18.8007 59.2276 18.8023H81.9402C82.2393 18.8007 82.5269 18.918 82.7398 19.1283C82.9527 19.3387 83.0735 19.625 83.0758 19.9244V70.6768C83.0735 70.9763 82.9527 71.2626 82.7398 71.4729C82.5269 71.6833 82.2393 71.8005 81.9402 71.7989Z" fill="white"/>
<path d="M83.0758 35.2243H58.0919V35.5741H83.0758V35.2243Z" fill="#DBDBDB"/>
<path d="M83.1631 55.183H58.1792V55.5328H83.1631V55.183Z" fill="#DBDBDB"/>
<path d="M66.3048 18.8025H65.9541V71.974H66.3048V18.8025Z" fill="#DBDBDB"/>
<path d="M75.0398 18.8025H74.6891V71.974H75.0398V18.8025Z" fill="#DBDBDB"/>
</svg>
