<svg width="11" height="11" viewBox="0 0 11 11" fill="none" xmlns="http://www.w3.org/2000/svg">
<path fill-rule="evenodd" clip-rule="evenodd" d="M6.39469 2.46258L8.60752 5.21258C8.74456 5.38262 8.74227 5.62553 8.60248 5.79328L6.31081 8.54328C6.22006 8.65191 6.0899 8.70828 5.95835 8.70828C5.85523 8.70828 5.75119 8.67345 5.66548 8.60195C5.47069 8.44016 5.44456 8.15095 5.60681 7.95662L7.65831 5.49491L5.68015 3.03733C5.52156 2.84024 5.55273 2.55149 5.75027 2.39291C5.94735 2.23387 6.23565 2.26549 6.39469 2.46258ZM2.54189 2.39314C2.73897 2.23455 3.02727 2.26572 3.18631 2.4628L5.39914 5.2128C5.53572 5.38284 5.53389 5.62576 5.3941 5.79351L3.10243 8.54351C3.01168 8.65214 2.88152 8.70851 2.74997 8.70851C2.64685 8.70851 2.54281 8.67368 2.4571 8.60218C2.26231 8.44039 2.23618 8.15118 2.39843 7.95684L4.44947 5.49514L2.47177 3.03755C2.31318 2.84047 2.34481 2.55172 2.54189 2.39314Z" fill="#0180F5"/>
<mask id="mask0_1089_8383" style="mask-type:alpha" maskUnits="userSpaceOnUse" x="2" y="2" width="7" height="7">
<path fill-rule="evenodd" clip-rule="evenodd" d="M6.39469 2.46258L8.60752 5.21258C8.74456 5.38262 8.74227 5.62553 8.60248 5.79328L6.31081 8.54328C6.22006 8.65191 6.0899 8.70828 5.95835 8.70828C5.85523 8.70828 5.75119 8.67345 5.66548 8.60195C5.47069 8.44016 5.44456 8.15095 5.60681 7.95662L7.65831 5.49491L5.68015 3.03733C5.52156 2.84024 5.55273 2.55149 5.75027 2.39291C5.94735 2.23387 6.23565 2.26549 6.39469 2.46258ZM2.54189 2.39314C2.73897 2.23455 3.02727 2.26572 3.18631 2.4628L5.39914 5.2128C5.53572 5.38284 5.53389 5.62576 5.3941 5.79351L3.10243 8.54351C3.01168 8.65214 2.88152 8.70851 2.74997 8.70851C2.64685 8.70851 2.54281 8.67368 2.4571 8.60218C2.26231 8.44039 2.23618 8.15118 2.39843 7.95684L4.44947 5.49514L2.47177 3.03755C2.31318 2.84047 2.34481 2.55172 2.54189 2.39314Z" fill="white"/>
</mask>
<g mask="url(#mask0_1089_8383)">
<rect width="11" height="11" fill="#0180F5"/>
</g>
</svg>
