<svg width="20" height="20" viewBox="0 0 20 20" fill="none" xmlns="http://www.w3.org/2000/svg">
<path d="M18.3333 14.5833H12.5" stroke="#0180F5" stroke-width="1.5" stroke-miterlimit="10" stroke-linecap="round" stroke-linejoin="round"/>
<path d="M4.16797 14.5833H1.66797" stroke="#0180F5" stroke-width="1.5" stroke-miterlimit="10" stroke-linecap="round" stroke-linejoin="round"/>
<path d="M18.332 5.41675H15.832" stroke="#0180F5" stroke-width="1.5" stroke-miterlimit="10" stroke-linecap="round" stroke-linejoin="round"/>
<path d="M7.5013 5.41675H1.66797" stroke="#0180F5" stroke-width="1.5" stroke-miterlimit="10" stroke-linecap="round" stroke-linejoin="round"/>
<path d="M5.83464 12.0833H10.8346C11.7513 12.0833 12.5013 12.4999 12.5013 13.7499V15.4166C12.5013 16.6666 11.7513 17.0833 10.8346 17.0833H5.83464C4.91797 17.0833 4.16797 16.6666 4.16797 15.4166V13.7499C4.16797 12.4999 4.91797 12.0833 5.83464 12.0833Z" stroke="#0180F5" stroke-width="1.5" stroke-miterlimit="10" stroke-linecap="round" stroke-linejoin="round"/>
<path d="M9.16667 2.91675H14.1667C15.0833 2.91675 15.8333 3.33341 15.8333 4.58341V6.25008C15.8333 7.50008 15.0833 7.91675 14.1667 7.91675H9.16667C8.25 7.91675 7.5 7.50008 7.5 6.25008V4.58341C7.5 3.33341 8.25 2.91675 9.16667 2.91675Z" stroke="#0180F5" stroke-width="1.5" stroke-miterlimit="10" stroke-linecap="round" stroke-linejoin="round"/>
</svg>
