<svg width="20" height="20" viewBox="0 0 20 20" fill="none" xmlns="http://www.w3.org/2000/svg">
<path fill-rule="evenodd" clip-rule="evenodd" d="M13.3329 9.99999C13.3329 10.19 13.2687 10.3792 13.1396 10.5333L8.97291 15.5333C8.67875 15.8867 8.15291 15.935 7.79958 15.64C7.44625 15.3458 7.39875 14.8208 7.69291 14.4667L11.4229 9.99083L7.82708 5.52249C7.53875 5.16416 7.59541 4.63916 7.95375 4.35083C8.31208 4.06249 8.83625 4.11916 9.12541 4.47749L13.1487 9.47749C13.2712 9.62999 13.3329 9.81499 13.3329 9.99999Z" fill="#0180F5"/>
<mask id="mask0_1117_10300" style="mask-type:alpha" maskUnits="userSpaceOnUse" x="7" y="4" width="7" height="12">
<path fill-rule="evenodd" clip-rule="evenodd" d="M13.3329 9.99999C13.3329 10.19 13.2687 10.3792 13.1396 10.5333L8.97291 15.5333C8.67875 15.8867 8.15291 15.935 7.79958 15.64C7.44625 15.3458 7.39875 14.8208 7.69291 14.4667L11.4229 9.99083L7.82708 5.52249C7.53875 5.16416 7.59541 4.63916 7.95375 4.35083C8.31208 4.06249 8.83625 4.11916 9.12541 4.47749L13.1487 9.47749C13.2712 9.62999 13.3329 9.81499 13.3329 9.99999Z" fill="white"/>
</mask>
<g mask="url(#mask0_1117_10300)">
<rect y="20" width="20" height="20" transform="rotate(-90 0 20)" fill="#0180F5"/>
</g>
</svg>
