<svg width="20" height="21" viewBox="0 0 20 21" fill="none" xmlns="http://www.w3.org/2000/svg">
<path fill-rule="evenodd" clip-rule="evenodd" d="M9.99927 13.7743C9.80927 13.7743 9.62011 13.7104 9.46594 13.5818L4.46594 9.43276C4.11261 9.13983 4.06427 8.61622 4.35927 8.26438C4.65344 7.91254 5.17844 7.86524 5.53261 8.15816L10.0084 11.8724L14.4768 8.29176C14.8351 8.00465 15.3601 8.06107 15.6484 8.41789C15.9368 8.77471 15.8801 9.29667 15.5218 9.58461L10.5218 13.591C10.3693 13.7129 10.1843 13.7743 9.99927 13.7743Z" fill="#0180F5"/>
<mask id="mask0_1117_10447" style="mask-type:alpha" maskUnits="userSpaceOnUse" x="4" y="7" width="12" height="7">
<path fill-rule="evenodd" clip-rule="evenodd" d="M9.99927 13.7743C9.80927 13.7743 9.62011 13.7104 9.46594 13.5818L4.46594 9.43276C4.11261 9.13983 4.06427 8.61622 4.35927 8.26438C4.65344 7.91254 5.17844 7.86524 5.53261 8.15816L10.0084 11.8724L14.4768 8.29176C14.8351 8.00465 15.3601 8.06107 15.6484 8.41789C15.9368 8.77471 15.8801 9.29667 15.5218 9.58461L10.5218 13.591C10.3693 13.7129 10.1843 13.7743 9.99927 13.7743Z" fill="white"/>
</mask>
<g mask="url(#mask0_1117_10447)">
<rect y="0.497314" width="20" height="19.9155" fill="#0180F5"/>
</g>
</svg>
