<svg width="276" height="168" viewBox="0 0 276 168" fill="none" xmlns="http://www.w3.org/2000/svg">
<path d="M242.782 97.9764C242.782 108.112 234.836 116.397 224.809 116.996C224.756 117 224.702 117.004 224.649 117.004C224.319 117.017 223.989 117.029 223.655 117.029C223.379 117.029 223.103 117.021 222.831 117.013C222.773 117.008 222.716 117.008 222.658 117.004C212.561 116.487 204.528 108.166 204.528 97.9764C204.528 87.4546 213.092 78.9238 223.655 78.9238C234.218 78.9238 242.782 87.4546 242.782 97.9764Z" fill="#EFEFEF"/>
<path d="M223.754 92.0853L225.258 157.49H222.056L223.565 92.0853H223.754Z" fill="#DBD7D7"/>
<path d="M209.313 99.7375L224.348 113.929L223.231 113.917L237.956 100.6L238.047 100.694L224.331 115.042L223.767 115.633L223.218 115.026L209.313 99.7375Z" fill="#DBD7D7"/>
<path d="M217.358 96.0223L224.15 101.971H223.33L229.932 96.1578L229.986 96.2111L224.15 102.788L223.742 103.252L223.33 102.788L217.358 96.0223Z" fill="#DBD7D7"/>
<path d="M71.1791 80.0979H31.3384V156.731H71.1791V80.0979Z" fill="#EFEFEF"/>
<path d="M68.1541 86.6664H35.7318V98.4362H68.1541V86.6664Z" fill="#FEFEFE"/>
<path d="M68.1541 106.097H35.7318V117.866H68.1541V106.097Z" fill="#FEFEFE"/>
<path d="M32.6408 81.465C32.2987 81.465 32.0226 81.1899 32.0226 80.8492V75.7176C32.0226 75.3769 32.2987 75.1018 32.6408 75.1018H71.175C71.5171 75.1018 71.7932 75.3769 71.7932 75.7176C71.7932 76.0583 71.5171 76.3334 71.175 76.3334H33.259V80.8492C33.259 81.1899 32.9828 81.465 32.6408 81.465Z" fill="#EFEFEF"/>
<path d="M35.8018 82.0151C35.4597 82.0151 35.1836 81.74 35.1836 81.3993V75.7217C35.1836 75.3809 35.4597 75.1059 35.8018 75.1059C36.1439 75.1059 36.42 75.3809 36.42 75.7217V81.3993C36.42 81.74 36.1439 82.0151 35.8018 82.0151Z" fill="#EFEFEF"/>
<path d="M39.5811 81.8755C39.239 81.8755 38.9629 81.6004 38.9629 81.2597V75.9926C38.9629 75.6519 39.239 75.3768 39.5811 75.3768C39.9232 75.3768 40.1993 75.6519 40.1993 75.9926V81.2597C40.1993 81.6004 39.9232 81.8755 39.5811 81.8755Z" fill="#EFEFEF"/>
<path d="M43.4963 82.0807C43.1542 82.0807 42.8781 81.8057 42.8781 81.4649V75.9926C42.8781 75.6519 43.1542 75.3768 43.4963 75.3768C43.8384 75.3768 44.1145 75.6519 44.1145 75.9926V81.4649C44.1145 81.8057 43.8384 82.0807 43.4963 82.0807Z" fill="#EFEFEF"/>
<path d="M47.9597 82.0151C47.6176 82.0151 47.3415 81.74 47.3415 81.3993V75.9269C47.3415 75.5862 47.6176 75.3112 47.9597 75.3112C48.3018 75.3112 48.5779 75.5862 48.5779 75.9269V81.3993C48.5779 81.74 48.3018 82.0151 47.9597 82.0151Z" fill="#EFEFEF"/>
<path d="M51.5988 81.6045C51.2567 81.6045 50.9806 81.3295 50.9806 80.9887V76.1979C50.9806 75.8571 51.2567 75.5821 51.5988 75.5821C51.9409 75.5821 52.217 75.8571 52.217 76.1979V80.9887C52.217 81.3295 51.9409 81.6045 51.5988 81.6045Z" fill="#EFEFEF"/>
<path d="M55.172 81.8755C54.8299 81.8755 54.5538 81.6005 54.5538 81.2597V76.0584C54.5538 75.7176 54.8299 75.4426 55.172 75.4426C55.514 75.4426 55.7902 75.7176 55.7902 76.0584V81.2597C55.7902 81.6005 55.514 81.8755 55.172 81.8755Z" fill="#EFEFEF"/>
<path d="M59.8414 81.74C59.4993 81.74 59.2232 81.465 59.2232 81.1242V75.9229C59.2232 75.5821 59.4993 75.3071 59.8414 75.3071C60.1835 75.3071 60.4596 75.5821 60.4596 75.9229V81.1242C60.4596 81.465 60.1835 81.74 59.8414 81.74Z" fill="#EFEFEF"/>
<path d="M63.3445 81.6045C63.0024 81.6045 62.7263 81.3295 62.7263 80.9887V76.3375C62.7263 75.9967 63.0024 75.7217 63.3445 75.7217C63.6866 75.7217 63.9627 75.9967 63.9627 76.3375V80.9887C63.9627 81.3295 63.6866 81.6045 63.3445 81.6045Z" fill="#EFEFEF"/>
<path d="M67.742 81.4649C67.3999 81.4649 67.1238 81.1899 67.1238 80.8492V76.1979C67.1238 75.8571 67.3999 75.5821 67.742 75.5821C68.084 75.5821 68.3602 75.8571 68.3602 76.1979V80.8492C68.3602 81.1899 68.084 81.4649 67.742 81.4649Z" fill="#EFEFEF"/>
<path d="M110.744 56.2874H70.903V156.731H110.744V56.2874Z" fill="#EFEFEF"/>
<path d="M83.543 60.3926H73.7879V70.1098H83.543V60.3926Z" fill="#FEFEFE"/>
<path d="M95.5113 60.3926H85.7562V70.1098H95.5113V60.3926Z" fill="#FEFEFE"/>
<path d="M107.175 60.3926H97.4195V70.1098H107.175V60.3926Z" fill="#FEFEFE"/>
<path d="M83.543 72.1625H73.7879V81.8797H83.543V72.1625Z" fill="#FEFEFE"/>
<path d="M95.5113 72.1625H85.7562V81.8797H95.5113V72.1625Z" fill="#FEFEFE"/>
<path d="M107.175 72.1625H97.4195V81.8797H107.175V72.1625Z" fill="#FEFEFE"/>
<path d="M83.543 83.7927H73.7879V93.5098H83.543V83.7927Z" fill="#FEFEFE"/>
<path d="M95.5113 83.7927H85.7562V93.5098H95.5113V83.7927Z" fill="#FEFEFE"/>
<path d="M107.175 83.7927H97.4195V93.5098H107.175V83.7927Z" fill="#FEFEFE"/>
<path d="M83.543 95.5625H73.7879V105.28H83.543V95.5625Z" fill="#FEFEFE"/>
<path d="M95.5113 95.5625H85.7562V105.28H95.5113V95.5625Z" fill="#FEFEFE"/>
<path d="M107.175 95.5625H97.4195V105.28H107.175V95.5625Z" fill="#FEFEFE"/>
<path d="M83.543 107.328H73.7879V117.045H83.543V107.328Z" fill="#FEFEFE"/>
<path d="M95.5113 107.328H85.7562V117.045H95.5113V107.328Z" fill="#FEFEFE"/>
<path d="M107.175 107.328H97.4195V117.045H107.175V107.328Z" fill="#FEFEFE"/>
<path d="M83.543 118.963H73.7879V128.68H83.543V118.963Z" fill="#FEFEFE"/>
<path d="M95.5113 118.963H85.7562V128.68H95.5113V118.963Z" fill="#FEFEFE"/>
<path d="M107.175 118.963H97.4195V128.68H107.175V118.963Z" fill="#FEFEFE"/>
<path d="M200.506 42.4649H155.184V156.727H200.506V42.4649Z" fill="#EFEFEF"/>
<path d="M169.559 47.1367H158.464V58.1881H169.559V47.1367Z" fill="#FEFEFE"/>
<path d="M183.176 47.1367H172.081V58.1881H183.176V47.1367Z" fill="#FEFEFE"/>
<path d="M196.446 47.1367H185.352V58.1881H196.446V47.1367Z" fill="#FEFEFE"/>
<path d="M169.559 60.524H158.464V71.5754H169.559V60.524Z" fill="#FEFEFE"/>
<path d="M183.176 60.524H172.081V71.5754H183.176V60.524Z" fill="#FEFEFE"/>
<path d="M196.446 60.524H185.352V71.5754H196.446V60.524Z" fill="#FEFEFE"/>
<path d="M169.559 73.7553H158.464V84.8067H169.559V73.7553Z" fill="#FEFEFE"/>
<path d="M183.176 73.7553H172.081V84.8067H183.176V73.7553Z" fill="#FEFEFE"/>
<path d="M196.446 73.7553H185.352V84.8067H196.446V73.7553Z" fill="#FEFEFE"/>
<path d="M169.559 87.1467H158.464V98.1981H169.559V87.1467Z" fill="#FEFEFE"/>
<path d="M183.176 87.1467H172.081V98.1981H183.176V87.1467Z" fill="#FEFEFE"/>
<path d="M196.446 87.1467H185.352V98.1981H196.446V87.1467Z" fill="#FEFEFE"/>
<path d="M169.559 100.534H158.464V111.585H169.559V100.534Z" fill="#FEFEFE"/>
<path d="M183.176 100.534H172.081V111.585H183.176V100.534Z" fill="#FEFEFE"/>
<path d="M196.446 100.534H185.352V111.585H196.446V100.534Z" fill="#FEFEFE"/>
<path d="M169.559 113.765H158.464V124.817H169.559V113.765Z" fill="#FEFEFE"/>
<path d="M183.176 113.765H172.081V124.817H183.176V113.765Z" fill="#FEFEFE"/>
<path d="M196.446 113.765H185.352V124.817H196.446V113.765Z" fill="#FEFEFE"/>
<path d="M247.312 155.023V168H50.3253V150.434H246.026C246.64 151.879 247.081 153.414 247.312 155.023Z" fill="#DFDFDF"/>
<path d="M111.972 151.148C111.972 157.367 110.113 163.16 106.919 168H55.378C52.184 163.164 50.3253 157.371 50.3253 151.148C50.3253 150.91 50.3294 150.668 50.3336 150.434C50.7168 133.807 64.3625 120.445 81.1445 120.445C97.9264 120.445 111.58 133.807 111.96 150.434C111.968 150.668 111.972 150.91 111.972 151.148Z" fill="#DFDFDF"/>
<path d="M175.465 145.786C175.465 153.989 173.017 161.625 168.801 168H100.857C96.6447 161.625 94.1926 153.989 94.1926 145.786C94.1926 145.47 94.1967 145.154 94.2049 144.842C94.7077 122.92 112.701 105.304 134.825 105.304C156.948 105.304 174.946 122.92 175.452 144.842C175.461 145.154 175.465 145.47 175.465 145.786Z" fill="#DFDFDF"/>
<path d="M223.062 154.083C223.062 159.219 221.529 164.006 218.887 168H176.326C173.688 164.006 172.151 159.223 172.151 154.083C172.151 153.886 172.155 153.685 172.159 153.492C172.477 139.76 183.744 128.725 197.604 128.725C211.464 128.725 222.736 139.76 223.054 153.492C223.058 153.689 223.062 153.886 223.062 154.083Z" fill="#DFDFDF"/>
<path d="M247.505 157.725C247.505 158.64 247.439 159.535 247.312 160.418C246.912 163.185 245.906 165.759 244.427 167.996H213.006C211.056 165.048 209.927 161.518 209.927 157.72C209.927 157.577 209.931 157.429 209.931 157.289C209.989 154.859 210.508 152.548 211.407 150.429C214.263 143.717 220.939 139.005 228.712 139.005C236.493 139.005 243.17 143.717 246.026 150.429C246.64 151.875 247.081 153.41 247.312 155.019C247.419 155.762 247.485 156.518 247.501 157.289C247.505 157.433 247.505 157.581 247.505 157.725Z" fill="#DFDFDF"/>
<path d="M98.2726 161.522V167.996H0V159.235H97.6297C97.7781 159.58 97.9017 159.937 98.0089 160.303C98.0872 160.569 98.1531 160.844 98.2026 161.124C98.2314 161.255 98.252 161.386 98.2726 161.522Z" fill="#DFDFDF"/>
<path d="M30.7532 159.592C30.7532 159.83 30.7491 160.069 30.7326 160.303C30.7244 160.578 30.7038 160.853 30.6749 161.124C30.6048 161.875 30.473 162.606 30.2957 163.32C30.1556 163.882 29.9825 164.428 29.7847 164.962C29.3808 166.038 28.8615 167.052 28.2351 167.996H2.52224C1.89992 167.052 1.37652 166.038 0.972629 164.962C0.770685 164.428 0.601711 163.882 0.461587 163.32C0.280249 162.606 0.152488 161.875 0.0783049 161.124C0.0494557 160.853 0.0288492 160.578 0.0206065 160.303C0.00412131 160.069 0 159.83 0 159.592C0 159.473 0.00412131 159.35 0.00824262 159.235C0.0247279 158.496 0.0947901 157.774 0.214308 157.064C0.234915 156.928 0.259642 156.788 0.288492 156.653C1.66089 149.596 7.89643 144.271 15.3766 144.271C18.7478 144.271 21.8635 145.351 24.394 147.182C27.4891 149.415 29.7146 152.774 30.4688 156.653C30.4977 156.788 30.5224 156.928 30.543 157.064C30.6625 157.774 30.7326 158.496 30.7491 159.235C30.7532 159.35 30.7532 159.473 30.7532 159.592Z" fill="#DFDFDF"/>
<path d="M62.4296 156.916C62.4296 161.009 61.2097 164.814 59.1079 167.996H25.2101C23.1082 164.814 21.8883 161.005 21.8883 156.916C21.8883 156.76 21.8924 156.6 21.8924 156.444C22.1438 145.507 31.12 136.722 42.1569 136.722C53.1938 136.722 62.1741 145.511 62.4255 156.444C62.4255 156.604 62.4296 156.76 62.4296 156.916Z" fill="#DFDFDF"/>
<path d="M86.1766 161.058C86.1766 163.62 85.41 166.009 84.0953 168H62.8623C61.5476 166.009 60.7811 163.62 60.7811 161.058C60.7811 160.959 60.7811 160.861 60.7852 160.762C60.9418 153.911 66.5633 148.406 73.4788 148.406C80.3944 148.406 86.0159 153.911 86.1766 160.762C86.1725 160.861 86.1766 160.959 86.1766 161.058Z" fill="#DFDFDF"/>
<path d="M98.3674 162.873C98.3674 163.328 98.3345 163.776 98.2726 164.215C98.0748 165.594 97.572 166.879 96.8343 167.996H81.161C80.1883 166.526 79.6237 164.765 79.6237 162.873C79.6237 162.799 79.6278 162.729 79.6278 162.655C79.6567 161.444 79.9163 160.29 80.3656 159.231C81.7915 155.881 85.1215 153.533 88.9997 153.533C92.882 153.533 96.212 155.885 97.6338 159.231C97.9388 159.95 98.1614 160.717 98.2768 161.522C98.3304 161.891 98.3633 162.269 98.3716 162.655C98.3674 162.729 98.3674 162.803 98.3674 162.873Z" fill="#DFDFDF"/>
<path d="M276 159.235V167.996H177.732V161.522C177.752 161.386 177.773 161.255 177.802 161.124C177.851 160.844 177.917 160.569 177.991 160.303C178.098 159.937 178.226 159.58 178.374 159.235H276Z" fill="#DFDFDF"/>
<path d="M276 159.592C276 159.83 275.996 160.069 275.979 160.303C275.971 160.578 275.951 160.853 275.922 161.124C275.847 161.875 275.72 162.606 275.538 163.32C275.398 163.882 275.229 164.428 275.027 164.962C274.623 166.038 274.104 167.052 273.478 167.996H247.769C247.608 167.754 247.456 167.507 247.312 167.257C246.883 166.526 246.52 165.763 246.219 164.962C246.191 164.888 246.166 164.814 246.141 164.74C245.972 164.276 245.828 163.804 245.708 163.32C245.527 162.606 245.399 161.875 245.325 161.124C245.296 160.853 245.276 160.578 245.267 160.303C245.251 160.069 245.247 159.83 245.247 159.592C245.247 159.473 245.251 159.35 245.251 159.235C245.267 158.496 245.337 157.774 245.457 157.064C245.478 156.928 245.502 156.788 245.531 156.653C245.795 155.29 246.244 153.993 246.846 152.786C247.959 150.557 249.599 148.631 251.61 147.182C254.141 145.351 257.256 144.271 260.623 144.271C268.108 144.271 274.343 149.596 275.716 156.653C275.744 156.788 275.769 156.928 275.79 157.064C275.909 157.774 275.979 158.496 275.996 159.235C276 159.35 276 159.473 276 159.592Z" fill="#DFDFDF"/>
<path d="M213.575 156.916C213.575 161.009 214.799 164.814 216.896 167.996H250.79C252.892 164.814 254.112 161.005 254.112 156.916C254.112 156.76 254.108 156.6 254.108 156.444C253.856 145.507 244.88 136.722 233.843 136.722C222.806 136.722 213.826 145.511 213.575 156.444C213.575 156.604 213.575 156.76 213.575 156.916Z" fill="#DFDFDF"/>
<path d="M189.828 161.058C189.828 163.62 190.594 166.009 191.909 168H213.142C214.456 166.009 215.223 163.62 215.223 161.058C215.223 160.959 215.223 160.861 215.219 160.762C215.062 153.911 209.441 148.406 202.525 148.406C195.61 148.406 189.988 153.911 189.832 160.762C189.832 160.861 189.828 160.959 189.828 161.058Z" fill="#DFDFDF"/>
<path d="M177.637 162.873C177.637 163.328 177.67 163.776 177.731 164.215C177.929 165.594 178.432 166.879 179.17 167.996H194.843C195.816 166.526 196.38 164.765 196.38 162.873C196.38 162.799 196.376 162.729 196.376 162.655C196.347 161.444 196.088 160.29 195.639 159.231C194.213 155.881 190.883 153.533 187.004 153.533C183.122 153.533 179.792 155.885 178.37 159.231C178.065 159.95 177.843 160.717 177.727 161.522C177.674 161.891 177.641 162.269 177.633 162.655C177.637 162.729 177.637 162.803 177.637 162.873Z" fill="#DFDFDF"/>
<path d="M276 163.32H0V164.962H276V163.32Z" fill="#A8A8A8"/>
<path opacity="0.5" d="M276 160.303H0V161.124H276V160.303Z" fill="#A9A9A9"/>
<path d="M111.428 83.0291C111.428 95.6241 101.553 105.92 89.0944 106.663C89.0285 106.667 88.9626 106.671 88.8966 106.675C88.4845 106.692 88.0765 106.704 87.6602 106.704C87.3182 106.704 86.9761 106.696 86.6382 106.684C86.5681 106.68 86.4939 106.68 86.4238 106.675C73.8745 106.031 63.8926 95.6898 63.8926 83.0291C63.8926 69.9538 74.5339 59.354 87.6602 59.354C100.787 59.354 111.428 69.9538 111.428 83.0291Z" fill="#27AE60"/>
<path d="M89.6426 157.1C89.6426 157.064 89.6508 157.027 89.6508 156.99L87.7798 75.7053C87.7798 75.6437 87.7262 75.5944 87.6644 75.5903C87.5984 75.5903 87.5448 75.6396 87.5448 75.7053L85.6738 156.99C85.6738 157.018 85.6738 157.051 85.6738 157.08C85.6738 157.088 85.6738 157.092 85.6779 157.096H89.6426V157.1Z" fill="#1B193B"/>
<path d="M69.8356 85.2172L88.5133 102.853L87.1286 102.837L105.423 86.2846C105.456 86.2559 105.51 86.2559 105.538 86.2887C105.567 86.3215 105.567 86.3708 105.538 86.3995L88.4927 104.229C88.1342 104.606 87.5366 104.623 87.1574 104.266C87.1409 104.249 87.1245 104.233 87.108 104.216L69.8356 85.2172Z" fill="#1B193B"/>
<path d="M79.8298 80.5988L88.2743 87.9923H87.2564L95.4619 80.7712C95.4825 80.7548 95.5114 80.7548 95.5278 80.7753C95.5443 80.7917 95.5443 80.8204 95.5278 80.8369L88.2785 89.0105C88.0312 89.2896 87.6026 89.3183 87.3182 89.072C87.2976 89.0556 87.2729 89.031 87.2564 89.0105L79.8298 80.5988Z" fill="#1B193B"/>
<path d="M67.5317 78.4435C67.6595 77.216 67.9933 76.0132 68.4219 74.8514C68.8506 73.6855 69.3987 72.5607 70.0499 71.4892C71.3481 69.3503 73.0914 67.4496 75.1438 65.9717C75.4034 65.7911 75.6548 65.5981 75.9227 65.4298L76.7264 64.929C76.9984 64.7689 77.2828 64.6293 77.5589 64.4815C77.835 64.3296 78.1194 64.1941 78.412 64.0669C79.5495 63.5209 80.7611 63.1432 81.9728 62.8353C84.4126 62.2605 86.9266 62.1045 89.3788 62.3632V62.5028C86.9349 62.7121 84.5404 63.1103 82.2613 63.8411C79.9863 64.5718 77.8474 65.6474 75.9516 67.0555C75.0078 67.7616 74.1258 68.5539 73.2975 69.3955C72.4814 70.2494 71.7149 71.1567 71.0225 72.1255C69.6212 74.055 68.459 76.1733 67.5317 78.4435Z" fill="#1E9D54"/>
<path d="M113.42 45.572L106.414 36.3762C107.725 33.7036 108.462 30.7027 108.462 27.5252C108.462 16.3712 99.3872 7.33136 88.1896 7.33136C76.992 7.33136 67.9169 16.3712 67.9169 27.5252C67.9169 38.6792 76.992 47.719 88.1896 47.719C93.1352 47.719 97.6645 45.9537 101.184 43.0226L113.42 45.572Z" fill="#0180F5"/>
<path d="M87.4 28.8672C87.0228 28.8672 86.71 29.1788 86.71 29.5546V30.9292C86.71 31.3049 87.0228 31.6165 87.4 31.6165C87.7772 31.6165 88.09 31.3049 88.09 30.9292V29.5546C88.09 29.1788 87.7772 28.8672 87.4 28.8672Z" fill="white"/>
<path d="M98.44 34.1367H97.52V23.8086C97.52 23.2404 97.2624 22.7089 96.8116 22.3607L90.3716 17.3754C89.7092 16.853 88.7708 16.853 88.1084 17.3754L81.6684 22.3607C81.2176 22.7089 80.96 23.2404 80.96 23.7995L80.914 34.1367H80.04C79.6628 34.1367 79.35 34.4391 79.35 34.824C79.35 35.1997 79.6628 35.5113 80.04 35.5113H98.44C98.8172 35.5113 99.13 35.1997 99.13 34.824C99.13 34.4391 98.8172 34.1367 98.44 34.1367ZM87.86 20.8486H90.62C90.9972 20.8486 91.31 21.1602 91.31 21.5359C91.31 21.9116 90.9972 22.2232 90.62 22.2232H87.86C87.4828 22.2232 87.17 21.9116 87.17 21.5359C87.17 21.1602 87.4828 20.8486 87.86 20.8486ZM93.84 34.1367H84.64V26.118C84.64 25.3574 85.2564 24.7434 86.02 24.7434H92.46C93.2236 24.7434 93.84 25.3574 93.84 26.118V34.1367Z" fill="white"/>
<path d="M151.409 153.463L210.228 47.9537C210.339 47.7566 210.587 47.6868 210.784 47.7936C210.974 47.9003 211.048 48.1384 210.953 48.3314L156.878 156.333C156.115 157.856 154.261 158.472 152.732 157.716C151.203 156.957 150.584 155.109 151.343 153.586C151.363 153.545 151.388 153.5 151.409 153.463Z" fill="#1B193B"/>
<path d="M233.611 70.871C246.172 58.3597 246.172 38.0749 233.611 25.5635C221.051 13.0522 200.687 13.0522 188.127 25.5635C175.567 38.0749 175.567 58.3597 188.127 70.871C200.687 83.3823 221.051 83.3823 233.611 70.871Z" fill="#62C7D3"/>
<path d="M210.908 77.0847C210.36 77.0847 209.812 77.0682 209.26 77.0395C201.532 76.6125 194.431 73.2093 189.271 67.4619C184.111 61.7145 181.507 54.3086 181.935 46.6112C182.364 38.9138 185.78 31.8405 191.55 26.7007C197.32 21.5609 204.751 18.9622 212.482 19.3933C220.21 19.8202 227.311 23.2235 232.471 28.9709C237.631 34.7183 240.235 42.1242 239.807 49.8215C239.378 57.5189 235.961 64.5923 230.192 69.7321C224.834 74.5065 218.038 77.0847 210.908 77.0847ZM210.838 21.8113C204.314 21.8113 198.099 24.1677 193.199 28.5357C187.924 33.2363 184.8 39.7062 184.404 46.7467C184.012 53.7872 186.394 60.5609 191.113 65.8198C195.832 71.0745 202.327 74.1863 209.396 74.5804C216.464 74.9745 223.264 72.5976 228.543 67.8971C239.436 58.1922 240.371 41.4673 230.629 30.613C225.91 25.3582 219.414 22.2464 212.346 21.8523C211.839 21.8236 211.337 21.8113 210.838 21.8113Z" fill="#FEFEFE"/>
<path d="M215.112 74.6215L230.938 58.8532L196.319 24.3689L178.387 38.0394L215.112 74.6215Z" fill="#EFEFEF"/>
<path d="M175.893 39.9402L168.29 45.7368V82.6268H179.578L199.162 63.1185L175.893 39.9402Z" fill="#DBD7D7"/>
<path d="M220.816 44.3903L249.739 15.5795V15.4481H208.023L198.812 22.4681L220.816 44.3903Z" fill="#DBD7D7"/>
<path d="M249.739 73.197V19.9639L223.016 46.5825L249.739 73.197Z" fill="#EFEFEF"/>
<path d="M168.29 15.4481V41.8327L202.9 15.4481H168.29Z" fill="#DBD7D7"/>
<path d="M183.979 82.6268H218.747L201.363 65.3107L183.979 82.6268Z" fill="#EFEFEF"/>
<path d="M217.312 76.8137L223.148 82.6268H249.739V77.5814L233.138 61.0453L217.312 76.8137Z" fill="#DBD7D7"/>
<path d="M208.023 15.4481L198.812 22.4681L196.887 20.551L194.687 22.7432L196.314 24.3689L178.387 38.0394L177.171 36.8284L174.974 39.0206L175.897 39.9402L168.29 45.7327V41.8327L202.9 15.4481H208.023Z" fill="white"/>
<path d="M223.148 82.6268H218.747L201.363 65.3107L202.072 64.6005L199.875 62.4083L199.162 63.1185L175.897 39.9402L178.387 38.0394L215.112 74.6215L213.62 76.1035L215.821 78.2957L217.308 76.8137L223.148 82.6268Z" fill="white"/>
<path d="M174.97 39.0206L175.893 39.9402L178.387 38.0394L177.171 36.8284L174.97 39.0206Z" fill="white"/>
<path d="M249.739 73.2011V77.5814L233.138 61.0454L234.758 59.432L232.557 57.2439L230.938 58.8532L196.314 24.3689L198.812 22.4681L220.816 44.3903L219.847 45.355L222.048 47.5472L223.016 46.5825L249.739 73.2011Z" fill="white"/>
<path d="M194.687 22.7432L196.319 24.3689L198.812 22.4681L196.887 20.551L194.687 22.7432Z" fill="white"/>
<path d="M249.739 15.5797V19.9641L223.016 46.5827L220.816 44.3905L249.739 15.5797Z" fill="white"/>
<path d="M220.815 44.391L219.845 45.3577L222.045 47.5493L223.015 46.5827L220.815 44.391Z" fill="white"/>
<path d="M230.935 58.8566L215.108 74.6219L217.308 76.8136L233.135 61.0483L230.935 58.8566Z" fill="white"/>
<path d="M215.108 74.6232L213.619 76.1066L215.819 78.2982L217.308 76.8149L215.108 74.6232Z" fill="white"/>
<path d="M232.555 57.2377L230.935 58.8517L233.135 61.0433L234.755 59.4294L232.555 57.2377Z" fill="white"/>
<path d="M201.363 65.3107L183.979 82.6268H179.578L199.162 63.1185L201.363 65.3107Z" fill="white"/>
<path d="M199.871 62.4112L199.16 63.1194L201.36 65.3111L202.071 64.6028L199.871 62.4112Z" fill="white"/>
<path d="M210.632 81.6169C209.997 81.6169 209.358 81.6005 208.72 81.5635C199.756 81.0668 191.526 77.1216 185.541 70.4588C179.557 63.7959 176.536 55.2077 177.035 46.2787C177.534 37.3498 181.494 29.1515 188.183 23.1907C194.872 17.2298 203.494 14.2207 212.454 14.7174C221.417 15.2142 229.648 19.1593 235.632 25.8222C241.616 32.485 244.637 41.0733 244.138 50.0022C243.639 58.9312 239.679 67.1294 232.99 73.0903C226.783 78.6283 218.903 81.6169 210.632 81.6169ZM210.554 17.5418C202.995 17.5418 195.791 20.276 190.112 25.3378C183.996 30.7854 180.377 38.2817 179.92 46.4429C179.462 54.6042 182.224 62.4535 187.697 68.5457C193.166 74.638 200.691 78.2424 208.884 78.6981C217.078 79.1537 224.958 76.4032 231.074 70.9514C237.19 65.5037 240.808 58.0075 241.266 49.8462C241.723 41.6849 238.962 33.8357 233.489 27.7434C228.02 21.6512 220.494 18.0468 212.301 17.5911C211.716 17.5583 211.131 17.5418 210.554 17.5418Z" fill="#1B193B"/>
<path d="M234.564 26.7828C237.478 29.8125 239.778 33.4662 241.233 37.4442C242.7 41.4181 243.339 45.704 243.108 49.9447C242.889 54.1855 241.781 58.3811 239.889 62.1784C237.997 65.9758 235.29 69.3544 232.034 72.0188C235.051 69.0876 237.519 65.6474 239.267 61.8787C241.027 58.1183 242.049 54.0336 242.3 49.8996C242.42 47.8305 242.337 45.7532 242.069 43.6965C241.793 41.6439 241.323 39.6117 240.664 37.6412C239.341 33.7043 237.26 30.0095 234.564 26.7828Z" fill="white"/>
<path d="M208.988 37.945C209.008 37.674 208.955 37.4113 208.901 37.1486C208.163 33.4497 204.858 31.0646 201.087 31.5654C196.755 32.1401 194.167 36.582 195.453 40.2686C195.981 41.7793 196.644 43.2285 197.39 44.6407C198.297 46.3567 199.274 48.0357 200.337 49.6655C200.823 50.4907 201.371 51.2748 201.886 52.0794C202.027 52.3011 202.088 52.3052 202.237 52.0835C203.63 49.994 204.965 47.8715 206.177 45.6752C207.141 43.9305 208.06 42.1652 208.666 40.2604C208.917 39.505 209.099 38.7414 208.988 37.945ZM206.7 34.747C206.778 34.7634 206.795 34.8291 206.799 34.8948C206.803 34.8989 206.807 34.903 206.816 34.9112C206.811 34.9071 206.807 34.903 206.799 34.8948C206.729 34.8907 206.667 34.8742 206.651 34.7921C206.642 34.7634 206.667 34.7429 206.7 34.747ZM196.834 41.5576C196.904 41.5371 196.867 41.5946 196.879 41.6151C196.863 41.5987 196.85 41.5782 196.834 41.5576ZM196.879 41.6233C196.891 41.6438 196.908 41.6644 196.92 41.6808C196.854 41.6972 196.891 41.6438 196.879 41.6233ZM198.8 38.1051C198.796 36.3111 200.279 34.8455 202.093 34.8496C203.877 34.8537 205.353 36.3398 205.34 38.1215C205.328 39.9155 203.861 41.3647 202.064 41.3606C200.263 41.3606 198.8 39.8991 198.8 38.1051Z" fill="#FC542D"/>
<path d="M206.7 34.747C206.667 34.7387 206.647 34.7634 206.651 34.7964C206.667 34.8747 206.729 34.8912 206.799 34.8994C206.803 34.9036 206.807 34.9077 206.816 34.9159C206.811 34.9118 206.807 34.9077 206.799 34.8994C206.795 34.8294 206.778 34.7676 206.7 34.747Z" fill="#004CAD"/>
<path d="M196.834 41.5576C196.85 41.5782 196.863 41.5988 196.879 41.6153C196.867 41.5988 196.904 41.5411 196.834 41.5576Z" fill="#004CAD"/>
<path d="M196.92 41.681C196.908 41.6604 196.892 41.6398 196.879 41.6233C196.892 41.6439 196.854 41.6975 196.92 41.681Z" fill="#004CAD"/>
<path d="M206.882 34.9689C206.873 34.9647 206.865 34.9606 206.857 34.9565C206.844 34.9441 206.828 34.9276 206.816 34.9153C206.828 34.9276 206.844 34.9441 206.857 34.9565C206.865 34.9606 206.873 34.9647 206.882 34.9689Z" fill="#004CAD"/>
<path d="M229.198 9.78288C229.227 9.37236 229.145 8.97004 229.066 8.57593C227.945 2.95992 222.926 -0.660925 217.205 0.102656C210.628 0.977078 206.7 7.71793 208.654 13.3134C209.457 15.6083 210.463 17.8087 211.596 19.9516C212.977 22.5585 214.456 25.1079 216.072 27.5792C216.81 28.8313 217.642 30.026 218.429 31.2452C218.644 31.5778 218.734 31.586 218.961 31.2493C221.075 28.076 223.103 24.8533 224.945 21.5157C226.408 18.8678 227.801 16.1871 228.724 13.2929C229.087 12.1557 229.363 10.998 229.198 9.78288ZM225.724 4.93456C225.844 4.95919 225.868 5.05772 225.877 5.16035C225.885 5.16856 225.893 5.17677 225.901 5.18498C225.893 5.17677 225.885 5.16856 225.877 5.16035C225.769 5.15214 225.675 5.12751 225.65 5.00845C225.642 4.95919 225.675 4.92224 225.724 4.93456ZM210.747 15.2716C210.85 15.2429 210.797 15.3291 210.813 15.3619C210.793 15.3332 210.768 15.3045 210.747 15.2716ZM210.813 15.3702C210.834 15.3989 210.854 15.4317 210.879 15.4605C210.776 15.4851 210.834 15.403 210.813 15.3702ZM213.727 10.0292C213.723 7.3033 215.969 5.07824 218.726 5.08235C221.434 5.08645 223.672 7.34435 223.655 10.0497C223.639 12.7715 221.413 14.9719 218.677 14.9678C215.952 14.9719 213.731 12.751 213.727 10.0292Z" fill="#FFDA08"/>
<path d="M225.724 4.93459C225.675 4.92222 225.642 4.95931 225.65 5.00877C225.675 5.12829 225.77 5.15302 225.877 5.16126C225.885 5.1695 225.893 5.17774 225.901 5.18599C225.893 5.17774 225.885 5.1695 225.877 5.16126C225.868 5.05823 225.844 4.95931 225.724 4.93459Z" fill="#FEFEFE"/>
<path d="M210.747 15.2717C210.768 15.3005 210.793 15.3335 210.813 15.3623C210.797 15.3294 210.85 15.2428 210.747 15.2717Z" fill="#FEFEFE"/>
<path d="M210.879 15.4608C210.859 15.432 210.838 15.399 210.813 15.3702C210.834 15.4031 210.776 15.4856 210.879 15.4608Z" fill="#FEFEFE"/>
<path d="M226 5.26746C225.988 5.25921 225.976 5.25509 225.963 5.24685C225.943 5.22624 225.918 5.20564 225.897 5.18091C225.918 5.20151 225.939 5.22624 225.963 5.24685C225.976 5.25509 225.988 5.26333 226 5.26746Z" fill="#FEFEFE"/>
<path d="M128.471 65.828L121.527 52.5639L118.596 52.7733L125.009 71.3455L128.471 65.828Z" fill="#F58C62"/>
<path d="M137.266 53.5738C135.976 54.4277 128.166 64.0176 128.166 64.0176L122.05 53.5697C121.778 53.7175 117.801 56.9566 117.801 56.9566L125.005 71.3455C125.565 72.963 128.537 74.5559 130.849 72.7496C131.768 72.298 141.746 60.5282 141.746 60.5282C141.746 60.5282 139.137 52.334 137.266 53.5738Z" fill="#EDB200"/>
<path d="M120.752 51.3077L120.513 47.067C120.488 46.6647 120.121 46.3691 119.717 46.4348L116.824 46.9192C116.618 46.952 116.47 47.1409 116.49 47.3502L116.94 52.4982C116.977 52.9006 117.352 53.1838 117.747 53.1058L120.199 52.6296C120.521 52.568 120.752 52.2889 120.752 51.9605V51.3406C120.756 51.3364 120.756 51.32 120.752 51.3077Z" fill="#1B193B"/>
<path d="M120.08 52.1123L119.993 46.9438L116.927 47.3051L117.451 52.5516L120.08 52.1123Z" fill="#FEFEFE"/>
<path d="M116.371 48.6721C116.474 48.6762 118.769 48.7501 118.741 49.3002C118.712 49.8503 116.503 49.4562 116.181 49.3741C115.86 49.2879 115.744 48.6516 116.371 48.6721Z" fill="#F58C62"/>
<path d="M116.321 49.563C116.424 49.5506 118.168 49.6122 118.25 49.9571C118.333 50.3019 116.882 50.3306 116.276 50.2485C115.674 50.1664 115.955 49.604 116.321 49.563Z" fill="#F58C62"/>
<path d="M116.552 50.3717C116.552 50.3717 117.949 50.187 118.003 50.4661C118.056 50.7453 116.705 51.0614 116.317 50.8808C115.926 50.696 116.152 50.3676 116.552 50.3717Z" fill="#F58C62"/>
<path d="M116.659 51.045C116.659 51.045 117.842 50.8888 117.887 51.1232C117.933 51.3576 116.787 51.6249 116.461 51.4728C116.128 51.3206 116.321 51.0409 116.659 51.045Z" fill="#F58C62"/>
<path d="M121.391 52.8513C121.391 52.8513 122.437 51.9317 122.38 51.1969C122.322 50.462 121.246 49.953 120.847 49.2182C120.451 48.4833 120.476 48.003 120.476 48.003C120.476 48.003 119.68 48.6516 120.022 49.3044C120.364 49.953 120.847 50.6345 120.847 50.6345C120.847 50.6345 119.655 51.3406 119.993 52.5845C120.335 53.8284 121.391 52.8513 121.391 52.8513Z" fill="#F58C62"/>
<path d="M130.87 64.1202L128.5 80.7466C130.503 81.5923 131.863 81.5102 133.033 81.1571L132.724 69.1492L130.87 64.1202Z" fill="#FFDA08"/>
<path d="M142.005 50.5236C136.38 50.5769 132.011 54.1239 132.011 54.1239L133.775 57.9295C133.804 58.0075 129.518 61.5626 129.518 61.5626C129.518 61.5626 131.69 69.375 132.172 72.2199C133.025 68.8536 133.882 65.4791 135.139 62.2441C136.396 59.0092 138.078 55.8974 140.419 53.3275C141.082 52.5967 141.82 51.8824 142.154 50.9546" fill="#FFDA08"/>
<path d="M134.373 60.7334C134.373 60.7334 132.415 66.4315 132.209 72.0229C132.003 77.6143 131.694 81.4158 131.694 81.4158L133.033 81.1612L135.609 62.6382L134.373 60.7334Z" fill="#FFDA08"/>
<path d="M134.113 74.6749L127.103 153.956L131.554 154.695L153.755 77.372L134.113 74.6749Z" fill="#FEA574"/>
<path d="M151.925 84.2689L145.15 110.144C145.154 110.144 145.154 110.144 145.15 110.149L144.981 110.801L143.617 116.011L143.464 116.598L141.906 122.538L141.766 123.084L140.122 129.357L139.974 129.924L138.069 137.202L137.921 137.769L136.606 142.79L136.458 143.36L135.296 147.814C135.007 147.777 134.719 147.74 134.43 147.712C133.4 147.326 132.291 147.137 131.158 147.022C131.104 147.006 131.051 146.989 130.993 146.969C130.874 146.932 130.771 146.94 130.684 146.981C129.336 146.866 127.972 146.837 126.682 146.698C126.707 146.402 126.732 146.111 126.756 145.819C126.752 145.671 126.748 145.524 126.748 145.372C126.501 126.578 128.854 105.588 130.787 91.7282C131.632 85.6688 132.399 80.9724 132.831 78.4148C133.066 77.0231 133.206 76.2636 133.206 76.2636L135.737 77.5239L139.516 79.4082L139.8 79.5478C139.8 79.5478 139.697 80.3278 139.516 81.7195C139.397 82.6063 139.244 83.7393 139.067 85.0735L139.516 85.0448L151.925 84.2689Z" fill="#DBD7D7"/>
<path d="M132.914 78.9813L152.972 156.021L157.415 155.233L152.329 74.9705L132.914 78.9813Z" fill="#FEA574"/>
<path d="M154.563 76.551L151.872 76.9533L154.641 77.2202L154.563 76.551Z" fill="#EFEFEF"/>
<path d="M158.4 145.733L158.371 145.142L158.087 138.881L158.062 138.303L157.745 131.5L157.716 130.901L157.349 122.912L157.32 122.313L157.04 116.278L157.015 115.678L156.673 108.236L156.64 107.612L156.356 101.355L156.323 100.739L156.018 94.097L155.989 93.5017L155.667 86.5351L155.643 85.8946L155.362 83.4561C153.895 83.7435 151.88 84.076 149.424 84.3018L154.151 147.539L153.739 147.576L146.535 84.4865C144.107 84.5686 141.63 84.4209 139.512 84.2156V94.3022L136.26 93.358C136.256 93.4237 136.252 93.4894 136.252 93.5551L136.314 93.8178C139.537 113.039 143.905 131.787 150.38 149.662L150.516 150.191L150.689 150.893L158.61 150.368L158.4 145.733Z" fill="#EFEFEF"/>
<path d="M147.602 84.4414C147.248 84.466 146.893 84.4824 146.539 84.4906L153.743 147.58L154.155 147.544L149.428 84.3059C148.838 84.3552 148.233 84.4003 147.602 84.4414Z" fill="#FC542D"/>
<path d="M133.796 83.415L134.002 80.2334L132.621 79.671C132.172 82.3764 131.508 86.5556 130.787 91.7282C131.125 91.9047 131.529 92.0361 132.003 92.1223L134.636 92.89L135.139 93.0337L136.264 93.3621C136.359 90.9975 137.455 87.237 138.515 84.1088C135.741 83.7968 133.796 83.415 133.796 83.415Z" fill="#EFEFEF"/>
<path d="M139.516 84.2197C139.17 84.1827 138.836 84.1458 138.515 84.1088C137.455 87.237 136.359 90.9975 136.264 93.3621L139.516 94.3063V84.2197Z" fill="#EFEFEF"/>
<path d="M146.539 84.4906L146.114 80.7877L149.139 80.5044L149.424 84.3018C151.88 84.076 153.895 83.7435 155.362 83.4561L154.641 77.2202L151.872 76.9534L140.513 78.6571C140.513 78.6571 140.093 79.6998 139.516 81.2721V84.2197C141.634 84.425 144.111 84.5728 146.539 84.4906Z" fill="#DBD7D7"/>
<path d="M146.114 80.7877L146.539 84.4906C146.893 84.4824 147.248 84.466 147.602 84.4413C148.233 84.4003 148.838 84.3551 149.424 84.3018L149.139 80.5044L146.114 80.7877Z" fill="#ED4224"/>
<path d="M133.796 83.4151C133.796 83.4151 135.741 83.7968 138.515 84.1088C138.865 83.0702 139.211 82.0973 139.516 81.2721V76.8466L136.108 77.4583L135.737 77.524L135.584 77.5527L133.021 78.0125C132.959 78.148 132.893 78.2835 132.831 78.4148C132.765 78.7884 132.695 79.2072 132.621 79.671L134.002 80.2335L133.796 83.4151Z" fill="#DBD7D7"/>
<path d="M139.516 84.2197V81.2721C139.211 82.0973 138.865 83.0702 138.515 84.1088C138.836 84.1458 139.17 84.1827 139.516 84.2197Z" fill="#DBD7D7"/>
<path d="M131.393 156.156L126.423 154.563C125.792 154.547 119.486 154.395 118.996 155.118C118.477 155.873 130.527 159.785 130.527 159.785L131.393 156.156Z" fill="#FC542D"/>
<path d="M132.028 153.492L126.748 152.778L126.423 154.563L131.393 156.156L132.028 153.492Z" fill="#FEFEFE"/>
<path d="M157.757 156.665L152.539 156.821C151.942 157.014 145.949 158.981 145.727 159.822C145.492 160.709 158.161 160.372 158.161 160.372L157.757 156.665Z" fill="#FC542D"/>
<path d="M157.46 153.939L152.243 155.027L152.539 156.821L157.757 156.665L157.46 153.939Z" fill="#FEFEFE"/>
<path d="M150.693 54.2676C149.58 53.7503 148.484 53.2002 147.371 52.6912C147.293 52.6542 147.235 52.6132 147.194 52.5639C147.054 52.5311 146.918 52.4982 146.778 52.4736C146.629 52.449 146.551 52.3463 146.522 52.2273C146.209 52.1944 145.9 52.1616 145.574 52.1452C145.529 52.1411 145.488 52.1452 145.443 52.1411C145.142 52.1698 144.948 52.1985 144.948 52.1985L144.305 52.1123C141.869 52.1082 139.557 52.646 139.557 52.646C139.557 52.646 134.356 58.73 134.08 59.7358C133.239 61.6119 134.814 62.9995 134.814 62.9995C134.814 62.9995 132.436 72.9219 132.197 75.6027C132.155 76.083 132.122 76.4689 132.098 76.7522C132.213 76.9615 132.337 77.1668 132.477 77.3597C133.668 79.0183 135.865 79.3836 137.765 79.5232C140.938 79.7531 144.153 79.6956 147.334 79.8434C149.918 79.9666 152.572 79.9584 154.171 77.9016C153.096 69.2683 151.62 58.1307 150.693 54.2676Z" fill="#FEFEFE"/>
<path d="M156.525 80.6439L151.262 55.9795C150.743 55.3267 150.264 54.6206 149.692 54.0131L146.011 55.298C142.644 55.1543 139.767 61.5544 136.87 67.6836C135.605 69.2559 134.805 80.5824 134.987 80.8533C136.021 82.3723 157.176 82.1177 156.525 80.6439Z" fill="#EDB200"/>
<path d="M159.39 146.461L148.618 147.004L148.83 151.174L159.601 150.631L159.39 146.461Z" fill="#E8DAE4"/>
<path d="M136.486 146.597L125.858 144.767L125.144 148.881L135.772 150.711L136.486 146.597Z" fill="#EFEFEF"/>
<path d="M144.841 53.0976C145.088 52.6994 145.377 52.334 145.76 52.0467L145.08 51.9604C143.155 51.9563 141.367 52.1903 139.553 52.6419C141.123 53.3932 142.974 53.4219 144.841 53.0976Z" fill="#FEA574"/>
<path d="M144.841 52.1246L144.272 52.1821L141.42 52.5023L141.441 51.3528L141.461 50.1869L141.511 47.5678L143.967 46.0201L144.622 50.5851L144.841 52.1246Z" fill="#FEA574"/>
<path d="M144.746 49.526C144.28 49.8134 143.749 50.0022 143.168 50.0679C140.884 50.3224 139.965 50.2567 139.52 49.5055C139.368 49.2468 139.269 48.9061 139.195 48.4668C139.108 48.0029 139.05 47.4323 138.976 46.7303C138.857 45.6629 139.199 44.6489 139.838 43.8854H139.842C139.974 43.7293 140.118 43.5816 140.274 43.4461C140.278 43.442 140.283 43.4379 140.287 43.4379C140.843 42.9617 141.544 42.6456 142.327 42.5593C143.032 42.4813 143.712 42.6004 144.313 42.8713C145.492 43.4009 146.366 44.5217 146.522 45.8928C146.687 47.3871 145.954 48.7788 144.746 49.526Z" fill="#FEA574"/>
<path d="M139.05 46.1514L137.863 47.9331L139.458 48.1507L139.071 46.2294" fill="#FEA574"/>
<path d="M143.584 46.0611C143.621 46.057 144.478 44.9322 145.051 46.0529C145.624 47.1778 144.697 48.2616 143.642 47.9578" fill="#FEA574"/>
<path d="M141.593 45.7902C141.564 45.7902 141.54 45.782 141.511 45.7656C140.41 45.0882 139.78 45.5808 139.755 45.6013C139.689 45.6547 139.594 45.6465 139.537 45.5808C139.483 45.5151 139.491 45.4207 139.557 45.3673C139.59 45.3386 140.373 44.7064 141.671 45.5069C141.746 45.5521 141.766 45.6465 141.721 45.7204C141.692 45.7614 141.643 45.7902 141.593 45.7902Z" fill="#1B193B"/>
<path d="M144.746 49.526C144.713 49.5383 144.68 49.5506 144.647 49.5629C144.532 49.3084 144.474 49.0292 144.474 48.7542C144.474 48.6516 144.482 48.5489 144.536 48.4668C144.598 48.3765 144.701 48.3231 144.795 48.2739C145.203 48.0563 145.599 47.7361 145.69 47.2845C145.776 46.8288 145.475 46.3321 145.03 46.2007C144.581 46.0693 144.058 46.3198 143.881 46.7467C143.782 46.993 143.786 47.2763 143.662 47.5144C143.538 47.7484 143.176 47.8962 143.011 47.6909C143.151 46.9438 143.291 46.1966 143.431 45.4494C143.452 45.3591 143.468 45.2606 143.427 45.1785C143.386 45.0841 143.287 45.0348 143.192 44.9979C142.879 44.8706 142.541 44.8131 142.207 44.8254C142.018 44.8337 141.828 44.8624 141.643 44.8213C141.457 44.7803 141.28 44.6448 141.259 44.456C141.251 44.3328 141.309 44.1891 141.231 44.0906C141.181 44.0249 141.09 44.0085 141.012 44.0003C140.616 43.9428 140.221 43.9182 139.825 43.9264L139.953 43.8976C139.916 43.8976 139.879 43.8935 139.842 43.8853H139.838C139.8 43.8812 139.763 43.8771 139.722 43.873C139.887 43.7047 140.072 43.561 140.274 43.4461C140.278 43.442 140.283 43.4379 140.287 43.4379C141.367 42.8015 142.883 42.8056 144.313 42.8713C145.492 43.4009 146.366 44.5216 146.522 45.8928C146.687 47.3871 145.954 48.7788 144.746 49.526Z" fill="#1B193B"/>
<path d="M139.73 49.0187C139.545 49.0187 139.372 48.9816 139.207 48.9033C139.129 48.8662 139.096 48.7755 139.133 48.6972C139.17 48.6189 139.261 48.586 139.339 48.6231C139.611 48.7549 139.92 48.7384 140.311 48.5777C140.39 48.5447 140.48 48.5818 140.513 48.6601C140.546 48.7384 140.509 48.8291 140.431 48.8621C140.18 48.9651 139.945 49.0187 139.73 49.0187Z" fill="#F05E4A"/>
<path d="M140.142 46.2623C140.138 46.2623 140.138 46.2623 140.134 46.2623C139.734 46.2623 139.734 46.8781 140.134 46.8781C140.138 46.8781 140.138 46.8781 140.142 46.8781C140.538 46.8781 140.538 46.2623 140.142 46.2623Z" fill="#1B193B"/>
<path d="M144.779 47.7361C144.721 47.7361 144.664 47.7033 144.639 47.6417C144.606 47.5637 144.639 47.4734 144.717 47.4405C144.779 47.4118 145.084 47.2558 144.927 46.8904C144.89 46.8083 144.849 46.7591 144.804 46.7508C144.692 46.7262 144.511 46.8699 144.445 46.9356C144.387 46.9972 144.289 46.9972 144.227 46.9397C144.165 46.8822 144.165 46.7837 144.223 46.7221C144.256 46.6893 144.552 46.3896 144.861 46.4471C144.969 46.4676 145.117 46.5415 145.216 46.7714C145.438 47.301 145.072 47.6253 144.845 47.7238C144.82 47.732 144.8 47.7361 144.779 47.7361Z" fill="#F05E4A"/>
<path d="M141.325 46.6862C141.317 46.6862 141.309 46.6862 141.301 46.6862L139.644 46.4312C139.561 46.4188 139.504 46.3407 139.516 46.2543C139.528 46.1721 139.607 46.1145 139.693 46.1268L141.35 46.3818C141.432 46.3942 141.49 46.4723 141.478 46.5587C141.465 46.6286 141.4 46.6862 141.325 46.6862Z" fill="#1B193B"/>
<path d="M144.87 45.6014C143.963 46.0119 142.891 46.057 141.952 45.7245C142.038 45.8682 142.092 46.0324 142.1 46.1966C141.243 45.9873 140.472 45.4577 139.969 44.7393C139.912 44.653 139.788 44.5586 139.722 44.6366C139.685 44.6777 139.697 44.7393 139.71 44.7926C139.776 45.0554 139.838 45.3181 139.903 45.5808C139.149 45.158 138.655 44.3041 138.671 43.4379C138.675 43.1669 138.729 42.8878 138.881 42.662C139.104 42.3295 139.504 42.1611 139.895 42.0667C140.53 41.9107 141.193 41.9066 141.849 41.8984C142.681 41.8902 143.514 41.8738 144.346 41.8738C145.043 41.8738 147.079 42.391 147.594 44.4683C147.594 44.4683 148.047 47.2147 147.903 47.9824C147.664 49.251 143.336 50.5482 143.188 50.1911L144.544 48.4709L145.558 48.0112L146.254 47.2681L145.945 46.0365L144.87 45.6014Z" fill="#1B193B"/>
<path d="M141.972 58.7669L143.621 62.1374L135.634 72.6058C135.634 72.6058 138.078 58.8326 142.908 55.0558C145.574 52.0343 144.833 52.1205 144.833 52.1205L144.614 50.5851C148.171 50.6385 149.106 53.6354 149.106 53.6354L141.972 58.7669Z" fill="#FFDA08"/>
<path d="M157.019 73.275L138.811 70.04L138.036 72.4334C138.036 72.4334 154.361 81.6128 159.595 79.8434C160.955 78.304 157.019 73.275 157.019 73.275Z" fill="#FEA574"/>
<path d="M147.771 53.3275C144.045 54.5098 145.08 57.6914 145.801 61.6078C145.859 62.0224 145.974 62.4781 146.139 62.9667C146.32 63.5373 146.555 64.112 146.844 64.6786C147.998 67.1253 149.852 69.9415 151.361 72.0721C146.976 71.3045 141.672 70.5696 141.672 70.5696L140.971 76.0173C140.971 76.0173 155.371 81.6292 159.628 80.1636C160.498 79.4863 160.539 78.423 160.584 78.0207C161.005 74.3547 153.248 51.4308 147.771 53.3275Z" fill="#FFDA08"/>
<path d="M139.306 70.7831C139.306 70.7831 137.53 68.2748 137.291 68.1188C137.052 67.9587 136.742 67.8807 136.264 68.0162C135.786 68.1516 133.866 69.2108 133.388 69.1739C132.91 69.141 133.318 69.6501 134.484 69.4818C135.646 69.3093 136.322 68.6648 136.606 69.0055C136.664 69.0959 134.793 69.9621 134.929 70.2659C135.065 70.5738 135.51 71.4605 136.231 71.325C136.948 71.1895 137.019 70.8488 137.019 70.8488C137.019 70.8488 136.718 71.5056 136.99 71.9778C137.258 72.4499 138.321 72.5196 138.321 72.5196L139.306 70.7831Z" fill="#FEA574"/>
<path d="M136.73 70.118C136.73 70.118 135.473 71.2306 135.659 71.5508C135.84 71.871 136.322 72.4621 136.709 72.3677C137.097 72.2774 136.685 71.8915 136.685 71.8915L136.318 71.5713L137.299 70.7092L136.73 70.118Z" fill="#FEA574"/>
<path d="M135.943 71.2799C136.351 71.0048 136.755 70.7256 137.163 70.4506C137.381 70.3028 137.175 69.9456 136.957 70.0975C136.549 70.3726 136.145 70.6517 135.737 70.9268C135.518 71.0746 135.724 71.4317 135.943 71.2799Z" fill="#F05E4A"/>
<path d="M135.477 70.5409C135.922 70.2658 136.363 69.9908 136.808 69.7157C137.031 69.5762 136.825 69.219 136.602 69.3627C136.157 69.6377 135.716 69.9128 135.271 70.1878C135.044 70.3274 135.251 70.6805 135.477 70.5409Z" fill="#F05E4A"/>
<path d="M141.935 58.7095L148.95 53.9268C149.045 53.8612 149.172 53.8858 149.238 53.9802C149.304 54.0746 149.279 54.2019 149.185 54.2676L149.181 54.2717L142.018 58.8285C141.985 58.8491 141.944 58.8408 141.923 58.808C141.894 58.7752 141.906 58.7341 141.935 58.7095Z" fill="#EDB200"/>
<path d="M144.132 78.5913C144.124 78.5913 144.115 78.5913 144.107 78.5913C143.996 78.579 143.913 78.4764 143.926 78.3614L144.886 70.4916C144.898 70.3808 145.002 70.2987 145.117 70.311C145.228 70.3233 145.311 70.4259 145.298 70.5409L144.338 78.4107C144.326 78.5174 144.235 78.5913 144.132 78.5913Z" fill="#EDB200"/>
<path d="M148.847 54.4647C149.461 55.3309 149.976 56.1766 150.483 57.0592C150.986 57.9377 151.46 58.8286 151.901 59.7317C152.795 61.538 153.566 63.3977 154.241 65.2903C154.909 67.1787 155.515 69.0794 156.063 71.0048C156.607 72.9302 157.102 74.8596 157.452 76.8384C157.473 76.9492 157.398 77.056 157.287 77.0765C157.258 77.0806 157.229 77.0806 157.205 77.0724L144.705 74.1289C144.593 74.1043 144.523 73.9934 144.552 73.8826C144.577 73.7717 144.688 73.702 144.8 73.7307L157.299 76.6742L157.048 76.9123C156.615 74.991 156.034 73.0821 155.412 71.2018C154.785 69.3216 154.097 67.4578 153.351 65.6269C152.605 63.8 151.765 62.0143 150.813 60.29C150.343 59.4279 149.84 58.5822 149.317 57.753C148.793 56.9319 148.233 56.1027 147.66 55.3678L147.643 55.3473C147.392 55.023 147.45 54.555 147.775 54.3004C148.101 54.0459 148.571 54.1075 148.826 54.4318C148.834 54.4482 148.843 54.4564 148.847 54.4647Z" fill="#EDB200"/>
<path d="M142.85 50.15L141.441 51.3529L141.461 50.187C141.663 50.1993 142.85 50.15 142.85 50.15Z" fill="#F58C62"/>
</svg>
