<svg width="33" height="32" viewBox="0 0 33 32" fill="none" xmlns="http://www.w3.org/2000/svg">
<path d="M13.3267 21.3334L15.3267 23.3334L19.66 19.3334" stroke="#817CFD" stroke-width="1.5" stroke-linecap="round" stroke-linejoin="round"/>
<path d="M12.2467 2.66663L7.42004 7.50663" stroke="#817CFD" stroke-width="1.5" stroke-miterlimit="10" stroke-linecap="round" stroke-linejoin="round"/>
<path d="M20.7533 2.66663L25.58 7.50663" stroke="#817CFD" stroke-width="1.5" stroke-miterlimit="10" stroke-linecap="round" stroke-linejoin="round"/>
<path d="M3.16663 10.4667C3.16663 8.00005 4.48663 7.80005 6.12663 7.80005H26.8733C28.5133 7.80005 29.8333 8.00005 29.8333 10.4667C29.8333 13.3334 28.5133 13.1334 26.8733 13.1334H6.12663C4.48663 13.1334 3.16663 13.3334 3.16663 10.4667Z" stroke="#817CFD" stroke-width="1.5"/>
<path d="M5.16663 13.3334L7.04663 24.8534C7.47329 27.44 8.49996 29.3334 12.3133 29.3334H20.3533C24.5 29.3334 25.1133 27.52 25.5933 25.0134L27.8333 13.3334" stroke="#817CFD" stroke-width="1.5" stroke-linecap="round"/>
</svg>
