<svg width="24" height="24" viewBox="0 0 24 24" fill="none" xmlns="http://www.w3.org/2000/svg">
<path fill-rule="evenodd" clip-rule="evenodd" d="M4.13163 0.0305155C4.06118 0.0523544 3.92579 0.110506 3.83077 0.159708L3.65793 0.24916L4.088 0.461668C4.64166 0.735242 4.95091 0.965139 5.39523 1.43337C5.91027 1.97617 6.23877 2.57457 6.43833 3.33346C6.52814 3.67521 6.53243 4.12937 6.53233 13.3354C6.53218 21.6383 6.54255 23.0137 6.60667 23.2271C6.80346 23.8816 7.57328 24.197 8.15795 23.8626C8.25078 23.8096 9.02499 23.1676 9.87839 22.4362C10.7318 21.7048 11.4436 21.1063 11.46 21.1063C11.4765 21.1063 12.2082 21.7226 13.0859 22.4758C13.9637 23.2291 14.7624 23.8793 14.8607 23.9207C15.1063 24.0242 15.5099 24.0101 15.7386 23.8902C15.842 23.8358 16.6217 23.1956 17.4712 22.4674C18.3207 21.7392 19.0443 21.1408 19.0793 21.1376C19.1143 21.1345 19.8266 21.7188 20.6622 22.4361C21.4978 23.1534 22.2612 23.7899 22.3584 23.8504C22.9628 24.2266 23.7992 23.8571 23.9527 23.1461C23.997 22.9407 24.0078 20.4429 23.995 13.3067L23.9778 3.74262L23.8651 3.3219C23.4348 1.71467 22.2755 0.55424 20.671 0.124469L20.2507 0.0119498L12.2552 0.00136288C7.85765 -0.0044165 4.20204 0.00872774 4.13163 0.0305155ZM1.48622 2.07202C0.739491 2.33797 0.195183 2.97043 0.0468698 3.74431C0.00518069 3.96208 -0.00718301 5.22843 0.00380125 8.16666C0.0191792 12.2693 0.019639 12.2845 0.129226 12.4884C0.26727 12.7452 0.427538 12.8961 0.669703 12.9974C0.82808 13.0637 1.14637 13.0766 2.62316 13.0766H4.38739V8.52718C4.38739 5.35133 4.37002 3.896 4.32991 3.70676C4.19003 3.0473 3.74284 2.47811 3.12563 2.17395C2.81863 2.02261 2.73188 2.00405 2.27013 1.9907C1.86867 1.97909 1.69722 1.99689 1.48622 2.07202ZM19.1186 4.53536C19.2223 4.60569 19.3701 4.75334 19.4469 4.86346C19.5695 5.03924 19.5865 5.11146 19.5865 5.45597C19.5865 5.80049 19.5695 5.8727 19.4469 6.04849C19.3701 6.1586 19.2223 6.30626 19.1185 6.37658L18.9299 6.50445H15.2695H11.6091L11.4204 6.37658C11.3166 6.30626 11.1689 6.1586 11.0921 6.04849C10.9691 5.87229 10.9524 5.80084 10.9524 5.45198C10.9524 5.09407 10.9673 5.03449 11.1057 4.83778C11.19 4.71795 11.3611 4.56595 11.486 4.49992L11.713 4.37993L15.3215 4.39374L18.9299 4.4075L19.1186 4.53536ZM18.9739 8.82464C19.7831 9.19268 19.8265 10.3377 19.0478 10.7751L18.8202 10.9029H15.2695C11.7321 10.9029 11.718 10.9025 11.5144 10.7928C11.1206 10.5806 10.9269 10.2542 10.9269 9.80289C10.9269 9.50916 11.0468 9.23523 11.267 9.02615C11.5856 8.72368 11.4542 8.73334 15.2695 8.73237C18.5465 8.73155 18.7821 8.73744 18.9739 8.82464ZM19.0245 13.2123C19.4103 13.4201 19.6121 13.7511 19.6121 14.1762C19.6121 14.6117 19.3671 14.9964 18.9735 15.1788C18.781 15.2681 18.5671 15.2736 15.2806 15.2747C12.2406 15.2757 11.7677 15.2656 11.6022 15.1964C11.1952 15.0262 10.9269 14.6311 10.9269 14.2022C10.9269 13.6658 11.2129 13.2883 11.744 13.1237C11.8144 13.1018 13.4354 13.0881 15.3461 13.093C18.7964 13.1021 18.8216 13.1029 19.0245 13.2123Z" fill="#1479FF"/>
</svg>
