<svg width="33" height="32" viewBox="0 0 33 32" fill="none" xmlns="http://www.w3.org/2000/svg">
<path d="M22.0333 17.1066L19.7267 17.88C19.0867 18.0933 18.5933 18.5866 18.38 19.2266L17.6067 21.5333C16.9533 23.52 14.1533 23.48 13.54 21.4933L10.94 13.12C10.4333 11.4533 11.9667 9.91997 13.6067 10.4266L21.9933 13.0266C23.98 13.6533 24.0067 16.4533 22.0333 17.1066Z" stroke="#C47CFD" stroke-width="1.5" stroke-linecap="round" stroke-linejoin="round"/>
<path d="M16.5 29.3333C23.8638 29.3333 29.8333 23.3638 29.8333 16C29.8333 8.63616 23.8638 2.66663 16.5 2.66663C9.13616 2.66663 3.16663 8.63616 3.16663 16C3.16663 23.3638 9.13616 29.3333 16.5 29.3333Z" stroke="#C47CFD" stroke-width="1.5" stroke-linecap="round" stroke-linejoin="round"/>
</svg>
