<svg width="16" height="16" viewBox="0 0 16 16" fill="none" xmlns="http://www.w3.org/2000/svg">
<path d="M6.00004 14.6667H10C13.3334 14.6667 14.6667 13.3333 14.6667 10V6.00001C14.6667 2.66668 13.3334 1.33334 10 1.33334H6.00004C2.66671 1.33334 1.33337 2.66668 1.33337 6.00001V10C1.33337 13.3333 2.66671 14.6667 6.00004 14.6667Z" stroke="#FDC741" stroke-width="1.5" stroke-linecap="round" stroke-linejoin="round"/>
<path d="M4.66663 5.5C5.33329 6.16667 6.41996 6.16667 7.09329 5.5" stroke="#FDC741" stroke-miterlimit="10" stroke-linecap="round" stroke-linejoin="round"/>
<path d="M8.90662 5.5C9.57328 6.16667 10.6599 6.16667 11.3333 5.5" stroke="#FDC741" stroke-miterlimit="10" stroke-linecap="round" stroke-linejoin="round"/>
<path d="M5.6 8.66666H10.4C10.7333 8.66666 11 8.93332 11 9.26666C11 10.9267 9.66 12.2667 8 12.2667C6.34 12.2667 5 10.9267 5 9.26666C5 8.93332 5.26667 8.66666 5.6 8.66666Z" stroke="#FDC741" stroke-miterlimit="10" stroke-linecap="round" stroke-linejoin="round"/>
</svg>
