<svg width="16" height="16" viewBox="0 0 16 16" fill="none" xmlns="http://www.w3.org/2000/svg">
<path d="M11.1671 6.07999L9.93382 4.84665C9.46715 4.37999 8.82715 4.40665 8.51382 4.89999L7.82715 5.98665L10.0205 8.17999L11.1071 7.49332C11.5805 7.19999 11.6071 6.51332 11.1671 6.07999Z" stroke="#F2994A" stroke-linecap="round" stroke-linejoin="round"/>
<path d="M7.82632 5.9867L6.23298 5.89337C5.33965 5.84003 5.03298 6.11336 4.93298 6.96003L4.53298 10.34C4.44632 11.0534 4.95965 11.56 5.67298 11.48L9.05298 11.08C9.89965 10.98 10.2063 10.6734 10.1196 9.78003L10.0263 8.1867" stroke="#F2994A" stroke-linecap="round" stroke-linejoin="round"/>
<path d="M4.99316 11.0134L6.2265 9.78003" stroke="#F2994A" stroke-linecap="round" stroke-linejoin="round"/>
<path d="M5.99967 14.6666H9.99967C13.333 14.6666 14.6663 13.3333 14.6663 9.99992V5.99992C14.6663 2.66659 13.333 1.33325 9.99967 1.33325H5.99967C2.66634 1.33325 1.33301 2.66659 1.33301 5.99992V9.99992C1.33301 13.3333 2.66634 14.6666 5.99967 14.6666Z" stroke="#F2994A" stroke-linecap="round" stroke-linejoin="round"/>
</svg>
