<svg width="147" height="204" viewBox="0 0 147 204" fill="none" xmlns="http://www.w3.org/2000/svg">
<circle cx="75.3555" cy="81.5" r="71.5" fill="#E8F1F9" fill-opacity="0.6"/>
<path d="M66.9095 98.2316L102.141 64.0308C102.141 64.0308 107.134 59.6483 103.56 57.056C103.56 57.056 102.127 55.9183 99.9838 55.0533C99.2516 54.758 98.4327 54.4933 97.5616 54.3199C96.2112 54.0491 95.0826 53.0233 94.714 51.6854C94.0018 49.1051 93.8128 44.6762 97.7148 39.193C97.7148 39.193 103.468 31.5466 107.557 28.1865C108.526 27.3892 109.91 27.2628 111.119 27.8598C112.12 28.3588 113.465 29.0568 114.956 29.9263C119.944 32.8327 126.626 37.6393 128.056 43.1755C128.056 43.1755 133.396 60.3855 97.6742 94.6665C62.442 129.266 45.2955 123.515 45.2955 123.515C39.6556 121.884 34.9427 114.738 32.2101 109.635C31.4858 108.279 30.9029 107.071 30.4752 106.145C29.9123 104.92 30.0794 103.539 30.9029 102.597C34.3848 98.6092 42.2002 93.0849 42.2002 93.0849C47.7971 89.3466 52.2225 89.6645 54.7811 90.453C56.1074 90.86 57.1003 92.0161 57.3295 93.3729C57.5207 94.4966 57.8625 95.5356 58.2373 96.422C58.2373 96.4251 58.2373 96.4251 58.2373 96.4251C59.0013 98.2512 59.8928 99.4462 59.8928 99.4462C62.382 103.09 66.9095 98.2316 66.9095 98.2316Z" fill="#395E8F"/>
<path d="M42.2015 93.0825C47.7985 89.3442 52.2238 89.662 54.7824 90.4506C56.1088 90.8576 57.1017 92.0137 57.3308 93.3704C57.5221 94.4942 57.8638 95.5332 58.2386 96.4195C58.2387 96.4227 58.2387 96.4227 58.2387 96.4227C58.2387 96.4227 48.9997 92.0789 32.2108 109.632C31.4866 108.276 30.9037 107.068 30.4759 106.142C29.9131 104.917 30.0802 103.536 30.9037 102.594C34.3862 98.6067 42.2015 93.0825 42.2015 93.0825Z" fill="#323E49"/>
<path d="M97.7287 39.1248C93.824 44.6054 94.0099 49.0364 94.7221 51.6167C95.0902 52.9541 96.2161 53.9804 97.566 54.2496C98.6844 54.4741 99.7127 54.8468 100.588 55.2474C100.591 55.2474 100.591 55.2474 100.591 55.2474C100.591 55.2474 96.5228 45.8875 114.576 29.6362C113.242 28.8721 112.051 28.2535 111.137 27.799C109.928 27.2004 108.543 27.3263 107.575 28.121C103.485 31.481 97.7287 39.1248 97.7287 39.1248Z" fill="#323E49"/>
<path d="M43.8918 175.675C45.9659 176.945 47.5163 179.251 48.3774 182.159C50.6929 191.45 40.3329 192.565 34.9052 188.503C38.0383 194.253 43.0631 196.177 44.4318 196.692L45.3051 199.86L45.267 199.843L45.2675 199.85C40.1326 199.138 32.3938 192.812 31.075 184.708C27.1114 181.073 26.1725 178.751 25.1936 174.01C24.4748 170.521 24.9871 167.969 26.9535 165.34C26.114 164.333 25.3295 163.24 24.5987 162.098L24.597 162.1C20.3991 157.337 17.1367 148.68 19.5875 140.854C17.6678 135.833 17.8678 133.339 19.1164 128.668C20.0366 125.23 21.6389 123.181 24.5775 121.716C23.5133 117.188 22.9476 112.037 24.4718 108.589C26.0394 105.039 29.4222 102.009 33.7767 103.068L33.7678 107.287C31.0598 106.762 24.9145 109.919 26.598 120.344C28.0315 119.254 29.6464 117.821 32.4896 117.7L32.4919 117.697C36.104 117.58 38.6001 119.933 39.8475 122.87C40.9305 125.423 41.1963 128.789 40.3643 131.393C37.3421 139.347 28.1349 132.155 25.6978 124.999L25.5514 124.575C22.908 126.161 19.4963 131.39 21.4543 139.964C22.715 138.22 24.0839 136.475 26.7838 135.065L26.785 135.062C30.2196 133.31 33.6218 136.162 35.1061 138.537C36.3942 140.601 36.7466 143.355 36.2156 146.337C34.124 155.67 24.3525 152.02 21.3149 145.961C21.4608 150.144 23.2346 154.646 24.7723 157.619C25.415 158.61 26.0816 159.704 26.7538 160.885L26.7379 160.847L26.7588 160.838C27.2189 161.633 27.6701 162.382 28.1164 163.193C27.2458 161.612 29.7195 159.575 32.2039 158.192L32.2106 158.19C35.3827 156.466 38.6677 157.453 41.0984 159.524C43.2091 161.324 44.9561 164.217 45.38 166.922C46.2464 175.396 34.8042 173.087 29.4218 167.775L29.1024 167.462C27.4528 170.067 26.7512 176.278 32.3408 183.073C32.6843 180.946 33.1247 178.772 34.9046 176.297L34.9043 176.294C37.1867 173.188 41.5031 174.214 43.8918 175.675ZM37.622 126.844C37.5929 125.79 37.2478 124.756 36.5861 123.934C36.1985 123.453 35.7659 123.014 35.3667 122.649C34.5078 121.863 33.351 121.485 32.1962 121.611C29.7712 121.875 27.938 122.654 27.938 122.654C28.6533 129.588 37.8374 134.604 37.622 126.844ZM32.7518 142.067C32.6504 141.6 32.4905 141.156 32.225 140.759C31.2452 139.296 29.8678 137.955 27.5279 139.195L27.5276 139.191C25.1839 140.387 23.6256 141.6 22.582 142.805C24.2834 148.831 34.4778 150.066 32.7518 142.067ZM40.8958 164.081C40.3971 163.151 39.6263 162.381 38.6679 161.941C38.1067 161.683 37.5228 161.486 37.004 161.338C35.8852 161.018 34.6825 161.2 33.7082 161.831C31.6612 163.154 30.3738 164.674 30.3738 164.674C34.1189 170.559 44.5656 170.93 40.8958 164.081ZM34.5894 185.13C38.8096 189.761 48.4951 186.275 43.369 179.89C43.0703 179.517 42.6959 179.211 42.2818 178.974C40.752 178.104 38.9767 177.488 37.3551 179.699L37.3538 179.696C35.8493 181.786 34.9809 183.583 34.5894 185.13Z" fill="#323E49"/>
<g clip-path="url(#clip0_135_11909)">
<path d="M82.1819 127.424C82.3749 127.78 82.3598 128.231 82.1048 128.58C78.8973 133.002 73.4564 136.868 67.5529 138.92C60.7863 141.27 54.0958 141.033 48.7129 138.254C48.1787 137.977 47.9695 137.321 48.246 136.787C48.5225 136.253 49.1785 136.044 49.7127 136.32C60.5699 141.928 74.8708 134.847 80.3442 127.303C80.6968 126.816 81.3783 126.707 81.8627 127.061C82.0007 127.159 82.1074 127.285 82.1819 127.424Z" fill="#52677A"/>
<path d="M80.2622 134.995C80.4551 135.352 80.44 135.802 80.185 136.151C76.9775 140.574 71.5366 144.44 65.6331 146.491C58.8665 148.841 52.176 148.605 46.7931 145.825C46.2589 145.549 46.0497 144.893 46.3262 144.358C46.6027 143.824 47.2587 143.615 47.7929 143.891C58.6506 149.497 72.9515 142.416 78.4249 134.873C78.7775 134.386 79.4585 134.279 79.9435 134.631C80.0809 134.73 80.1876 134.856 80.2622 134.995Z" fill="#52677A"/>
</g>
<g clip-path="url(#clip1_135_11909)">
<path d="M88.9818 35.8946C88.6795 35.628 88.5375 35.2026 88.6511 34.7895C90.1017 29.5744 93.8235 24.1186 98.6068 20.1991C104.088 15.7053 110.4 13.6507 116.375 14.4125C116.968 14.4873 117.391 15.03 117.319 15.6211C117.248 16.2132 116.709 16.6323 116.116 16.555C104.062 15.0185 93.2065 26.4855 90.7329 35.3835C90.5726 35.9571 89.9778 36.2886 89.4026 36.1266C89.244 36.0787 89.0999 35.9987 88.9818 35.8946Z" fill="#395E8F"/>
<path d="M88.14 28.181C87.8376 27.9145 87.6957 27.489 87.8092 27.076C89.2598 21.8608 92.983 16.4062 97.7662 12.4867C103.248 7.99288 109.559 5.93824 115.534 6.70002C116.128 6.7749 116.55 7.3176 116.478 7.90865C116.408 8.50081 115.868 8.91876 115.275 8.84262C103.221 7.30607 92.3684 18.7729 89.8934 27.6698C89.7332 28.2434 89.1383 28.5749 88.5631 28.413C88.401 28.3664 88.2581 28.2852 88.14 28.181Z" fill="#395E8F"/>
</g>
<defs>
<clipPath id="clip0_135_11909">
<rect width="27.0143" height="31.2928" fill="white" transform="translate(82.5349 127.133) rotate(103.334)"/>
</clipPath>
<clipPath id="clip1_135_11909">
<rect width="17.3455" height="39.647" fill="white" transform="translate(108.22) rotate(41.4012)"/>
</clipPath>
</defs>
</svg>
