<svg width="72" height="72" viewBox="0 0 72 72" fill="none" xmlns="http://www.w3.org/2000/svg">
<path d="M71.5 36C71.5 55.6061 55.6061 71.5 36 71.5C16.3939 71.5 0.5 55.6061 0.5 36C0.5 16.3939 16.3939 0.5 36 0.5C55.6061 0.5 71.5 16.3939 71.5 36Z" fill="#ECEFF1" stroke="black"/>
<path d="M62.1945 57.051C60.6285 55.8135 58.7205 54.9225 56.6505 54.4905L46.782 52.5105C45.747 52.3125 45 51.3855 45 50.3055V48.042C45.6345 47.151 46.233 45.9675 46.8585 44.73C47.3445 43.7715 48.078 42.327 48.4425 41.9535C50.4405 39.9465 52.371 37.692 52.9695 34.785C53.5275 32.058 52.9785 30.627 52.335 29.475C52.335 26.5995 52.245 22.9995 51.5655 20.3805C51.4845 16.8345 50.841 14.841 49.221 13.095C48.078 11.8575 46.395 11.5695 45.0405 11.34C44.5095 11.25 43.776 11.124 43.506 10.98C41.1075 9.684 38.736 9.0495 35.9055 9C29.979 9.243 22.6935 13.014 20.2545 19.737C19.4985 21.7845 19.575 25.146 19.638 27.846L19.5795 29.4705C18.999 30.6045 18.4275 32.0445 18.99 34.7805C19.584 37.692 21.5145 39.951 23.5485 41.985C23.8815 42.327 24.633 43.785 25.128 44.748C25.7625 45.981 26.3655 47.16 27 48.0465V50.31C27 51.3855 26.2485 52.3125 25.209 52.515L15.3315 54.495C13.275 54.9315 11.367 55.8135 9.80549 57.051C9.31949 57.4425 9.01349 58.014 8.96399 58.635C8.91449 59.256 9.12149 59.8635 9.53999 60.327C16.263 67.743 25.9065 72 36 72C46.0935 72 55.7415 67.7475 62.46 60.327C62.8785 59.8635 63.09 59.2515 63.036 58.6305C62.9865 58.0095 62.6805 57.438 62.1945 57.051Z" fill="#FEFEFE"/>
<path d="M71.5 36C71.5 55.6061 55.6061 71.5 36 71.5C16.3939 71.5 0.5 55.6061 0.5 36C0.5 16.3939 16.3939 0.5 36 0.5C55.6061 0.5 71.5 16.3939 71.5 36Z" stroke="#C6C6C6"/>
</svg>
