<svg width="56" height="56" viewBox="0 0 56 56" fill="none" xmlns="http://www.w3.org/2000/svg">
<rect width="56" height="56" rx="8" fill="#F5F7F8"/>
<rect x="0.5" y="0.5" width="55" height="55" rx="7.5" stroke="#0180F5" stroke-opacity="0.3"/>
<path d="M39.271 31.941C39.082 31.977 38.785 32 38.5 32C37.207 32 35.978 31.55 35 30.738C34.022 31.55 32.793 32 31.5 32C30.207 32 28.978 31.55 28 30.738C27.022 31.55 25.793 32 24.5 32C23.207 32 21.978 31.55 21 30.738C20.022 31.55 18.793 32 17.5 32C17.204 32 16.903 31.974 16.631 31.924C16.429 31.896 16.215 31.843 16 31.779V42C16 42.55 16.45 43 17 43H30V35C30 34.447 30.447 34 31 34H35C35.553 34 36 34.447 36 35V43H39C39.55 43 40 42.55 40 42V31.777C39.757 31.85 39.512 31.91 39.271 31.941ZM26 39C26 39.553 25.552 40 25 40H21C20.448 40 20 39.553 20 39V35C20 34.447 20.448 34 21 34H25C25.552 34 26 34.447 26 35V39Z" fill="#0180F5"/>
<path d="M39.438 18.5H37.135L41 25.266V26.5C41 27.879 39.878 29 38.5 29C37.122 29 36 27.879 36 26.5V25C36 24.907 35.987 24.814 35.961 24.726L34.183 18.5H27V26.5C27 27.879 25.878 29 24.5 29C23.122 29 22 27.879 22 26.5V25.14L23.897 18.5H16.563L13.132 24.504C13.045 24.655 13 24.826 13 25V26.5C13 28.981 15.019 31 17.5 31C18.921 31 20.175 30.325 21 29.294C21.825 30.325 23.079 31 24.5 31C25.921 31 27.175 30.325 28 29.294C28.825 30.325 30.079 31 31.5 31C32.921 31 34.175 30.325 35 29.294C35.825 30.325 37.079 31 38.5 31C40.981 31 43 28.981 43 26.5V25C43 24.826 42.955 24.655 42.868 24.504L39.438 18.5Z" fill="#0180F5"/>
<path d="M39 17.5V16C39 14.346 37.654 13 36 13H20C18.346 13 17 14.346 17 16V17.5H39Z" fill="#0180F5"/>
</svg>
