<svg width="8" height="10" viewBox="0 0 8 10" fill="none" xmlns="http://www.w3.org/2000/svg">
<path d="M2.39444 3.95V2.66673C2.39413 2.4162 2.2862 2.17511 2.09286 1.99664C1.89939 1.81806 1.6363 1.71698 1.36111 1.71667L2.39444 3.95ZM2.39444 3.95H1.36111C1.25331 3.95 1.1492 3.98949 1.07185 4.06089C0.994369 4.13241 0.95 4.23032 0.95 4.33333C0.95 4.43635 0.994369 4.53425 1.07185 4.60578C1.1492 4.67718 1.25331 4.71667 1.36111 4.71667H2.39444V8.66667C2.39444 8.76968 2.43881 8.86759 2.5163 8.93911C2.59365 9.01051 2.69776 9.05 2.80556 9.05C5.42142 9.05 7.55 6.93444 7.55 4.33333C7.55 4.0324 7.37951 3.76854 7.10998 3.58194C6.84052 3.39539 6.4691 3.28333 6.05556 3.28333C5.64201 3.28333 5.2706 3.39539 5.00113 3.58194C4.7316 3.76854 4.56111 4.0324 4.56111 4.33333C4.56111 4.43635 4.60548 4.53425 4.68296 4.60578C4.76031 4.67718 4.86442 4.71667 4.97222 4.71667C5.08002 4.71667 5.18413 4.67718 5.26148 4.60578C5.33896 4.53425 5.38333 4.43635 5.38333 4.33333C5.38333 4.31626 5.39268 4.28979 5.42164 4.25703C5.44997 4.22499 5.49367 4.19101 5.55249 4.1599C5.66992 4.0978 5.84229 4.05 6.05556 4.05C6.26882 4.05 6.44119 4.0978 6.55862 4.1599C6.61744 4.19101 6.66114 4.22499 6.68947 4.25703C6.71843 4.28979 6.72778 4.31626 6.72778 4.33333C6.72778 6.37207 5.18664 8.05435 3.21667 8.26181V4.71667H3.52778C3.63558 4.71667 3.73969 4.67718 3.81704 4.60578C3.89452 4.53425 3.93889 4.43635 3.93889 4.33333C3.93889 4.23032 3.89452 4.13241 3.81704 4.06089C3.73969 3.98949 3.63558 3.95 3.52778 3.95H3.21667V2.66667V2.66661C3.21611 2.21014 3.01939 1.77341 2.67115 1.45196C2.32305 1.13064 1.85187 0.950509 1.36116 0.95H1.36111C1.25331 0.95 1.1492 0.989492 1.07185 1.06089C0.994369 1.13241 0.95 1.23032 0.95 1.33333C0.95 1.43635 0.994369 1.53425 1.07185 1.60578C1.14919 1.67716 1.25328 1.71665 1.36106 1.71667L2.39444 3.95Z" fill="#0180F5" stroke="#0180F5" stroke-width="0.1"/>
</svg>
