<svg width="33" height="32" viewBox="0 0 33 32" fill="none" xmlns="http://www.w3.org/2000/svg">
<path d="M24.5 25.1467H23.4867C22.42 25.1467 21.4067 25.56 20.66 26.3067L18.38 28.56C17.34 29.5867 15.6467 29.5867 14.6067 28.56L12.3267 26.3067C11.58 25.56 10.5533 25.1467 9.5 25.1467H8.5C6.28667 25.1467 4.5 23.3734 4.5 21.1867V6.64001C4.5 4.45335 6.28667 2.68005 8.5 2.68005H24.5C26.7133 2.68005 28.5 4.45335 28.5 6.64001V21.1867C28.5 23.3601 26.7133 25.1467 24.5 25.1467Z" stroke="#FFA959" stroke-width="1.5" stroke-miterlimit="10" stroke-linecap="round" stroke-linejoin="round"/>
<path d="M16.5 13.3333C18.2158 13.3333 19.6067 11.9424 19.6067 10.2266C19.6067 8.51084 18.2158 7.12 16.5 7.12C14.7842 7.12 13.3933 8.51084 13.3933 10.2266C13.3933 11.9424 14.7842 13.3333 16.5 13.3333Z" stroke="#FFA959" stroke-width="1.5" stroke-linecap="round" stroke-linejoin="round"/>
<path d="M21.8333 20.8799C21.8333 18.4799 19.4466 16.5333 16.5 16.5333C13.5533 16.5333 11.1666 18.4799 11.1666 20.8799" stroke="#FFA959" stroke-width="1.5" stroke-linecap="round" stroke-linejoin="round"/>
</svg>
